<svg width="33" height="33" viewBox="0 0 33 33" fill="none" xmlns="http://www.w3.org/2000/svg">
<path d="M27.0252 27.9784C26.2965 25.9779 26.497 23.7437 27.5912 21.8969V4.05676L9.48437 4.05676C7.82752 4.05676 6.48438 5.39991 6.48438 7.05676V24.9784C6.48438 26.6352 7.82752 27.9784 9.48437 27.9784H27.0252Z" stroke="#5A6E87" stroke-width="2"/>
<path d="M27.4623 21.1198H10.4144C8.31727 21.1198 6.61719 22.8198 6.61719 24.917M6.61738 26.8156V26.5314C6.61738 26.2037 6.66991 25.8883 6.767 25.5932M26.9865 23.5314H9.61738C8.28818 23.5314 7.16088 24.3958 6.767 25.5932M6.61738 25.5932H6.767M6.767 25.5932H26.6223M16.6603 9.73364V12.8832H19.7053M22.3142 12.4963C22.3142 15.4092 19.9528 17.7705 17.04 17.7705C14.1271 17.7705 11.7658 15.4092 11.7658 12.4963C11.7658 9.58349 14.1271 7.22217 17.04 7.22217C19.9528 7.22217 22.3142 9.58349 22.3142 12.4963Z" stroke="#5A6E87" stroke-linecap="round"/>
</svg>
