<svg width="33" height="32" viewBox="0 0 33 32" fill="none" xmlns="http://www.w3.org/2000/svg">
<path d="M9.48437 27.9608C7.82752 27.9608 6.48438 26.6177 6.48438 24.9608V7.03919C6.48438 5.38233 7.82752 4.03919 9.48437 4.03919L27.5912 4.03918V21.8793C26.497 23.7261 26.2965 25.9603 27.0252 27.9608H9.48437Z" stroke="#5A6E87" stroke-width="2"/>
<path d="M6.61719 24.8994V24.8994C6.61719 22.8023 8.31727 21.1022 10.4144 21.1022H27.4623" stroke="#5A6E87" stroke-width="2"/>
<path d="M6.61719 26.798V26.5138C6.61719 26.1861 6.66972 25.8708 6.76681 25.5756M27.4623 23.5138H9.61719C8.28799 23.5138 7.16069 24.3782 6.76681 25.5756M6.61719 25.5756H6.76681M6.76681 25.5756H27.4623" stroke="#5A6E87"/>
<path d="M17.0391 14.6727C17.7499 14.6727 18.4347 14.6084 19.07 14.489C18.4539 14.6463 17.7673 14.7355 17.0391 14.7355C16.3108 14.7355 15.6242 14.6463 15.0081 14.489C15.6434 14.6084 16.3282 14.6727 17.0391 14.6727ZM17.0391 16.8049C17.7499 16.8049 18.4347 16.7406 19.07 16.6212C18.4539 16.7785 17.7673 16.8677 17.0391 16.8677C16.3108 16.8677 15.6242 16.7785 15.0081 16.6212C15.6434 16.7406 16.3282 16.8049 17.0391 16.8049ZM21.9531 10.4657C21.9531 10.9013 21.5779 11.4363 20.6474 11.8921C19.7498 12.3318 18.4747 12.6179 17.0391 12.6179C15.6034 12.6179 14.3283 12.3318 13.4307 11.8921C12.5002 11.4363 12.125 10.9013 12.125 10.4657C12.125 10.0301 12.5002 9.49514 13.4307 9.03931C14.3283 8.5996 15.6034 8.31348 17.0391 8.31348C18.4747 8.31348 19.7498 8.5996 20.6474 9.03931C21.5779 9.49514 21.9531 10.0301 21.9531 10.4657Z" stroke="#5A6E87"/>
</svg>
