<svg width="33" height="32" viewBox="0 0 33 32" fill="none" xmlns="http://www.w3.org/2000/svg">
<path d="M27.0252 27.9608C26.2965 25.9603 26.497 23.7261 27.5912 21.8793V4.03918L9.48437 4.03919C7.82752 4.03919 6.48438 5.38233 6.48438 7.03919V24.9608C6.48438 26.6177 7.82752 27.9608 9.48437 27.9608H27.0252Z" stroke="#5A6E87" stroke-width="2"/>
<path d="M6.61719 24.8994V24.8994C6.61719 22.8023 8.31727 21.1022 10.4144 21.1022H27.4623" stroke="#5A6E87" stroke-width="2"/>
<path d="M6.61719 25.0756C6.34105 25.0756 6.11719 25.2994 6.11719 25.5756C6.11719 25.8517 6.34105 26.0756 6.61719 26.0756V25.0756ZM14.1079 10.0006C14.1079 10.2768 14.3317 10.5006 14.6079 10.5006C14.884 10.5006 15.1079 10.2768 15.1079 10.0006H14.1079ZM18.9326 12.1213L18.6537 11.7063L18.6537 11.7063L18.9326 12.1213ZM18.3245 12.53L18.6035 12.945L18.6035 12.945L18.3245 12.53ZM16.498 15.3603C16.498 15.6365 16.7218 15.8603 16.998 15.8603C17.2741 15.8603 17.498 15.6365 17.498 15.3603H16.498ZM7.11719 26.798V26.5138H6.11719V26.798H7.11719ZM9.61719 24.0138H27.4623V23.0138H9.61719V24.0138ZM6.61719 26.0756H6.76681V25.0756H6.61719V26.0756ZM6.76681 26.0756H27.4623V25.0756H6.76681V26.0756ZM7.11719 26.5138C7.11719 26.2399 7.16106 25.9772 7.24177 25.7318L6.29185 25.4193C6.17837 25.7643 6.11719 26.1324 6.11719 26.5138H7.11719ZM7.24177 25.7318C7.57018 24.7335 8.51029 24.0138 9.61719 24.0138V23.0138C8.06569 23.0138 6.7512 24.023 6.29185 25.4193L7.24177 25.7318ZM15.1079 10.0006V9.66573H14.1079V10.0006H15.1079ZM19.7018 9.66573V9.73907H20.7018V9.66573H19.7018ZM18.6537 11.7063L18.0456 12.115L18.6035 12.945L19.2115 12.5363L18.6537 11.7063ZM16.498 15.0199V15.3603H17.498V15.0199H16.498ZM18.0456 12.115C17.0782 12.7652 16.498 13.8543 16.498 15.0199H17.498C17.498 14.1873 17.9124 13.4094 18.6035 12.945L18.0456 12.115ZM19.7018 9.73907C19.7018 10.5284 19.3088 11.266 18.6537 11.7063L19.2115 12.5363C20.143 11.9102 20.7018 10.8615 20.7018 9.73907H19.7018ZM17.4048 7.36877C18.6734 7.36877 19.7018 8.39716 19.7018 9.66573H20.7018C20.7018 7.84487 19.2257 6.36877 17.4048 6.36877V7.36877ZM15.1079 9.66573C15.1079 8.39716 16.1363 7.36877 17.4048 7.36877V6.36877C15.584 6.36877 14.1079 7.84487 14.1079 9.66573H15.1079Z" fill="#5A6E87"/>
<path d="M17.5959 17.7131C17.5959 18.0255 17.3427 18.2787 17.0304 18.2787C16.718 18.2787 16.4648 18.0255 16.4648 17.7131C16.4648 17.4008 16.718 17.1476 17.0304 17.1476C17.3427 17.1476 17.5959 17.4008 17.5959 17.7131Z" fill="#5A6E87"/>
</svg>
