<svg width="33" height="32" viewBox="0 0 33 32" fill="none" xmlns="http://www.w3.org/2000/svg">
<path d="M27.0252 27.9608C26.2965 25.9603 26.497 23.7261 27.5912 21.8793V4.03918L9.48437 4.03919C7.82752 4.03919 6.48438 5.38233 6.48438 7.03919V24.9608C6.48438 26.6177 7.82752 27.9608 9.48437 27.9608H27.0252Z" stroke="#5A6E87" stroke-width="2"/>
<path d="M27.4623 21.1022H10.4144C8.31727 21.1022 6.61719 22.8023 6.61719 24.8994M6.61738 26.798V26.5138C6.61738 26.1861 6.66991 25.8708 6.767 25.5756M27.4625 23.5138H9.61738C8.28818 23.5138 7.16088 24.3782 6.767 25.5756M6.61738 25.5756H6.767M6.767 25.5756H27.4625M18.9611 14.2025L22.0673 16.7221M20.1987 11.2089C20.1987 13.4901 18.3494 15.3395 16.0681 15.3395C13.7868 15.3395 11.9375 13.4901 11.9375 11.2089C11.9375 8.92759 13.7868 7.07825 16.0681 7.07825C18.3494 7.07825 20.1987 8.92759 20.1987 11.2089Z" stroke="#5A6E87" stroke-linecap="round"/>
</svg>
