<svg width="33" height="33" viewBox="0 0 33 33" fill="none" xmlns="http://www.w3.org/2000/svg">
<path d="M27.0252 28.2909C26.2965 26.2904 26.497 24.0562 27.5912 22.2094V4.36926L9.48437 4.36926C7.82752 4.36926 6.48438 5.71241 6.48438 7.36926V25.2909C6.48438 26.9477 7.82752 28.2909 9.48437 28.2909H27.0252Z" stroke="#5A6E87" stroke-width="2"/>
<path d="M27.4623 21.4323H10.4144C8.31727 21.4323 6.61719 23.1323 6.61719 25.2295M6.61738 27.1281V26.8439C6.61738 26.5162 6.66991 26.2008 6.767 25.9057M27.4625 23.8439H9.61738C8.28818 23.8439 7.16088 24.7083 6.767 25.9057M6.61738 25.9057H6.767M6.767 25.9057H27.4625M14.8173 12.549L21.3173 12.5819M21.5757 12.5819C21.5757 15.5141 19.9508 17.8911 17.9465 17.8911C15.9421 17.8911 14.3173 15.5141 14.3173 12.5819C14.3173 9.64972 15.9421 7.27271 17.9465 7.27271C19.9508 7.27271 21.5757 9.64972 21.5757 12.5819Z" stroke="#5A6E87" stroke-linecap="round"/>
</svg>
