<svg width="33" height="33" viewBox="0 0 33 33" fill="none" xmlns="http://www.w3.org/2000/svg">
<path d="M27.3065 28.2909C26.5778 26.2904 26.7782 24.0562 27.8725 22.2094V4.36926L9.76562 4.36926C8.10877 4.36926 6.76562 5.71241 6.76562 7.36926V25.2909C6.76562 26.9477 8.10877 28.2909 9.76562 28.2909H27.3065Z" stroke="#5A6E87" stroke-width="2"/>
<path d="M27.7436 21.4323H10.6957C8.59852 21.4323 6.89844 23.1323 6.89844 25.2295M6.89863 27.1281V26.8439C6.89863 26.5162 6.95116 26.2008 7.04825 25.9057M27.7438 23.8439H9.89863C8.56943 23.8439 7.44213 24.7083 7.04825 25.9057M6.89863 25.9057H7.04825M7.04825 25.9057H27.7438" stroke="#5A6E87"/>
<path d="M16.1266 13.1542C16.1266 13.6617 15.7152 14.073 15.2078 14.073C14.7004 14.073 14.2891 13.6617 14.2891 13.1542C14.2891 12.6468 14.7004 12.2355 15.2078 12.2355C15.7152 12.2355 16.1266 12.6468 16.1266 13.1542Z" fill="#5A6E87"/>
<path d="M19.2438 13.1542C19.2438 13.6617 18.8324 14.073 18.325 14.073C17.8176 14.073 17.4062 13.6617 17.4062 13.1542C17.4062 12.6468 17.8176 12.2355 18.325 12.2355C18.8324 12.2355 19.2438 12.6468 19.2438 13.1542Z" fill="#5A6E87"/>
<path d="M22.357 13.1542C22.357 13.6617 21.9457 14.073 21.4383 14.073C20.9309 14.073 20.5195 13.6617 20.5195 13.1542C20.5195 12.6468 20.9309 12.2355 21.4383 12.2355C21.9457 12.2355 22.357 12.6468 22.357 13.1542Z" fill="#5A6E87"/>
</svg>
