<svg width="33" height="33" viewBox="0 0 33 33" fill="none" xmlns="http://www.w3.org/2000/svg">
<path d="M27.0252 28.2911C26.2965 26.2906 26.497 24.0564 27.5912 22.2096V4.36951L9.48437 4.36951C7.82752 4.36951 6.48438 5.71265 6.48438 7.36951V25.2911C6.48438 26.948 7.82752 28.2911 9.48437 28.2911H27.0252Z" stroke="#5A6E87" stroke-width="2"/>
<path d="M6.61719 25.2297V25.2297C6.61719 23.1326 8.31727 21.4325 10.4144 21.4325H27.4623" stroke="#5A6E87" stroke-width="2"/>
<path d="M6.61719 27.1283V26.8441C6.61719 25.1873 7.96033 23.8441 9.61719 23.8441H27.4623M27.4623 25.9059H6.61719" stroke="#5A6E87"/>
<line x1="16.9021" y1="7.48306" x2="12.2096" y2="17.707" stroke="#5A6E87" stroke-linecap="round"/>
<line x1="0.5" y1="-0.5" x2="11.7494" y2="-0.5" transform="matrix(0.417131 0.908847 0.908847 -0.417131 17.4219 6.82007)" stroke="#5A6E87" stroke-linecap="round"/>
<line x1="14.25" y1="14.0479" x2="19.9805" y2="14.0479" stroke="#5A6E87" stroke-linecap="round"/>
</svg>
