<svg width="33" height="33" viewBox="0 0 33 33" fill="none" xmlns="http://www.w3.org/2000/svg">
<path fill-rule="evenodd" clip-rule="evenodd" d="M25.7931 13.0068C25.7931 13.0068 26.3789 13.5926 26.3789 14.421V25.5335C26.3789 25.5335 26.3789 26.3154 25.8261 26.8682C25.8261 26.8682 25.2732 27.421 24.4914 27.421H5.37891C5.37891 27.421 4.55048 27.421 3.96469 26.8352C3.96469 26.8352 3.37891 26.2494 3.37891 25.421V11.421C3.37891 11.421 3.37891 10.5926 3.96469 10.0068C3.96469 10.0068 4.55048 9.42102 5.37891 9.42102H11.0414C11.0414 9.42102 11.7072 9.42375 12.2381 9.81856L15.7155 12.4203C15.7155 12.4203 15.7164 12.421 15.7205 12.421L24.3789 12.421C24.3789 12.421 25.2073 12.421 25.7931 13.0068ZM24.3789 14.421L15.7123 14.421C15.7123 14.421 15.0506 14.4183 14.5173 14.0217L11.0414 11.421H5.37891V25.421H24.3789V14.421Z" fill="#5A6E87"/>
<path fill-rule="evenodd" clip-rule="evenodd" d="M25.7931 13.0068C25.7931 13.0068 26.3789 13.5926 26.3789 14.421V25.5335C26.3789 25.5335 26.3789 26.3154 25.8261 26.8682C25.8261 26.8682 25.2732 27.421 24.4914 27.421H5.37891C5.37891 27.421 4.55048 27.421 3.96469 26.8352C3.96469 26.8352 3.37891 26.2494 3.37891 25.421V11.421C3.37891 11.421 3.37891 10.5926 3.96469 10.0068C3.96469 10.0068 4.55048 9.42102 5.37891 9.42102H11.0414C11.0414 9.42102 11.7072 9.42375 12.2381 9.81856L15.7155 12.4203C15.7155 12.4203 15.7164 12.421 15.7205 12.421L24.3789 12.421C24.3789 12.421 25.2073 12.421 25.7931 13.0068ZM24.3789 14.421L15.7123 14.421C15.7123 14.421 15.0506 14.4183 14.5173 14.0217L11.0414 11.421H5.37891V25.421H24.3789V14.421Z" fill="#5A6E87"/>
<path d="M28.3789 21.421H25.3789C24.8266 21.421 24.3789 21.8687 24.3789 22.421C24.3789 22.9733 24.8266 23.421 25.3789 23.421H28.4914C29.2732 23.421 29.8261 22.8682 29.8261 22.8682C30.3789 22.3154 30.3789 21.5335 30.3789 21.5335V10.421C30.3789 9.59259 29.7931 9.00681 29.7931 9.00681C29.2073 8.42102 28.3789 8.42102 28.3789 8.42102H19.7164L16.2405 5.82033C15.7072 5.42375 15.0455 5.42103 15.0455 5.42103L9.37891 5.42102C8.55048 5.42102 7.96469 6.00681 7.96469 6.00681C7.37891 6.59259 7.37891 7.42102 7.37891 7.42102V10.421C7.37891 10.9733 7.82662 11.421 8.37891 11.421C8.93119 11.421 9.37891 10.9733 9.37891 10.421V7.42102L15.0373 7.42101C15.0414 7.42103 15.0423 7.42171 15.0423 7.42171L18.5197 10.0235C19.0506 10.4183 19.7164 10.421 19.7164 10.421H28.3789V21.421Z" fill="#5A6E87"/>
</svg>
