<svg width="33" height="33" viewBox="0 0 33 33" fill="none" xmlns="http://www.w3.org/2000/svg">
<g clip-path="url(#clip0_371_13522)">
<rect x="4.55469" y="20.7168" width="25.4297" height="8" fill="#BFDBFE"/>
<path d="M12.6432 12.7168V4.7168H3.97656V12.7168M12.6432 12.7168H3.97656M12.6432 12.7168V20.7168H3.97656V12.7168M3.98047 20.7168H12.6471V28.7168H3.98047V20.7168ZM12.6445 4.7168H21.3112V12.7168H12.6445V4.7168ZM12.6484 12.7168H21.3151V20.7168H12.6484V12.7168ZM21.3086 4.7168H29.9753V12.7168H21.3086V4.7168ZM21.3125 12.7168H29.9792V20.7168H21.3125V12.7168ZM21.3164 20.7168H29.9831V28.7168H21.3164V20.7168Z" stroke="#5A6E87"/>
</g>
<rect x="3.97656" y="4.7168" width="26" height="24" rx="2" stroke="#5A6E87" stroke-width="2"/>
<g clip-path="url(#clip1_371_13522)">
<rect x="18.9766" y="18.626" width="14" height="14" rx="4" fill="white"/>
<path d="M30.5512 26.9388C30.3651 26.9547 30.2034 27.073 30.1319 27.2456C30.0605 27.4182 30.0911 27.6162 30.2114 27.7591C30.5515 28.1629 30.5512 28.7665 30.189 29.1714C30.0565 29.3196 29.9158 29.4603 29.7677 29.5928C29.3627 29.955 28.7591 29.9553 28.3553 29.6152C28.2124 29.4949 28.0144 29.4642 27.8418 29.5357C27.6693 29.6072 27.5509 29.7689 27.535 29.955C27.49 30.4813 27.0625 30.908 26.5199 30.938C26.4213 30.9435 26.3221 30.9462 26.2224 30.9462C26.1227 30.9462 26.0235 30.9435 25.9249 30.938C25.3822 30.908 24.9548 30.4813 24.9098 29.955C24.8938 29.7689 24.7755 29.6072 24.6029 29.5357C24.4304 29.4642 24.2324 29.4949 24.0895 29.6152C23.6857 29.9553 23.0821 29.955 22.6771 29.5928L22.3438 29.9655L22.6771 29.5928C22.5289 29.4603 22.3882 29.3196 22.2557 29.1714C21.8936 28.7665 21.8932 28.1629 22.2333 27.7591C22.3537 27.6162 22.3843 27.4182 22.3128 27.2456C22.2413 27.0731 22.0796 26.9547 21.8935 26.9388C21.3673 26.8938 20.9406 26.4663 20.9106 25.9237C20.9051 25.8251 20.9023 25.7259 20.9023 25.6262C20.9023 25.5265 20.9051 25.4273 20.9106 25.3287C20.9406 24.786 21.3673 24.3586 21.8935 24.3136C22.0796 24.2976 22.2413 24.1793 22.3128 24.0067C22.3843 23.8342 22.3537 23.6362 22.2333 23.4933C21.8932 23.0895 21.8936 22.4859 22.2557 22.0809C22.3882 21.9327 22.5289 21.792 22.6771 21.6595C23.0821 21.2974 23.6857 21.297 24.0895 21.6371C24.2324 21.7575 24.4304 21.7881 24.6029 21.7166C24.7755 21.6451 24.8938 21.4834 24.9098 21.2973C24.9548 20.7711 25.3822 20.3444 25.9249 20.3144C26.0235 20.3089 26.1227 20.3062 26.2224 20.3062C26.3221 20.3062 26.4213 20.3089 26.5199 20.3144C27.0625 20.3444 27.49 20.7711 27.535 21.2973C27.5509 21.4834 27.6693 21.6451 27.8418 21.7166C28.0144 21.7881 28.2124 21.7575 28.3553 21.6371C28.7591 21.297 29.3627 21.2974 29.7677 21.6595C29.9158 21.792 30.0565 21.9327 30.189 22.0809C30.5512 22.4859 30.5515 23.0895 30.2114 23.4933C30.0911 23.6362 30.0605 23.8342 30.1319 24.0067C30.2034 24.1793 30.3651 24.2976 30.5512 24.3136C31.0775 24.3586 31.5042 24.786 31.5342 25.3287C31.5397 25.4273 31.5424 25.5265 31.5424 25.6262C31.5424 25.7259 31.5397 25.8251 31.5342 25.9237C31.5042 26.4663 31.0775 26.8938 30.5512 26.9388ZM26.2254 27.4716C27.2447 27.4716 28.071 26.6453 28.071 25.626C28.071 24.6067 27.2447 23.7804 26.2254 23.7804C25.2061 23.7804 24.3798 24.6067 24.3798 25.626C24.3798 26.6453 25.2061 27.4716 26.2254 27.4716Z" stroke="#5A6E87" stroke-linecap="round" stroke-linejoin="round"/>
</g>
<defs>
<clipPath id="clip0_371_13522">
<rect x="3.97656" y="4.7168" width="26" height="24" rx="2" fill="white"/>
</clipPath>
<clipPath id="clip1_371_13522">
<rect x="18.9766" y="18.626" width="14" height="14" rx="4" fill="white"/>
</clipPath>
</defs>
</svg>
