<svg width="25" height="25" viewBox="0 0 25 25" fill="none" xmlns="http://www.w3.org/2000/svg">
<g clip-path="url(#clip0_362_22407)">
<path d="M9.07031 3.6936H2.57031V9.6936H9.07031M9.07031 3.6936V9.6936M9.07031 3.6936H15.5713V9.6936H9.07031M2.57324 15.6936H9.07324V21.6936H2.57324V15.6936ZM2.57324 15.6936H9.07715M2.57324 15.6936V9.6936H9.07715V15.6936M9.07715 15.6936H15.5771V21.6936H9.07715V15.6936ZM22.0703 9.6936H15.5664V15.6936H22.0703V9.6936ZM22.0703 9.6936L22.0693 3.6936H15.5693V9.6936H22.0703ZM15.5752 15.6936H22.0752V21.6936H15.5752V15.6936Z" stroke="#5A6E87" stroke-width="0.75"/>
</g>
<rect x="2.57031" y="3.6936" width="19.5" height="18" rx="1.5" stroke="#5A6E87" stroke-width="1.5"/>
<defs>
<clipPath id="clip0_362_22407">
<rect x="2.57031" y="3.6936" width="19.5" height="18" rx="1.5" fill="white"/>
</clipPath>
</defs>
</svg>
