<svg width="32" height="33" viewBox="0 0 32 33" fill="none" xmlns="http://www.w3.org/2000/svg">
<g clip-path="url(#clip0_362_22399)">
<rect x="11.6719" y="12.4097" width="8.66667" height="8" fill="#BFDBFE"/>
<path d="M11.6667 12.4097V4.40967H3V12.4097M11.6667 12.4097H3M11.6667 12.4097V20.4097H3V12.4097M11.9083 20.3377L19.7691 12.4769M16.9629 20.5478L20.5421 16.9685M11.7169 16.0561L15.2962 12.4768M3.00391 20.4097H11.6706V28.4097H3.00391V20.4097ZM11.668 4.40967H20.3346V12.4097H11.668V4.40967ZM11.6758 20.4097H20.3424V28.4097H11.6758V20.4097ZM20.332 4.40967H28.9987V12.4097H20.332V4.40967ZM20.3359 12.4097H29.0026V20.4097H20.3359V12.4097ZM20.3398 20.4097H29.0065V28.4097H20.3398V20.4097Z" stroke="#5A6E87"/>
</g>
<rect x="3" y="4.40967" width="26" height="24" rx="2" stroke="#5A6E87" stroke-width="2"/>
<defs>
<clipPath id="clip0_362_22399">
<rect x="3" y="4.40967" width="26" height="24" rx="2" fill="white"/>
</clipPath>
</defs>
</svg>
