<svg width="33" height="33" viewBox="0 0 33 33" fill="none" xmlns="http://www.w3.org/2000/svg">
<g clip-path="url(#clip0_362_22415)">
<path d="M11.9831 12.8701V4.87012H3.31641V12.8701M11.9831 12.8701H3.31641M11.9831 12.8701V20.8701H3.31641V12.8701M3.32031 20.8701H11.987V28.8701H3.32031V20.8701ZM11.9844 4.87012H20.651V12.8701H11.9844V4.87012ZM11.9922 20.8701H20.6589V28.8701H11.9922V20.8701ZM20.6484 4.87012H29.3151V12.8701H20.6484V4.87012ZM20.6523 12.8701H29.319V20.8701H20.6523V12.8701ZM20.6562 20.8701H29.3229V28.8701H20.6562V20.8701ZM10.2148 11.2371H22.4177V22.5012H10.2148V11.2371Z" stroke="#5A6E87"/>
<path d="M10.2148 11.2383H22.4177V22.5024H10.2148V11.2383Z" fill="#BFDBFE"/>
</g>
<rect x="3.31641" y="4.87012" width="26" height="24" rx="2" stroke="#5A6E87" stroke-width="2"/>
<defs>
<clipPath id="clip0_362_22415">
<rect x="3.31641" y="4.87012" width="26" height="24" rx="2" fill="white"/>
</clipPath>
</defs>
</svg>
