<svg width="18" height="20" viewBox="3 1 18 20" fill="none" xmlns="http://www.w3.org/2000/svg">
<g clip-path="url(#clip0_481_19969)">
<path d="M9.3393 14.6238C9.29342 14.5141 9.31837 14.3876 9.40244 14.3035L12.8294 10.877C12.9136 10.7929 13.0403 10.768 13.1501 10.8141L15.0793 11.6244C15.189 11.6705 15.3158 11.6456 15.3999 11.5615L16.4946 10.4669C16.6436 10.3179 16.5914 10.0651 16.3956 9.98736L5.33969 5.59735C5.231 5.5542 5.10706 5.57979 5.02437 5.66248L4.18741 6.49933C4.10472 6.58201 4.0791 6.70593 4.12223 6.81462L8.51296 17.8794C8.59068 18.0753 8.84351 18.1275 8.99251 17.9785L10.0874 16.8838C10.1715 16.7997 10.1964 16.6732 10.1505 16.5635L9.3393 14.6238ZM8.7033 12.3445C8.55888 12.4889 8.31474 12.4449 8.2297 12.2593L6.39933 8.2625C6.28626 8.0156 6.54082 7.76102 6.78773 7.87407L10.785 9.70421C10.9707 9.78924 11.0146 10.0334 10.8702 10.1778L8.7033 12.3445Z" fill="#5A6E87"/>
<path d="M19.89 13.4626L19.845 11.0559M19.845 11.0559L17.4386 11.1007M19.845 11.0559L10.3398 20.5611" stroke="#5A6E87" stroke-width="1.6" stroke-linecap="round" stroke-linejoin="round"/>
</g>
<defs>
<clipPath id="clip0_481_19969">
<rect width="24" height="23.9969" fill="white" transform="translate(0 0.969727)"/>
</clipPath>
</defs>
</svg>
