<svg width="24" height="25" viewBox="0 0 24 25" fill="none" xmlns="http://www.w3.org/2000/svg">
<g clip-path="url(#clip0_481_19971)">
<path d="M9.98969 9.69671C10.0933 9.65318 10.213 9.67667 10.2925 9.75615L13.528 12.9913C13.6075 13.0708 13.631 13.1905 13.5875 13.2941L12.8223 15.1154C12.7787 15.219 12.8022 15.3387 12.8817 15.4182L13.9153 16.4516C14.056 16.5923 14.2948 16.543 14.3681 16.358L18.5136 5.91132C18.5545 5.80826 18.5299 5.69073 18.4511 5.6127L17.662 4.83115C17.5839 4.7538 17.4675 4.73001 17.3653 4.77054L6.91692 8.9156C6.7316 8.98912 6.68252 9.22859 6.82398 9.36908L7.86535 10.4033C7.94486 10.4823 8.06416 10.5055 8.16747 10.4621L9.98969 9.69671ZM15.9971 6.92069C16.2303 6.81395 16.4706 7.05433 16.3639 7.28745L14.6356 11.0613C14.5553 11.2366 14.3248 11.2781 14.1884 11.1417L12.1424 9.09596C12.006 8.95959 12.0475 8.72903 12.2228 8.64874L15.9971 6.92069Z" fill="#5A6E87"/>
<path d="M12.0999 20.3718L14.4648 20.3276M14.4648 20.3276L14.4208 17.9629M14.4648 20.3276L5.12459 10.9874" stroke="#5A6E87" stroke-width="1.6" stroke-linecap="round" stroke-linejoin="round"/>
</g>
<defs>
<clipPath id="clip0_481_19971">
<rect width="24" height="23.9969" fill="white" transform="translate(0 0.390137)"/>
</clipPath>
</defs>
</svg>
