<svg width="19" height="10" viewBox="0 0 19 10" fill="none" xmlns="http://www.w3.org/2000/svg">
<path d="M1.25 2.11133H17.75C18.1642 2.11133 18.5 1.77554 18.5 1.36133C18.5 0.947115 18.1642 0.611328 17.75 0.611328H1.25C0.835786 0.611328 0.5 0.947115 0.5 1.36133C0.5 1.77554 0.835786 2.11133 1.25 2.11133Z" fill="#5A6E87"/>
<path d="M3.5 5.86133H15.5C15.9142 5.86133 16.25 5.52554 16.25 5.11133C16.25 4.69711 15.9142 4.36133 15.5 4.36133H3.5C3.08579 4.36133 2.75 4.69711 2.75 5.11133C2.75 5.52554 3.08579 5.86133 3.5 5.86133Z" fill="#5A6E87"/>
<path d="M1.25 9.61133H17.75C18.1642 9.61133 18.5 9.27554 18.5 8.86133C18.5 8.44711 18.1642 8.11133 17.75 8.11133H1.25C0.835786 8.11133 0.5 8.44711 0.5 8.86133C0.5 9.27554 0.835786 9.61133 1.25 9.61133Z" fill="#5A6E87"/>
</svg>
