<svg width="19" height="14" viewBox="0 0 19 14" fill="none" xmlns="http://www.w3.org/2000/svg">
<path d="M1.25 2.125H17.75C18.1642 2.125 18.5 1.78921 18.5 1.375C18.5 0.960786 18.1642 0.625 17.75 0.625H1.25C0.835786 0.625 0.5 0.960786 0.5 1.375C0.5 1.78921 0.835786 2.125 1.25 2.125Z" fill="#5A6E87"/>
<path d="M3.5 5.875H15.5C15.9142 5.875 16.25 5.53921 16.25 5.125C16.25 4.71079 15.9142 4.375 15.5 4.375H3.5C3.08579 4.375 2.75 4.71079 2.75 5.125C2.75 5.53921 3.08579 5.875 3.5 5.875Z" fill="#5A6E87"/>
<path d="M1.25 9.625H17.75C18.1642 9.625 18.5 9.28921 18.5 8.875C18.5 8.46079 18.1642 8.125 17.75 8.125H1.25C0.835786 8.125 0.5 8.46079 0.5 8.875C0.5 9.28921 0.835786 9.625 1.25 9.625Z" fill="#5A6E87"/>
<path d="M3.5 13.375H15.5C15.9142 13.375 16.25 13.0392 16.25 12.625C16.25 12.2108 15.9142 11.875 15.5 11.875H3.5C3.08579 11.875 2.75 12.2108 2.75 12.625C2.75 13.0392 3.08579 13.375 3.5 13.375Z" fill="#5A6E87"/>
</svg>
