<svg width="18" height="20" viewBox="3 1 18 20" fill="none" xmlns="http://www.w3.org/2000/svg">
<path d="M3.75 8.21375H20.25C20.6642 8.21375 21 7.87796 21 7.46375C21 7.04953 20.6642 6.71375 20.25 6.71375H3.75C3.33579 6.71375 3 7.04953 3 7.46375C3 7.87796 3.33579 8.21375 3.75 8.21375Z" fill="#5A6E87"/>
<path d="M12.75 11.6715H20.25C20.6642 11.6715 21 11.3357 21 10.9215C21 10.5073 20.6642 10.1715 20.25 10.1715H12.75C12.3358 10.1715 12 10.5073 12 10.9215C12 11.3357 12.3358 11.6715 12.75 11.6715Z" fill="#5A6E87"/>
<path d="M3.75 18.7137H20.25C20.6642 18.7137 21 18.378 21 17.9637C21 17.5495 20.6642 17.2137 20.25 17.2137H3.75C3.33579 17.2137 3 17.5495 3 17.9637C3 18.378 3.33579 18.7137 3.75 18.7137Z" fill="#5A6E87"/>
<path d="M12.75 15.2484H20.25C20.6642 15.2484 21 14.9126 21 14.4984C21 14.0842 20.6642 13.7484 20.25 13.7484H12.75C12.3358 13.7484 12 14.0842 12 14.4984C12 14.9126 12.3358 15.2484 12.75 15.2484Z" fill="#5A6E87"/>
<path d="M5.25735 14.1781L3.85938 12.7268M3.85938 12.7268L5.31039 11.3289M3.85938 12.7268L9.69003 12.7137" stroke="#5A6E87" stroke-width="1.05" stroke-linecap="round" stroke-linejoin="round"/>
</svg>
