<svg width="24" height="25" viewBox="0 0 24 25" fill="none" xmlns="http://www.w3.org/2000/svg">
<path d="M9.41224 12.8176C9.36973 12.716 9.39284 12.5987 9.47075 12.5208L12.6464 9.34559C12.7244 9.26759 12.8419 9.24454 12.9436 9.28726L14.7313 10.0382C14.833 10.0809 14.9504 10.0578 15.0284 9.97984L16.0429 8.96553C16.1809 8.82749 16.1325 8.5932 15.9511 8.52115L5.70593 4.45307C5.60521 4.41308 5.49036 4.4368 5.41373 4.51343L4.63814 5.28891C4.56152 5.36552 4.53778 5.48036 4.57775 5.58107L8.64649 15.8345C8.71851 16.0159 8.95281 16.0644 9.09088 15.9263L10.1055 14.9118C10.1834 14.834 10.2065 14.7167 10.164 14.6151L9.41224 12.8176ZM8.82288 10.7054C8.68905 10.8392 8.46281 10.7985 8.38401 10.6264L6.68786 6.92278C6.58308 6.69399 6.81897 6.45808 7.04778 6.56283L10.7519 8.25876C10.924 8.33756 10.9647 8.56383 10.8309 8.69767L8.82288 10.7054Z" fill="#5A6E87"/>
<path d="M19.6081 12.2346L19.5704 10.2199M19.5704 10.2199L17.5559 10.2574M19.5704 10.2199L11.6133 18.1771M18.1835 19.6283L19.5815 18.177M19.5815 18.177L18.1304 16.7791M19.5815 18.177L11.6688 18.177" stroke="#5A6E87" stroke-width="1.6" stroke-linecap="round" stroke-linejoin="round"/>
</svg>
