<svg width="18" height="20" viewBox="3 1 18 20" fill="none" xmlns="http://www.w3.org/2000/svg">
<path d="M3.75 8.09973H20.25C20.6642 8.09973 21 7.76394 21 7.34973C21 6.93552 20.6642 6.59973 20.25 6.59973H3.75C3.33579 6.59973 3 6.93552 3 7.34973C3 7.76394 3.33579 8.09973 3.75 8.09973Z" fill="#5A6E87"/>
<path d="M12.75 11.5575H20.25C20.6642 11.5575 21 11.2217 21 10.8075C21 10.3932 20.6642 10.0575 20.25 10.0575H12.75C12.3358 10.0575 12 10.3932 12 10.8075C12 11.2217 12.3358 11.5575 12.75 11.5575Z" fill="#5A6E87"/>
<path d="M3.75 18.5997H20.25C20.6642 18.5997 21 18.2639 21 17.8497C21 17.4355 20.6642 17.0997 20.25 17.0997H3.75C3.33579 17.0997 3 17.4355 3 17.8497C3 18.2639 3.33579 18.5997 3.75 18.5997Z" fill="#5A6E87"/>
<path d="M12.75 15.1344H20.25C20.6642 15.1344 21 14.7986 21 14.3844C21 13.9701 20.6642 13.6344 20.25 13.6344H12.75C12.3358 13.6344 12 13.9701 12 14.3844C12 14.7986 12.3358 15.1344 12.75 15.1344Z" fill="#5A6E87"/>
<path d="M8.26471 14.0641L9.66268 12.6128M9.66268 12.6128L8.21167 11.2148M9.66268 12.6128L3.83203 12.5997" stroke="#5A6E87" stroke-width="1.05" stroke-linecap="round" stroke-linejoin="round"/>
</svg>
