<svg width="17" height="14" viewBox="0 0 17 14" fill="none" xmlns="http://www.w3.org/2000/svg">
<path d="M1.44507 2.125H15.5549C15.9091 2.125 16.1963 1.78921 16.1963 1.375C16.1963 0.960786 15.9091 0.625 15.5549 0.625H1.44507C1.09086 0.625 0.803711 0.960786 0.803711 1.375C0.803711 1.78921 1.09086 2.125 1.44507 2.125Z" fill="#5A6E87"/>
<path d="M1.44507 5.875H11.7068C12.061 5.875 12.3481 5.53921 12.3481 5.125C12.3481 4.71079 12.061 4.375 11.7068 4.375H1.44507C1.09086 4.375 0.803711 4.71079 0.803711 5.125C0.803711 5.53921 1.09086 5.875 1.44507 5.875Z" fill="#5A6E87"/>
<path d="M1.44507 9.625H15.5549C15.9091 9.625 16.1963 9.28921 16.1963 8.875C16.1963 8.46079 15.9091 8.125 15.5549 8.125H1.44507C1.09086 8.125 0.803711 8.46079 0.803711 8.875C0.803711 9.28921 1.09086 9.625 1.44507 9.625Z" fill="#5A6E87"/>
<path d="M1.44507 13.375H11.7068C12.061 13.375 12.3481 13.0392 12.3481 12.625C12.3481 12.2108 12.061 11.875 11.7068 11.875H1.44507C1.09086 11.875 0.803711 12.2108 0.803711 12.625C0.803711 13.0392 1.09086 13.375 1.44507 13.375Z" fill="#5A6E87"/>
</svg>
