<svg width="25" height="25" viewBox="0 0 25 25" fill="none" xmlns="http://www.w3.org/2000/svg">
<path d="M12.9858 2.4035V6.10927M12.9623 18.9036V22.4034M2.73828 4.15351L2.73828 20.6534C2.73828 21.758 3.63371 22.6534 4.73828 22.6534H21.2382C22.3428 22.6534 23.2382 21.758 23.2382 20.6534V4.1535C23.2382 3.04893 22.3427 2.1535 21.2382 2.1535L4.73828 2.1535C3.63371 2.1535 2.73828 3.04894 2.73828 4.15351Z" stroke="#5A6E87" stroke-width="0.5" stroke-linecap="round"/>
<path d="M3.73828 6.94196L22.2397 6.94196M3.73828 17.912L22.2397 17.912M18.0749 10.6282L19.8008 12.4199M19.8008 12.4199L18.0094 14.1459M19.8008 12.4199H14.3472M7.96653 14.2117L6.24058 12.42M6.24058 12.42L8.032 10.694M6.24058 12.42L11.6942 12.42" stroke="#5A6E87" stroke-width="1.4" stroke-linecap="round" stroke-linejoin="round"/>
</svg>
