<svg width="19" height="10" viewBox="0 0 19 10" fill="none" xmlns="http://www.w3.org/2000/svg">
<path d="M1.25 2H17.75C18.1642 2 18.5 1.66421 18.5 1.25C18.5 0.835786 18.1642 0.5 17.75 0.5H1.25C0.835786 0.5 0.5 0.835786 0.5 1.25C0.5 1.66421 0.835786 2 1.25 2Z" fill="#5A6E87"/>
<path d="M3.5 5.75H15.5C15.9142 5.75 16.25 5.41421 16.25 5C16.25 4.58579 15.9142 4.25 15.5 4.25H3.5C3.08579 4.25 2.75 4.58579 2.75 5C2.75 5.41421 3.08579 5.75 3.5 5.75Z" fill="#5A6E87"/>
<path d="M1.25 9.5H17.75C18.1642 9.5 18.5 9.16421 18.5 8.75C18.5 8.33579 18.1642 8 17.75 8H1.25C0.835786 8 0.5 8.33579 0.5 8.75C0.5 9.16421 0.835786 9.5 1.25 9.5Z" fill="#5A6E87"/>
</svg>
