<svg width="17" height="14" viewBox="0 0 17 14" fill="none" xmlns="http://www.w3.org/2000/svg">
<path d="M1.44234 2.125H15.5567C15.911 2.125 16.1983 1.78921 16.1983 1.375C16.1983 0.960786 15.911 0.625 15.5567 0.625H1.44234C1.08802 0.625 0.800781 0.960786 0.800781 1.375C0.800781 1.78921 1.08802 2.125 1.44234 2.125Z" fill="#5A6E87"/>
<path d="M5.29172 5.875H15.5567C15.911 5.875 16.1983 5.53921 16.1983 5.125C16.1983 4.71079 15.911 4.375 15.5567 4.375H5.29172C4.93739 4.375 4.65016 4.71079 4.65016 5.125C4.65016 5.53921 4.93739 5.875 5.29172 5.875Z" fill="#5A6E87"/>
<path d="M1.44234 9.625H15.5567C15.911 9.625 16.1983 9.28921 16.1983 8.875C16.1983 8.46079 15.911 8.125 15.5567 8.125H1.44234C1.08802 8.125 0.800781 8.46079 0.800781 8.875C0.800781 9.28921 1.08802 9.625 1.44234 9.625Z" fill="#5A6E87"/>
<path d="M5.29172 13.375H15.5567C15.911 13.375 16.1983 13.0392 16.1983 12.625C16.1983 12.2108 15.911 11.875 15.5567 11.875H5.29172C4.93739 11.875 4.65016 12.2108 4.65016 12.625C4.65016 13.0392 4.93739 13.375 5.29172 13.375Z" fill="#5A6E87"/>
</svg>
