<svg width="24" height="24" viewBox="0 0 24 24" fill="none" xmlns="http://www.w3.org/2000/svg">
<g clip-path="url(#clip0_481_19979)">
<path d="M12.2389 13.8738C12.3427 13.8313 12.4105 13.7303 12.4105 13.6182V9.05817C12.4105 8.94605 12.3427 8.84505 12.2389 8.8026L10.4123 8.05543C10.3085 8.01298 10.2407 7.91199 10.2407 7.79986V6.3343C10.2407 6.13575 10.444 6.00209 10.6263 6.0808L20.9232 10.5266C21.0243 10.5703 21.0898 10.6699 21.0898 10.7801V11.8963C21.0898 12.0064 21.0243 12.1061 20.9232 12.1498L10.6263 16.5956C10.444 16.6743 10.2407 16.5406 10.2407 16.3421V14.8765C10.2407 14.7644 10.3085 14.6634 10.4123 14.6209L12.2389 13.8738ZM18.4423 11.5969C18.6819 11.5077 18.6819 11.1687 18.4423 11.0794L14.5584 9.63281C14.3779 9.56561 14.1858 9.69904 14.1858 9.89157V12.7848C14.1858 12.9773 14.3779 13.1107 14.5584 13.0435L18.4423 11.5969Z" fill="#5A6E87"/>
<path d="M5.61328 16.8967L7.29891 18.5205M7.29891 18.5205L8.92268 16.8351M7.29891 18.5205L7.29891 5.44987" stroke="#5A6E87" stroke-width="1.6" stroke-linecap="round" stroke-linejoin="round"/>
</g>
<defs>
<clipPath id="clip0_481_19979">
<rect width="24" height="23.9969" fill="white" transform="translate(0 0.00219727)"/>
</clipPath>
</defs>
</svg>
