<svg width="24" height="24" viewBox="0 0 24 24" fill="none" xmlns="http://www.w3.org/2000/svg">
<g clip-path="url(#clip0_481_19973)">
<path d="M12.1251 15.3409C12.0143 15.2956 11.9419 15.1877 11.9419 15.068V10.1976C11.9419 10.0778 12.0143 9.96998 12.1251 9.92464L14.0761 9.12662C14.187 9.08128 14.2594 8.97342 14.2594 8.85366V7.28835C14.2594 7.07629 14.0422 6.93354 13.8475 7.0176L2.84989 11.766C2.74184 11.8126 2.67188 11.919 2.67188 12.0367V13.2288C2.67188 13.3465 2.74184 13.4529 2.84989 13.4996L13.8475 18.248C14.0422 18.332 14.2594 18.1893 14.2594 17.9772V16.4119C14.2594 16.2922 14.187 16.1843 14.0761 16.1389L12.1251 15.3409ZM5.49963 12.9092C5.24366 12.8138 5.24366 12.4518 5.49963 12.3564L9.64788 10.8114C9.84058 10.7396 10.0457 10.8821 10.0457 11.0877V14.1778C10.0457 14.3835 9.84058 14.526 9.64788 14.4542L5.49963 12.9092Z" fill="#5A6E87"/>
<path d="M19.2026 6.0466L17.4023 4.31232M17.4023 4.31232L15.668 6.11239M17.4023 4.31232L17.4023 18.2725" stroke="#5A6E87" stroke-width="1.6" stroke-linecap="round" stroke-linejoin="round"/>
</g>
<defs>
<clipPath id="clip0_481_19973">
<rect width="24" height="23.9969" fill="white" transform="translate(0 0.00219727)"/>
</clipPath>
</defs>
</svg>
