<svg width="19" height="10" viewBox="0 0 19 10" fill="none" xmlns="http://www.w3.org/2000/svg">
<path d="M1.25 1.85449H17.75C18.1642 1.85449 18.5 1.51871 18.5 1.10449C18.5 0.690279 18.1642 0.354492 17.75 0.354492H1.25C0.835786 0.354492 0.5 0.690279 0.5 1.10449C0.5 1.51871 0.835786 1.85449 1.25 1.85449Z" fill="#5A6E87"/>
<path d="M3.5 5.60449H15.5C15.9142 5.60449 16.25 5.26871 16.25 4.85449C16.25 4.44028 15.9142 4.10449 15.5 4.10449H3.5C3.08579 4.10449 2.75 4.44028 2.75 4.85449C2.75 5.26871 3.08579 5.60449 3.5 5.60449Z" fill="#5A6E87"/>
<path d="M1.25 9.35449H17.75C18.1642 9.35449 18.5 9.01871 18.5 8.60449C18.5 8.19028 18.1642 7.85449 17.75 7.85449H1.25C0.835786 7.85449 0.5 8.19028 0.5 8.60449C0.5 9.01871 0.835786 9.35449 1.25 9.35449Z" fill="#5A6E87"/>
</svg>
