<svg width="25" height="25" viewBox="0 0 25 25" fill="none" xmlns="http://www.w3.org/2000/svg">
<path d="M12.7805 2.88376V6.85016M12.7844 19.8123V23.0654M2.44141 4.63373L2.44141 21.3154C2.44141 22.42 3.33684 23.3154 4.44141 23.3154H21.1231C22.2277 23.3154 23.1231 22.42 23.1231 21.3154V4.63373C23.1231 3.52916 22.2277 2.63373 21.1231 2.63373L4.44141 2.63373C3.33684 2.63373 2.44141 3.52916 2.44141 4.63373Z" stroke="#5A6E87" stroke-width="0.5" stroke-linecap="round"/>
<path d="M7.99543 18.5624L7.99543 7.77644M17.815 18.3677L17.815 7.58171M12.8929 18.0916L12.8929 7.58173M3.99128 19.2258H21.5947C22.1486 19.2258 22.5977 18.7781 22.5977 18.2258V7.72339C22.5977 7.1711 22.1486 6.72339 21.5947 6.72339H3.99128C3.43734 6.72339 2.98828 7.1711 2.98828 7.72339V18.2258C2.98828 18.7781 3.43734 19.2258 3.99128 19.2258Z" stroke="#5A6E87" stroke-width="1.6" stroke-linecap="round"/>
</svg>
