<svg width="24" height="25" viewBox="0 0 24 25" fill="none" xmlns="http://www.w3.org/2000/svg">
<g clip-path="url(#clip0_481_19975)">
<path d="M16.8963 5.7476C16.8496 5.6394 16.743 5.56934 16.6251 5.56934H15.4309C15.3131 5.56934 15.2065 5.6394 15.1598 5.7476L10.4034 16.7608C10.3192 16.9558 10.4622 17.1733 10.6746 17.1733H12.2426C12.3625 17.1733 12.4706 17.1008 12.516 16.9898L13.3153 15.0361C13.3608 14.9251 13.4688 14.8525 13.5887 14.8525H18.4674C18.5873 14.8525 18.6953 14.9251 18.7407 15.0361L19.5401 16.9898C19.5855 17.1008 19.6936 17.1733 19.8135 17.1733H21.3815C21.5939 17.1733 21.7369 16.9558 21.6527 16.7608L16.8963 5.7476ZM14.4804 12.9537C14.2744 12.9537 14.1317 12.7482 14.2036 12.5552L15.7513 8.401C15.8468 8.14466 16.2093 8.14466 16.3048 8.401L17.8525 12.5552C17.9244 12.7482 17.7817 12.9537 17.5757 12.9537H14.4804Z" fill="#5A6E87"/>
<path d="M5.57422 17.4757L7.32747 19.1646M7.32747 19.1646L9.01638 17.4116M7.32747 19.1646L7.32747 5.56964" stroke="#5A6E87" stroke-width="1.6" stroke-linecap="round" stroke-linejoin="round"/>
</g>
<defs>
<clipPath id="clip0_481_19975">
<rect width="24" height="23.9969" fill="white" transform="translate(0 0.384521)"/>
</clipPath>
</defs>
</svg>
