<svg width="22" height="22" viewBox="0 0 22 22" fill="none" xmlns="http://www.w3.org/2000/svg">
<path fill-rule="evenodd" clip-rule="evenodd" d="M13.7822 12.7786H13.0798L12.8309 12.5386C13.8978 11.2938 14.449 9.59568 14.1467 7.79082C13.7288 5.31914 11.6662 3.34535 9.17669 3.04306C5.41582 2.58073 2.25065 5.7459 2.71298 9.50677C3.01527 11.9962 4.98906 14.0589 7.46074 14.4768C9.2656 14.7791 10.9638 14.2279 12.2085 13.1609L12.4486 13.4099V14.1123L16.2272 17.8909C16.5917 18.2554 17.1874 18.2554 17.552 17.8909C17.9165 17.5264 17.9165 16.9307 17.552 16.5662L13.7822 12.7786ZM8.45014 12.7786C6.2363 12.7786 4.44922 10.9915 4.44922 8.77765C4.44922 6.56381 6.2363 4.77673 8.45014 4.77673C10.664 4.77673 12.4511 6.56381 12.4511 8.77765C12.4511 10.9915 10.664 12.7786 8.45014 12.7786Z" fill="#A0AEC0"/>
</svg>
