<svg width="24" height="25" viewBox="0 0 24 25" fill="none" xmlns="http://www.w3.org/2000/svg">
<path d="M12.9361 12.2032L12.3579 11.7256L12.1861 11.9335V12.2032H12.9361ZM18.2366 5.78667L17.6584 5.30901L17.6584 5.30901L18.2366 5.78667ZM3.07243 5.79451L2.50403 6.28381L2.50403 6.28381L3.07243 5.79451ZM8.58936 12.2032H9.33936V11.9249L9.15776 11.7139L8.58936 12.2032ZM8.58936 20.2649H7.83936C7.83936 20.5387 7.98862 20.7908 8.22873 20.9225C8.46884 21.0542 8.76163 21.0445 8.99254 20.8973L8.58936 20.2649ZM12.9361 17.4937L13.3393 18.1261C13.5553 17.9884 13.6861 17.7499 13.6861 17.4937H12.9361ZM22.0249 15.9905C22.3158 15.6957 22.3127 15.2208 22.0178 14.9299C21.723 14.639 21.2481 14.6421 20.9572 14.937L22.0249 15.9905ZM18.9255 18.0637L18.3916 17.5369L17.8424 18.0934L18.4213 18.619L18.9255 18.0637ZM20.9869 20.948C21.2936 21.2264 21.7679 21.2035 22.0464 20.8968C22.3248 20.5901 22.3018 20.1158 21.9952 19.8374L20.9869 20.948ZM16.8882 14.937C16.5972 14.6422 16.1224 14.639 15.8275 14.9299C15.5327 15.2209 15.5295 15.6958 15.8205 15.9906L16.8882 14.937ZM18.9199 18.0637L19.424 18.619L20.003 18.0935L19.4538 17.5369L18.9199 18.0637ZM15.8502 19.8374C15.5435 20.1158 15.5206 20.5902 15.799 20.8969C16.0774 21.2035 16.5517 21.2265 16.8584 20.9481L15.8502 19.8374ZM13.5143 12.6809L18.8149 6.26432L17.6584 5.30901L12.3579 11.7256L13.5143 12.6809ZM17.8474 4.21033H3.45502V5.71033H17.8474V4.21033ZM2.50403 6.28381L8.02096 12.6925L9.15776 11.7139L3.64083 5.3052L2.50403 6.28381ZM7.83936 12.2032V20.2649H9.33936V12.2032H7.83936ZM8.99254 20.8973L13.3393 18.1261L12.5329 16.8613L8.18618 19.6325L8.99254 20.8973ZM13.6861 17.4937V12.2032H12.1861V17.4937H13.6861ZM3.45502 4.21033C2.3817 4.21033 1.80378 5.47038 2.50403 6.28381L3.64083 5.3052C3.77765 5.46413 3.66473 5.71033 3.45502 5.71033V4.21033ZM18.8149 6.26432C19.4908 5.44605 18.9088 4.21033 17.8474 4.21033V5.71033C17.6401 5.71033 17.5263 5.46889 17.6584 5.30901L18.8149 6.26432ZM20.9572 14.937L18.3916 17.5369L19.4593 18.5905L22.0249 15.9905L20.9572 14.937ZM18.4213 18.619L20.9869 20.948L21.9952 19.8374L19.4296 17.5083L18.4213 18.619ZM15.8205 15.9906L18.3861 18.5905L19.4538 17.5369L16.8882 14.937L15.8205 15.9906ZM18.4158 17.5084L15.8502 19.8374L16.8584 20.9481L19.424 18.619L18.4158 17.5084Z" fill="#5A6E87"/>
</svg>
