<svg width="32" height="33" viewBox="0 0 32 33" fill="none" xmlns="http://www.w3.org/2000/svg">
<path d="M19.066 16.488L18.2951 15.8511L18.066 16.1284V16.488H19.066ZM13.2704 16.488H14.2704V16.1169L14.0283 15.8356L13.2704 16.488ZM13.2704 27.2369H12.2704C12.2704 27.602 12.4694 27.9381 12.7896 28.1137C13.1097 28.2893 13.5001 28.2764 13.808 28.0801L13.2704 27.2369ZM19.066 23.542L19.6036 24.3852C19.8917 24.2016 20.066 23.8836 20.066 23.542H19.066ZM26.1334 7.9326L25.3625 7.29572L26.1334 7.9326ZM19.837 17.1249L26.9044 8.56947L25.3625 7.29572L18.2951 15.8511L19.837 17.1249ZM25.6145 5.83081H6.42462V7.83081H25.6145V5.83081ZM5.15663 8.59546L12.5125 17.1404L14.0283 15.8356L6.67237 7.29064L5.15663 8.59546ZM12.2704 16.488V27.2369H14.2704V16.488H12.2704ZM13.808 28.0801L19.6036 24.3852L18.5285 22.6988L12.7328 26.3937L13.808 28.0801ZM20.066 23.542V16.488H18.066V23.542H20.066ZM6.42462 5.83081C4.99353 5.83081 4.22297 7.51088 5.15663 8.59546L6.67237 7.29064C6.85479 7.50255 6.70424 7.83081 6.42462 7.83081V5.83081ZM26.9044 8.56947C27.8057 7.47843 27.0297 5.83081 25.6145 5.83081V7.83081C25.338 7.83081 25.1864 7.50889 25.3625 7.29572L26.9044 8.56947Z" fill="#5A6E87"/>
</svg>
