<svg width="24" height="25" viewBox="0 0 24 25" fill="none" xmlns="http://www.w3.org/2000/svg">
<path d="M12.772 12.7904L12.3094 12.4083L12.172 12.5746V12.7904H12.772ZM18.0726 6.37383L17.61 5.9917L17.61 5.9917L18.0726 6.37383ZM2.90837 6.38167L2.45365 6.77311L2.45365 6.77311L2.90837 6.38167ZM8.4253 12.7904H9.0253V12.5677L8.88002 12.3989L8.4253 12.7904ZM8.4253 20.8521H7.8253C7.8253 21.0711 7.9447 21.2728 8.13679 21.3781C8.32888 21.4835 8.56311 21.4758 8.74784 21.358L8.4253 20.8521ZM12.772 18.0809L13.0946 18.5868C13.2674 18.4766 13.372 18.2858 13.372 18.0809H12.772ZM16.2222 19.53L16.8222 19.53V19.53H16.2222ZM16.0145 15.8983C15.9115 15.5833 15.5727 15.4114 15.2577 15.5144C14.9428 15.6174 14.7709 15.9562 14.8739 16.2712L16.0145 15.8983ZM15.9515 17.6364L15.3812 17.8229L15.5616 18.3747L16.1191 18.2125L15.9515 17.6364ZM17.5901 17.7845C17.9083 17.6919 18.0912 17.3589 17.9986 17.0407C17.906 16.7226 17.573 16.5397 17.2549 16.6323L17.5901 17.7845ZM20.5692 21.35C20.6722 21.665 21.011 21.8368 21.3259 21.7339C21.6409 21.6309 21.8128 21.2921 21.7098 20.9771L20.5692 21.35ZM20.6322 19.6119L21.2025 19.4254L21.022 18.8735L20.4645 19.0358L20.6322 19.6119ZM18.9935 19.4638C18.6753 19.5564 18.4925 19.8894 18.585 20.2075C18.6776 20.5257 19.0106 20.7086 19.3288 20.616L18.9935 19.4638ZM13.2346 13.1725L18.5352 6.75595L17.61 5.9917L12.3094 12.4083L13.2346 13.1725ZM17.6834 4.94749H3.29096V6.14749H17.6834V4.94749ZM2.45365 6.77311L7.97058 13.1818L8.88002 12.3989L3.36309 5.99022L2.45365 6.77311ZM7.8253 12.7904V20.8521H9.0253V12.7904H7.8253ZM8.74784 21.358L13.0946 18.5868L12.4495 17.5749L8.10275 20.3461L8.74784 21.358ZM13.372 18.0809V12.7904H12.172V18.0809H13.372ZM3.29096 4.94749C2.34594 4.94749 1.83711 6.05691 2.45365 6.77311L3.36309 5.99022C3.37168 6.00021 3.38164 6.01931 3.38442 6.04274C3.38686 6.06336 3.38299 6.07996 3.37747 6.09199C3.37195 6.10402 3.3619 6.11778 3.34468 6.12939C3.32511 6.14257 3.30413 6.14749 3.29096 6.14749V4.94749ZM18.5352 6.75595C19.1303 6.03549 18.6179 4.94749 17.6834 4.94749V6.14749C17.6701 6.14749 17.6494 6.14263 17.6301 6.12978C17.6131 6.11843 17.6029 6.10488 17.5973 6.09287C17.5916 6.08086 17.5876 6.06442 17.5897 6.04404C17.5921 6.02097 17.6015 6.00193 17.61 5.9917L18.5352 6.75595ZM18.179 16.2396H18.4232V15.0396H18.179V16.2396ZM19.9021 17.7184V18.5043H21.1021V17.7184H19.9021ZM16.9447 17.4726C16.9454 16.7914 17.4978 16.2396 18.179 16.2396V15.0396C16.8355 15.0396 15.7461 16.1279 15.7447 17.4713L16.9447 17.4726ZM18.4232 16.2396C19.24 16.2396 19.9021 16.9016 19.9021 17.7184H21.1021C21.1021 16.2389 19.9027 15.0396 18.4232 15.0396V16.2396ZM18.5453 21.0088H18.301V22.2088H18.5453V21.0088ZM16.8222 19.53V18.7441H15.6222V19.53H16.8222ZM19.7796 19.7758C19.7789 20.457 19.2265 21.0088 18.5453 21.0088V22.2088C19.8887 22.2088 20.9782 21.1205 20.9796 19.7771L19.7796 19.7758ZM18.301 21.0088C17.4843 21.0088 16.8222 20.3467 16.8222 19.53L15.6222 19.53C15.6222 21.0095 16.8216 22.2088 18.301 22.2088V21.0088ZM14.8739 16.2712L15.3812 17.8229L16.5218 17.45L16.0145 15.8983L14.8739 16.2712ZM16.1191 18.2125L17.5901 17.7845L17.2549 16.6323L15.7838 17.0603L16.1191 18.2125ZM21.7098 20.9771L21.2025 19.4254L20.0619 19.7983L20.5692 21.35L21.7098 20.9771ZM20.4645 19.0358L18.9935 19.4638L19.3288 20.616L20.7998 20.188L20.4645 19.0358Z" fill="#5A6E87"/>
</svg>
