<svg width="32" height="33" viewBox="0 0 32 33" fill="none" xmlns="http://www.w3.org/2000/svg">
<path d="M15.5922 18.47L14.7365 17.9525L14.5922 18.1911V18.47H15.5922ZM22.8336 6.49629L21.9779 5.97879L21.9779 5.97879L22.8336 6.49629ZM2.03924 6.51433L2.87813 5.97002L2.03924 6.51433ZM9.79659 18.47H10.7966V18.174L10.6355 17.9257L9.79659 18.47ZM9.79659 29.2189H8.79659C8.79659 29.584 8.9956 29.9201 9.31575 30.0957C9.6359 30.2712 10.0263 30.2584 10.3342 30.0621L9.79659 29.2189ZM15.5922 25.5239L16.1298 26.3672C16.4178 26.1835 16.5922 25.8655 16.5922 25.5239H15.5922ZM21.955 15.1773C21.6993 15.6668 21.8888 16.2709 22.3784 16.5266C22.8679 16.7824 23.472 16.5928 23.7277 16.1033L21.955 15.1773ZM26.4024 8.823L27.2887 8.36C27.1163 8.02993 26.7748 7.823 26.4024 7.823C26.03 7.823 25.6884 8.02993 25.516 8.36L26.4024 8.823ZM29.0771 16.1033C29.3328 16.5928 29.9369 16.7824 30.4264 16.5266C30.9159 16.2709 31.1055 15.6668 30.8498 15.1773L29.0771 16.1033ZM24.383 12.0174C23.8307 12.0174 23.383 12.4651 23.383 13.0174C23.383 13.5697 23.8307 14.0174 24.383 14.0174V12.0174ZM28.55 14.0174C29.1023 14.0174 29.55 13.5697 29.55 13.0174C29.55 12.4651 29.1023 12.0174 28.55 12.0174V14.0174ZM23.0865 17.0785C22.5342 17.0785 22.0865 17.5263 22.0865 18.0785C22.0865 18.6308 22.5342 19.0785 23.0865 19.0785L23.0865 17.0785ZM29.8492 18.0785L30.5745 18.767C30.8497 18.4771 30.9258 18.0511 30.768 17.6838C30.6102 17.3166 30.2489 17.0785 29.8492 17.0785L29.8492 18.0785ZM23.0865 25.2032L22.3612 24.5147C22.086 24.8046 22.0099 25.2306 22.1677 25.5978C22.3255 25.9651 22.6868 26.2032 23.0865 26.2032V25.2032ZM29.8492 26.2032C30.4015 26.2032 30.8492 25.7554 30.8492 25.2032C30.8492 24.6509 30.4015 24.2032 29.8492 24.2032V26.2032ZM16.4479 18.9875L23.6893 7.01378L21.9779 5.97879L14.7365 17.9525L16.4479 18.9875ZM22.2577 4.47485H2.6039V6.47485H22.2577V4.47485ZM1.20036 7.05864L8.95771 19.0143L10.6355 17.9257L2.87813 5.97002L1.20036 7.05864ZM8.79659 18.47V29.2189H10.7966V18.47H8.79659ZM10.3342 30.0621L16.1298 26.3672L15.0546 24.6807L9.25901 28.3756L10.3342 30.0621ZM16.5922 25.5239V18.47H14.5922V25.5239H16.5922ZM2.6039 4.47485C1.27701 4.47485 0.478121 5.94553 1.20036 7.05864L2.87813 5.97002C3.01924 6.18751 2.86315 6.47485 2.6039 6.47485V4.47485ZM23.6893 7.01379C24.3637 5.89873 23.5608 4.47485 22.2577 4.47485V6.47485C22.003 6.47485 21.8462 6.19665 21.9779 5.97879L23.6893 7.01379ZM23.7277 16.1033L27.2887 9.28599L25.516 8.36L21.955 15.1773L23.7277 16.1033ZM25.516 9.28599L29.0771 16.1033L30.8498 15.1773L27.2887 8.36L25.516 9.28599ZM24.383 14.0174H28.55V12.0174H24.383V14.0174ZM23.0865 19.0785L29.8492 19.0785L29.8492 17.0785L23.0865 17.0785L23.0865 19.0785ZM29.1239 17.3901L22.3612 24.5147L23.8118 25.8916L30.5745 18.767L29.1239 17.3901ZM23.0865 26.2032H29.8492V24.2032H23.0865V26.2032Z" fill="#5A6E87"/>
</svg>
