<svg width="33" height="33" viewBox="0 0 33 33" fill="none" xmlns="http://www.w3.org/2000/svg">
<path d="M12.2201 7.47819H9.55339C8.08063 7.47819 6.88672 8.6721 6.88672 10.1449V26.1449C6.88672 27.6176 8.08063 28.8115 9.55339 28.8115H22.8867C24.3595 28.8115 25.5534 27.6176 25.5534 26.1449V10.1449C25.5534 8.6721 24.3595 7.47819 22.8867 7.47819H20.2201M12.2201 7.47819C12.2201 8.95095 13.414 10.1449 14.8867 10.1449H17.5534C19.0261 10.1449 20.2201 8.95095 20.2201 7.47819M12.2201 7.47819C12.2201 6.00543 13.414 4.81152 14.8867 4.81152H17.5534C19.0261 4.81152 20.2201 6.00543 20.2201 7.47819" stroke="#5A6E87" stroke-width="2"/>
<path d="M15.1203 16.1117L14.3216 19.3954C13.9485 20.9449 13.5844 22.0679 13.2295 22.7645C12.8745 23.4611 12.4582 23.9752 11.9803 24.3069C11.5071 24.6433 10.9633 24.8115 10.3489 24.8115C9.96213 24.8115 9.67772 24.7333 9.49569 24.577C9.31367 24.4253 9.22266 24.2453 9.22266 24.0368C9.22266 23.8425 9.29774 23.6743 9.44791 23.5321C9.59808 23.39 9.79604 23.3189 10.0418 23.3189C10.2465 23.3189 10.4035 23.3734 10.5128 23.4824C10.622 23.5914 10.6766 23.7288 10.6766 23.8946C10.6766 24.0463 10.6425 24.1576 10.5742 24.2287C10.5059 24.3045 10.4718 24.3543 10.4718 24.378L10.5059 24.4277C10.5332 24.4514 10.5651 24.4632 10.6015 24.4632C10.738 24.4632 10.8541 24.4182 10.9496 24.3282C11.1908 24.1055 11.3706 23.8354 11.4889 23.5179C11.5708 23.3 11.7278 22.7242 11.9599 21.7907L13.3523 16.1117H12.4035L12.6288 15.2801C12.9701 15.2848 13.2181 15.2398 13.3728 15.145C13.5275 15.0503 13.6914 14.837 13.8643 14.5053C14.3649 13.5434 14.8927 12.854 15.4479 12.437C16.0031 12.02 16.622 11.8115 17.3046 11.8115C17.7414 11.8115 18.0577 11.8992 18.2534 12.0745C18.4536 12.2498 18.5537 12.4773 18.5537 12.7568C18.5537 13.0032 18.4877 13.1999 18.3558 13.3468C18.2238 13.4889 18.06 13.56 17.8643 13.56C17.6823 13.56 17.5321 13.5008 17.4138 13.3823C17.2955 13.2639 17.2363 13.1217 17.2363 12.9559C17.2363 12.8374 17.2727 12.7118 17.3455 12.5792C17.4229 12.4465 17.4616 12.3564 17.4616 12.3091C17.4616 12.2569 17.4434 12.2143 17.407 12.1811C17.3751 12.148 17.3319 12.1314 17.2773 12.1314C17.0088 12.1314 16.7335 12.3043 16.4513 12.6502C15.9872 13.2046 15.614 14.0813 15.3319 15.2801H16.3216L16.0827 16.1117H15.1203Z" fill="#5A6E87"/>
<path d="M16.7517 15.5075L19.1339 15.0811C19.5662 15.7871 19.8711 16.5642 20.0486 17.4124C20.4946 16.7253 20.8313 16.2444 21.0588 15.9695C21.3637 15.5999 21.614 15.3606 21.8097 15.2517C22.0099 15.1379 22.2215 15.0811 22.4445 15.0811C22.6948 15.0811 22.8859 15.1521 23.0179 15.2943C23.1544 15.4365 23.2227 15.6284 23.2227 15.87C23.2227 16.0975 23.1544 16.2846 23.0179 16.4315C22.8859 16.5737 22.7198 16.6448 22.5196 16.6448C22.374 16.6448 22.2056 16.6187 22.0145 16.5666C21.8279 16.5097 21.6982 16.4813 21.6254 16.4813C21.4343 16.4813 21.2522 16.5524 21.0793 16.6945C20.8427 16.8888 20.5514 17.3034 20.2056 17.9384C20.5924 19.3599 20.9018 20.2271 21.1339 20.5398C21.2704 20.7246 21.4092 20.817 21.5503 20.817C21.6686 20.817 21.771 20.7862 21.8575 20.7246C21.9894 20.6251 22.1919 20.3763 22.465 19.9783L22.7107 20.1275C22.3103 20.8004 21.9189 21.2743 21.5366 21.5491C21.2454 21.7623 20.9587 21.8689 20.6766 21.8689C20.3853 21.8689 20.1419 21.8026 19.9462 21.6699C19.7551 21.5325 19.5844 21.3122 19.4343 21.0089C19.2841 20.7009 19.1066 20.2105 18.9018 19.5376C18.3694 20.2436 17.9508 20.7601 17.6459 21.0871C17.3455 21.4093 17.0952 21.6202 16.895 21.7197C16.6948 21.8192 16.4809 21.8689 16.2534 21.8689C16.0167 21.8689 15.8302 21.7979 15.6936 21.6557C15.5526 21.5135 15.482 21.3287 15.482 21.1013C15.482 20.8596 15.5571 20.6606 15.7073 20.5043C15.8575 20.3479 16.0486 20.2697 16.2807 20.2697C16.4035 20.2697 16.5423 20.3076 16.6971 20.3834C16.9246 20.4971 17.0884 20.554 17.1885 20.554C17.3205 20.554 17.4388 20.5256 17.5435 20.4687C17.68 20.3976 17.8529 20.2436 18.0622 20.0067C18.1897 19.8598 18.424 19.5471 18.7653 19.0685C18.3285 17.3816 17.9872 16.3723 17.7414 16.0406C17.5867 15.8274 17.391 15.7208 17.1544 15.7208C17.0315 15.7208 16.8814 15.7397 16.7039 15.7776L16.7517 15.5075Z" fill="#5A6E87"/>
</svg>
