<svg width="33" height="33" viewBox="0 0 33 33" fill="none" xmlns="http://www.w3.org/2000/svg">
<g clip-path="url(#clip0_598_4821)">
<path d="M12.2201 7.2487H9.55339C8.08063 7.2487 6.88672 8.44261 6.88672 9.91536V25.9154C6.88672 27.3881 8.08063 28.582 9.55339 28.582H22.8867C24.3595 28.582 25.5534 27.3881 25.5534 25.9154V9.91536C25.5534 8.44261 24.3595 7.2487 22.8867 7.2487H20.2201M12.2201 7.2487C12.2201 8.72146 13.414 9.91536 14.8867 9.91536H17.5534C19.0261 9.91536 20.2201 8.72146 20.2201 7.2487M12.2201 7.2487C12.2201 5.77594 13.414 4.58203 14.8867 4.58203H17.5534C19.0261 4.58203 20.2201 5.77594 20.2201 7.2487" stroke="#5A6E87" stroke-width="2"/>
<path d="M15.1203 15.8822L14.3216 19.166C13.9485 20.7154 13.5844 21.8385 13.2295 22.535C12.8745 23.2316 12.4582 23.7457 11.9803 24.0774C11.5071 24.4138 10.9633 24.582 10.3489 24.582C9.96213 24.582 9.67772 24.5038 9.49569 24.3475C9.31367 24.1958 9.22266 24.0158 9.22266 23.8073C9.22266 23.613 9.29774 23.4448 9.44791 23.3026C9.59808 23.1605 9.79604 23.0894 10.0418 23.0894C10.2465 23.0894 10.4035 23.1439 10.5128 23.2529C10.622 23.3619 10.6766 23.4993 10.6766 23.6651C10.6766 23.8168 10.6425 23.9281 10.5742 23.9992C10.5059 24.075 10.4718 24.1248 10.4718 24.1485L10.5059 24.1982C10.5332 24.2219 10.5651 24.2338 10.6015 24.2338C10.738 24.2338 10.8541 24.1887 10.9496 24.0987C11.1908 23.876 11.3706 23.6059 11.4889 23.2884C11.5708 23.0705 11.7278 22.4947 11.9599 21.5613L13.3523 15.8822H12.4035L12.6288 15.0506C12.9701 15.0553 13.2181 15.0103 13.3728 14.9155C13.5275 14.8208 13.6914 14.6075 13.8643 14.2759C14.3649 13.3139 14.8927 12.6245 15.4479 12.2075C16.0031 11.7905 16.622 11.582 17.3046 11.582C17.7414 11.582 18.0577 11.6697 18.2534 11.845C18.4536 12.0203 18.5537 12.2478 18.5537 12.5274C18.5537 12.7738 18.4877 12.9704 18.3558 13.1173C18.2238 13.2595 18.06 13.3305 17.8643 13.3305C17.6823 13.3305 17.5321 13.2713 17.4138 13.1528C17.2955 13.0344 17.2363 12.8922 17.2363 12.7264C17.2363 12.6079 17.2727 12.4823 17.3455 12.3497C17.4229 12.217 17.4616 12.127 17.4616 12.0796C17.4616 12.0274 17.4434 11.9848 17.407 11.9516C17.3751 11.9185 17.3319 11.9019 17.2773 11.9019C17.0088 11.9019 16.7335 12.0748 16.4513 12.4207C15.9872 12.9751 15.614 13.8518 15.3319 15.0506H16.3216L16.0827 15.8822H15.1203Z" fill="#5A6E87"/>
<path d="M16.7517 15.278L19.1339 14.8516C19.5662 15.5576 19.8711 16.3347 20.0486 17.1829C20.4946 16.4958 20.8313 16.0149 21.0588 15.74C21.3637 15.3704 21.614 15.1311 21.8097 15.0222C22.0099 14.9084 22.2215 14.8516 22.4445 14.8516C22.6948 14.8516 22.8859 14.9227 23.0179 15.0648C23.1544 15.207 23.2227 15.3989 23.2227 15.6405C23.2227 15.868 23.1544 16.0551 23.0179 16.202C22.8859 16.3442 22.7198 16.4153 22.5196 16.4153C22.374 16.4153 22.2056 16.3892 22.0145 16.3371C21.8279 16.2802 21.6982 16.2518 21.6254 16.2518C21.4343 16.2518 21.2522 16.3229 21.0793 16.465C20.8427 16.6593 20.5514 17.0739 20.2056 17.7089C20.5924 19.1304 20.9018 19.9976 21.1339 20.3103C21.2704 20.4951 21.4092 20.5875 21.5503 20.5875C21.6686 20.5875 21.771 20.5567 21.8575 20.4951C21.9894 20.3956 22.1919 20.1468 22.465 19.7488L22.7107 19.8981C22.3103 20.5709 21.9189 21.0448 21.5366 21.3196C21.2454 21.5328 20.9587 21.6394 20.6766 21.6394C20.3853 21.6394 20.1419 21.5731 19.9462 21.4404C19.7551 21.303 19.5844 21.0827 19.4343 20.7794C19.2841 20.4714 19.1066 19.981 18.9018 19.3081C18.3694 20.0141 17.9508 20.5306 17.6459 20.8576C17.3455 21.1798 17.0952 21.3907 16.895 21.4902C16.6948 21.5897 16.4809 21.6394 16.2534 21.6394C16.0167 21.6394 15.8302 21.5684 15.6936 21.4262C15.5526 21.2841 15.482 21.0993 15.482 20.8718C15.482 20.6301 15.5571 20.4311 15.7073 20.2748C15.8575 20.1184 16.0486 20.0402 16.2807 20.0402C16.4035 20.0402 16.5423 20.0781 16.6971 20.1539C16.9246 20.2677 17.0884 20.3245 17.1885 20.3245C17.3205 20.3245 17.4388 20.2961 17.5435 20.2392C17.68 20.1681 17.8529 20.0141 18.0622 19.7772C18.1897 19.6303 18.424 19.3176 18.7653 18.839C18.3285 17.1521 17.9872 16.1428 17.7414 15.8111C17.5867 15.5979 17.391 15.4913 17.1544 15.4913C17.0315 15.4913 16.8814 15.5102 16.7039 15.5481L16.7517 15.278Z" fill="#5A6E87"/>
<rect x="18.2227" y="18.8114" width="14" height="14" rx="4" fill="white"/>
<line x1="28.1797" y1="22.9135" x2="22.3609" y2="28.7323" stroke="#5A6E87" stroke-width="1.2" stroke-linecap="round"/>
<circle cx="22.6838" cy="23.5857" r="1.1721" stroke="#5A6E87" stroke-width="1.2"/>
<circle cx="27.7619" cy="27.8884" r="1.1721" stroke="#5A6E87" stroke-width="1.2"/>
</g>
<defs>
<clipPath id="clip0_598_4821">
<rect width="32" height="32" fill="white" transform="translate(0.222656 0.582031)"/>
</clipPath>
</defs>
</svg>
