<svg width="33" height="33" viewBox="0 0 33 33" fill="none" xmlns="http://www.w3.org/2000/svg">
<g clip-path="url(#clip0_598_4867)">
<path d="M12.556 7.47819H9.88932C8.41656 7.47819 7.22266 8.6721 7.22266 10.1449V26.1449C7.22266 27.6176 8.41656 28.8115 9.88932 28.8115H23.2227C24.6954 28.8115 25.8893 27.6176 25.8893 26.1449V10.1449C25.8893 8.6721 24.6954 7.47819 23.2227 7.47819H20.556M12.556 7.47819C12.556 8.95095 13.7499 10.1449 15.2227 10.1449H17.8893C19.3621 10.1449 20.556 8.95095 20.556 7.47819M12.556 7.47819C12.556 6.00543 13.7499 4.81152 15.2227 4.81152H17.8893C19.3621 4.81152 20.556 6.00543 20.556 7.47819" stroke="#5A6E87" stroke-width="2"/>
<path d="M20.0224 13.6022C17.2076 15.8574 16.965 16.2675 15.4427 20.1558L16.5856 21.1616C18.5684 19.4035 20.534 18.1748 21.7509 14.7766C21.9084 14.3367 21.7421 13.8512 21.3655 13.5746C20.9634 13.2793 20.4117 13.2902 20.0224 13.6022Z" stroke="#5A6E87" stroke-width="1.2" stroke-linecap="round"/>
<path d="M13.9312 25.5802C13.2327 25.625 12.3965 25.576 11.2892 25.5045C11.4012 25.337 11.4939 25.1648 11.5702 24.9883C11.8033 24.4491 11.8677 23.9041 11.9076 23.4226C11.9147 23.3369 11.9212 23.2528 11.9276 23.1703C11.9945 22.3078 12.0481 21.6172 12.6384 20.9178C13.2281 20.3864 13.8657 20.128 14.4522 20.1172C15.0363 20.1064 15.6294 20.3391 16.1483 20.9049C17.1771 22.0268 17.1017 23.7703 15.9798 24.7991C15.4229 25.3098 14.8347 25.5222 13.9312 25.5802Z" stroke="#5A6E87" stroke-width="1.2"/>
<rect x="18.2227" y="18.8115" width="14" height="14" rx="4" fill="white"/>
<line x1="28.2227" y1="22.6601" x2="22.4038" y2="28.4789" stroke="#5A6E87" stroke-width="1.2" stroke-linecap="round"/>
<circle cx="22.3948" cy="22.9836" r="1.1721" stroke="#5A6E87" stroke-width="1.2"/>
<circle cx="27.3948" cy="27.9836" r="1.1721" stroke="#5A6E87" stroke-width="1.2"/>
</g>
<defs>
<clipPath id="clip0_598_4867">
<rect width="32" height="32" fill="white" transform="translate(0.222656 0.811523)"/>
</clipPath>
</defs>
</svg>
