<svg width="19" height="20" viewBox="0 0 19 20" fill="none" xmlns="http://www.w3.org/2000/svg">
<path fill-rule="evenodd" clip-rule="evenodd" d="M0.83789 11.8438C0.83789 12.2511 1.16807 12.5812 1.57537 12.5812L17.8 12.5812C18.2072 12.5812 18.5374 12.2511 18.5374 11.8438C18.5374 11.4365 18.2072 11.1063 17.8 11.1063L1.57537 11.1063C1.16807 11.1063 0.83789 11.4365 0.83789 11.8438Z" fill="#5A6E87"/>
<path fill-rule="evenodd" clip-rule="evenodd" d="M4.5253 18.4811C3.93852 18.4811 3.37578 18.248 2.96086 17.8331C2.54595 17.4182 2.31285 16.8554 2.31285 16.2686L2.31285 9.63132C2.31285 9.43573 2.39055 9.24815 2.52885 9.10984C2.66716 8.97154 2.85474 8.89384 3.05033 8.89384L7.3646 8.89384L7.3646 8.15636L7.36681 8.89383C7.57726 8.8932 7.78514 8.84754 7.97649 8.75992C8.16784 8.67229 8.33822 8.54473 8.47619 8.38581C8.61416 8.22688 8.71651 8.04027 8.77639 7.83852C8.83627 7.63676 8.85227 7.42452 8.82333 7.21606L8.82293 7.21318L8.21345 2.94685C8.2254 2.57277 8.37923 2.21651 8.6447 1.95103C8.92131 1.67443 9.29648 1.51903 9.68766 1.51903C10.0788 1.51903 10.454 1.67443 10.7306 1.95103C10.9961 2.21651 11.1499 2.57277 11.1619 2.94685L10.5524 7.21318L10.552 7.21606C10.5231 7.42452 10.5391 7.63675 10.5989 7.83852C10.6588 8.04028 10.7612 8.22688 10.8991 8.38581C11.0371 8.54473 11.2075 8.67229 11.3988 8.75992C11.5902 8.84754 11.7981 8.8932 12.0085 8.89383L12.0107 8.89384L16.325 8.89384C16.5206 8.89384 16.7082 8.97154 16.8465 9.10984C16.9848 9.24815 17.0625 9.43573 17.0625 9.63132L17.0625 18.4811L4.5253 18.4811ZM7.36238 7.41888L3.05033 7.41888C2.46356 7.41888 1.90081 7.65197 1.4859 8.06689C1.07099 8.4818 0.83789 9.04454 0.83789 9.63132L0.83789 16.2686C0.83789 17.2466 1.22638 18.1845 1.91791 18.876C2.60943 19.5676 3.54733 19.9561 4.5253 19.9561L17.8 19.9561C18.2073 19.9561 18.5374 19.6259 18.5374 19.2186L18.5374 9.63132C18.5374 9.04454 18.3043 8.4818 17.8894 8.06689C17.4745 7.65197 16.9118 7.41888 16.325 7.41888L12.0129 7.41888L12.6302 3.09828C12.6351 3.06374 12.6376 3.02889 12.6376 2.99399C12.6376 2.21162 12.3268 1.4613 11.7736 0.908076C11.2204 0.354859 10.47 0.0440646 9.68766 0.0440647C8.90529 0.0440648 8.15497 0.35486 7.60175 0.908077C7.04853 1.4613 6.73774 2.21162 6.73774 2.99399C6.73774 3.02889 6.74021 3.06374 6.74515 3.09829L7.36238 7.41888Z" fill="#5A6E87"/>
<path fill-rule="evenodd" clip-rule="evenodd" d="M14.85 19.9561C15.2573 19.9561 15.5875 19.6259 15.5875 19.2186L15.5875 14.7937C15.5875 14.3864 15.2573 14.0562 14.85 14.0562C14.4427 14.0562 14.1125 14.3864 14.1125 14.7937L14.1125 19.2186C14.1125 19.6259 14.4427 19.9561 14.85 19.9561Z" fill="#5A6E87"/>
</svg>
