<svg width="29" height="29" viewBox="1 1 29 29" fill="none" xmlns="http://www.w3.org/2000/svg">
<path d="M13.2074 17.9596C12.8169 17.569 12.1837 17.569 11.7932 17.9596C11.4027 18.3501 11.4027 18.9832 11.7932 19.3738L13.2074 17.9596ZM15.167 21.3333L14.4599 22.0404C14.8504 22.431 15.4836 22.431 15.8741 22.0404L15.167 21.3333ZM21.2074 16.7071C21.598 16.3166 21.598 15.6834 21.2074 15.2929C20.8169 14.9024 20.1837 14.9024 19.7932 15.2929L21.2074 16.7071ZM24.8337 9.33333V25.3333H26.8337V9.33333H24.8337ZM23.167 27H9.83366V29H23.167V27ZM8.16699 25.3333V9.33333H6.16699V25.3333H8.16699ZM9.83366 7.66667H12.5003V5.66667H9.83366V7.66667ZM20.5003 7.66667H23.167V5.66667H20.5003V7.66667ZM9.83366 27C8.91318 27 8.16699 26.2538 8.16699 25.3333H6.16699C6.16699 27.3584 7.80861 29 9.83366 29V27ZM24.8337 25.3333C24.8337 26.2538 24.0875 27 23.167 27V29C25.192 29 26.8337 27.3584 26.8337 25.3333H24.8337ZM26.8337 9.33333C26.8337 7.30829 25.192 5.66667 23.167 5.66667V7.66667C24.0875 7.66667 24.8337 8.41286 24.8337 9.33333H26.8337ZM8.16699 9.33333C8.16699 8.41286 8.91318 7.66667 9.83366 7.66667V5.66667C7.80861 5.66667 6.16699 7.30829 6.16699 9.33333H8.16699ZM11.7932 19.3738L14.4599 22.0404L15.8741 20.6262L13.2074 17.9596L11.7932 19.3738ZM15.8741 22.0404L21.2074 16.7071L19.7932 15.2929L14.4599 20.6262L15.8741 22.0404ZM15.167 5H17.8337V3H15.167V5ZM17.8337 8.33333H15.167V10.3333H17.8337V8.33333ZM15.167 8.33333C14.2465 8.33333 13.5003 7.58714 13.5003 6.66667H11.5003C11.5003 8.69171 13.1419 10.3333 15.167 10.3333V8.33333ZM19.5003 6.66667C19.5003 7.58714 18.7541 8.33333 17.8337 8.33333V10.3333C19.8587 10.3333 21.5003 8.69171 21.5003 6.66667H19.5003ZM17.8337 5C18.7541 5 19.5003 5.74619 19.5003 6.66667H21.5003C21.5003 4.64162 19.8587 3 17.8337 3V5ZM15.167 3C13.1419 3 11.5003 4.64162 11.5003 6.66667H13.5003C13.5003 5.74619 14.2465 5 15.167 5V3Z" fill="#5A6E87"/>
</svg>
