<svg width="33" height="33" viewBox="0 0 33 33" fill="none" xmlns="http://www.w3.org/2000/svg">
<path d="M12.2201 7.47819H9.55339C8.08063 7.47819 6.88672 8.6721 6.88672 10.1449V26.1449C6.88672 27.6176 8.08063 28.8115 9.55339 28.8115H22.8867C24.3595 28.8115 25.5534 27.6176 25.5534 26.1449V10.1449C25.5534 8.6721 24.3595 7.47819 22.8867 7.47819H20.2201M12.2201 7.47819C12.2201 8.95095 13.414 10.1449 14.8867 10.1449H17.5534C19.0261 10.1449 20.2201 8.95095 20.2201 7.47819M12.2201 7.47819C12.2201 6.00543 13.414 4.81152 14.8867 4.81152H17.5534C19.0261 4.81152 20.2201 6.00543 20.2201 7.47819" stroke="#5A6E87" stroke-width="2"/>
<path d="M9.22266 16.4461V15.2958H11.5233V23.359H10.2513V16.4461H9.22266Z" fill="#5A6E87"/>
<path d="M13.1227 21.6446C13.8306 21.0326 14.3873 20.5312 14.7929 20.1403C15.2058 19.7422 15.5487 19.3292 15.8215 18.9016C16.0943 18.4739 16.2307 18.0462 16.2307 17.6185C16.2307 17.1761 16.1238 16.8296 15.91 16.5788C15.7035 16.3281 15.3754 16.2028 14.9256 16.2028C14.4905 16.2028 14.1513 16.3429 13.908 16.6231C13.6721 16.8959 13.5467 17.2646 13.532 17.7291H12.3153C12.3374 16.8885 12.5881 16.247 13.0674 15.8046C13.5541 15.3548 14.1698 15.1299 14.9145 15.1299C15.7183 15.1299 16.345 15.3511 16.7948 15.7935C17.252 16.236 17.4806 16.8259 17.4806 17.5632C17.4806 18.0941 17.3442 18.6066 17.0713 19.1007C16.8059 19.5873 16.4851 20.0261 16.1091 20.4169C15.7404 20.8003 15.2685 21.2464 14.6933 21.7552L14.1956 22.1976H17.7018V23.2484H12.3264V22.3303L13.1227 21.6446Z" fill="#5A6E87"/>
<path d="M17.9578 17.2867C18.0021 16.601 18.2638 16.0664 18.7431 15.6829C19.2298 15.2995 19.8492 15.1078 20.6013 15.1078C21.1175 15.1078 21.5636 15.2 21.9396 15.3843C22.3157 15.5686 22.5996 15.8194 22.7913 16.1364C22.983 16.4535 23.0789 16.8111 23.0789 17.2093C23.0789 17.6665 22.9572 18.0573 22.7139 18.3817C22.4705 18.7062 22.1793 18.9237 21.8401 19.0343V19.0785C22.2751 19.2113 22.6143 19.4546 22.8577 19.8085C23.101 20.1551 23.2227 20.6012 23.2227 21.1469C23.2227 21.5819 23.1231 21.969 22.924 22.3082C22.7249 22.6474 22.43 22.9165 22.0392 23.1156C21.6484 23.3074 21.1801 23.4032 20.6345 23.4032C19.8381 23.4032 19.1819 23.2004 18.6657 22.7949C18.1569 22.382 17.8841 21.7921 17.8472 21.0252H19.0639C19.0934 21.416 19.2445 21.7368 19.5174 21.9875C19.7902 22.2308 20.1589 22.3525 20.6234 22.3525C21.0732 22.3525 21.4198 22.2308 21.6631 21.9875C21.9064 21.7368 22.0281 21.416 22.0281 21.0252C22.0281 20.509 21.8622 20.144 21.5304 19.9302C21.2059 19.709 20.7045 19.5984 20.0262 19.5984H19.7386V18.5587H20.0372C20.6345 18.5513 21.088 18.4518 21.3977 18.2601C21.7147 18.0683 21.8733 17.766 21.8733 17.3531C21.8733 16.9991 21.759 16.7189 21.5304 16.5125C21.3018 16.2986 20.9774 16.1917 20.5571 16.1917C20.1441 16.1917 19.8234 16.2986 19.5948 16.5125C19.3662 16.7189 19.2298 16.977 19.1855 17.2867H17.9578Z" fill="#5A6E87"/>
</svg>
