<svg width="33" height="33" viewBox="0 0 33 33" fill="none" xmlns="http://www.w3.org/2000/svg">
<path d="M8.44531 28.2002C7.89303 28.2002 7.44531 27.7525 7.44531 27.2002V4.27857L19.0663 4.27856L25.8958 12.8155V28.2002H8.44531Z" stroke="#5A6E87" stroke-width="2"/>
<path d="M19.2969 5.12256V13.0505H25.4155" stroke="#5A6E87" stroke-linecap="round"/>
<g clip-path="url(#clip0_362_22405)">
<rect x="18.6719" y="18.4658" width="14" height="14.0004" rx="4" fill="white"/>
<path d="M31.3359 24.8378L28.7735 27.4002M19.7734 23.7595L19.7734 27.7716M23.6133 25.7654C23.6133 26.9089 23.044 27.8358 22.3418 27.8358C21.6396 27.8358 21.0703 26.9089 21.0703 25.7654C21.0703 24.622 21.6396 23.6951 22.3418 23.6951C23.044 23.6951 23.6133 24.622 23.6133 25.7654ZM27.2969 25.7656C27.2969 26.909 26.7276 27.8359 26.0254 27.8359C25.3232 27.8359 24.7539 26.909 24.7539 25.7656C24.7539 24.6221 25.3232 23.6952 26.0254 23.6952C26.7276 23.6952 27.2969 24.6221 27.2969 25.7656ZM31.9236 27.4752C31.9236 27.7995 31.6607 28.0624 31.3365 28.0624C31.0122 28.0624 30.7493 27.7995 30.7493 27.4752C30.7493 27.1509 31.0122 26.8881 31.3365 26.8881C31.6607 26.8881 31.9236 27.1509 31.9236 27.4752ZM29.6168 24.6168C29.6168 24.9411 29.354 25.204 29.0297 25.204C28.7054 25.204 28.4425 24.9411 28.4425 24.6168C28.4425 24.2925 28.7054 24.0297 29.0297 24.0297C29.354 24.0297 29.6168 24.2925 29.6168 24.6168Z" stroke="#5A6E87" stroke-linecap="round"/>
</g>
<defs>
<clipPath id="clip0_362_22405">
<rect x="18.6719" y="18.4658" width="14" height="14.0004" rx="4" fill="white"/>
</clipPath>
</defs>
</svg>
