<svg width="33" height="33" viewBox="0 0 33 33" fill="none" xmlns="http://www.w3.org/2000/svg">
<g clip-path="url(#clip0_362_22413)">
<rect x="12.3438" y="12.1045" width="8.66667" height="8" fill="#BFDBFE"/>
<path d="M12.3385 12.1045V4.10449H3.67188V12.1045M12.3385 12.1045H3.67188M12.3385 12.1045V20.1045H3.67188V12.1045M3.67578 20.1045H12.3424V28.1045H3.67578V20.1045ZM12.3398 4.10449H21.0065V12.1045H12.3398V4.10449ZM12.3477 20.1045H21.0143V28.1045H12.3477V20.1045ZM21.0039 4.10449H29.6706V12.1045H21.0039V4.10449ZM21.0078 12.1045H29.6745V20.1045H21.0078V12.1045ZM21.0117 20.1045H29.6784V28.1045H21.0117V20.1045Z" stroke="#5A6E87"/>
</g>
<rect x="3.67188" y="4.10449" width="26" height="24" rx="2" stroke="#5A6E87" stroke-width="2"/>
<rect x="18.3906" y="18.104" width="14" height="14.0004" rx="4" fill="white"/>
<path d="M27.0549 26.614L29.8692 28.8969M28.1481 23.8509C28.1481 25.9607 26.4377 27.671 24.3279 27.671C22.2181 27.671 20.5078 25.9607 20.5078 23.8509C20.5078 21.7411 22.2181 20.0308 24.3279 20.0308C26.4377 20.0308 28.1481 21.7411 28.1481 23.8509Z" stroke="#5A6E87" stroke-linecap="round"/>
<defs>
<clipPath id="clip0_362_22413">
<rect x="3.67188" y="4.10449" width="26" height="24" rx="2" fill="white"/>
</clipPath>
</defs>
</svg>
