<svg width="25" height="25" viewBox="0 0 25 25" fill="none" xmlns="http://www.w3.org/2000/svg">
<path d="M3.96875 18.3052H9.96875C10.383 18.3052 10.7188 17.9694 10.7188 17.5552C10.7188 17.141 10.383 16.8052 9.96875 16.8052H3.96875C3.55454 16.8052 3.21875 17.141 3.21875 17.5552C3.21875 17.9694 3.55454 18.3052 3.96875 18.3052Z" fill="#5A6E87"/>
<path d="M6.21875 14.5552V20.5552C6.21875 20.9694 6.55454 21.3052 6.96875 21.3052C7.38296 21.3052 7.71875 20.9694 7.71875 20.5552V14.5552C7.71875 14.141 7.38296 13.8052 6.96875 13.8052C6.55454 13.8052 6.21875 14.141 6.21875 14.5552Z" fill="#5A6E87"/>
<path d="M9.96875 6.30518H3.96875C3.55454 6.30518 3.21875 6.64096 3.21875 7.05518C3.21875 7.46939 3.55454 7.80518 3.96875 7.80518H9.96875C10.383 7.80518 10.7188 7.46939 10.7188 7.05518C10.7188 6.64096 10.383 6.30518 9.96875 6.30518Z" fill="#5A6E87"/>
<path d="M20.4688 15.3145H14.4688C14.0545 15.3145 13.7188 15.6503 13.7188 16.0645C13.7188 16.4787 14.0545 16.8145 14.4688 16.8145H20.4688C20.883 16.8145 21.2188 16.4787 21.2188 16.0645C21.2188 15.6503 20.883 15.3145 20.4688 15.3145Z" fill="#5A6E87"/>
<path d="M20.4688 18.2958H14.4688C14.0545 18.2958 13.7188 18.6316 13.7188 19.0458C13.7188 19.4601 14.0545 19.7958 14.4688 19.7958H20.4688C20.883 19.7958 21.2188 19.4601 21.2188 19.0458C21.2188 18.6316 20.883 18.2958 20.4688 18.2958Z" fill="#5A6E87"/>
<path d="M20.2488 5.33579C20.3895 5.19513 20.4687 5.00409 20.4688 4.80518C20.4688 4.60626 20.3897 4.4155 20.2491 4.27485L20.2426 4.26845C20.1026 4.13198 19.9143 4.05518 19.7188 4.05518C19.6963 4.05518 19.6738 4.05619 19.6514 4.05821C19.4764 4.07399 19.3126 4.15066 19.1884 4.27485L14.6887 8.77456C14.548 8.91522 14.4688 9.10626 14.4688 9.30518C14.4688 9.31719 14.469 9.3292 14.4696 9.3412C14.4786 9.52744 14.5566 9.70366 14.6884 9.83551C14.8291 9.97616 15.0198 10.0552 15.2188 10.0552C15.4177 10.0552 15.6084 9.97616 15.7491 9.83551L20.2488 5.33579Z" fill="#5A6E87"/>
<path d="M15.7491 4.27485C15.6084 4.13419 15.4177 4.05518 15.2188 4.05518C15.0198 4.05518 14.8291 4.13419 14.6884 4.27485C14.5478 4.4155 14.4688 4.60626 14.4688 4.80518C14.4688 5.00409 14.5478 5.19485 14.6884 5.33551L19.188 9.83512C19.3287 9.97577 19.5198 10.0552 19.7188 10.0552C19.9177 10.0552 20.1084 9.97616 20.2491 9.83551C20.3897 9.69485 20.4688 9.50409 20.4688 9.30518C20.4688 9.10626 20.3897 8.9155 20.2491 8.77485L15.7491 4.27485Z" fill="#5A6E87"/>
</svg>
