<svg width="25" height="24" viewBox="0 0 25 24" fill="none" xmlns="http://www.w3.org/2000/svg">
<g clip-path="url(#clip0_371_13474)">
<path d="M8.60937 11.9905H16.917M8.60937 11.9905C8.19516 11.9905 7.85938 11.6547 7.85938 11.2405V4.00977C7.85938 3.59555 8.19516 3.25977 8.60938 3.25977H16.917C17.3312 3.25977 17.667 3.59555 17.667 4.00977V11.2405C17.667 11.6547 17.3312 11.9905 16.917 11.9905M8.60937 11.9905C8.19516 11.9905 7.85938 12.3262 7.85938 12.7404V19.9711C7.85938 20.3853 8.19516 20.7211 8.60938 20.7211H16.917C17.3312 20.7211 17.667 20.3853 17.667 19.9711V12.7404C17.667 12.3262 17.3312 11.9905 16.917 11.9905" stroke="#5A6E87" stroke-width="1.5"/>
<path d="M12.5908 5.67684C12.6918 5.54685 12.9443 5.54685 13.0454 5.67684L15.1943 8.44223C15.2954 8.57222 15.1691 8.73471 14.9671 8.73471H10.6691C10.4671 8.73471 10.3408 8.57222 10.4418 8.44223L12.5908 5.67684Z" fill="#5A6E87"/>
<path d="M12.5869 18.3041C12.6879 18.4341 12.9404 18.4341 13.0414 18.3041L15.1904 15.5387C15.2914 15.4087 15.1652 15.2462 14.9631 15.2462H10.6652C10.4632 15.2462 10.3369 15.4087 10.4379 15.5387L12.5869 18.3041Z" fill="#5A6E87"/>
</g>
<defs>
<clipPath id="clip0_371_13474">
<rect x="3.60938" y="2.24048" width="18.75" height="19.5" rx="1.5" fill="white"/>
</clipPath>
</defs>
</svg>
