<svg width="25" height="24" viewBox="0 0 25 24" fill="none" xmlns="http://www.w3.org/2000/svg">
<path d="M22.4121 8.7627C22.8263 8.7627 23.1621 9.09848 23.1621 9.5127V14.4872C23.1621 14.9014 22.8263 15.2372 22.4121 15.2372H12.9682C12.5539 15.2372 12.2182 14.9014 12.2182 14.4872V9.5127C12.2182 9.09848 12.5539 8.7627 12.9682 8.7627L22.4121 8.7627Z" stroke="#5A6E87" stroke-width="1.5"/>
<path d="M2.02734 8.7627C1.61313 8.7627 1.27734 9.09848 1.27734 9.5127L1.27734 14.4872C1.27734 14.9014 1.61313 15.2372 2.02734 15.2372L11.4713 15.2372C11.8855 15.2372 12.2213 14.9014 12.2213 14.4872V9.5127C12.2213 9.09848 11.8855 8.7627 11.4713 8.7627L2.02734 8.7627Z" stroke="#5A6E87" stroke-width="1.5"/>
</svg>
