<svg width="33" height="33" viewBox="0 0 33 33" fill="none" xmlns="http://www.w3.org/2000/svg">
<g clip-path="url(#clip0_371_13503)">
<rect x="3.65625" y="4.70312" width="26" height="8" fill="#BFDBFE" stroke="#5A6E87"/>
<path d="M3.65625 12.7031H12.3229V20.7031H3.65625V12.7031Z" stroke="#5A6E87"/>
<path d="M3.66016 20.7031H12.3268V28.7031H3.66016V20.7031Z" stroke="#5A6E87"/>
<path d="M12.3242 4.70312H20.9909V12.7031H12.3242V4.70312Z" stroke="#5A6E87"/>
<path d="M12.3281 12.7031H20.9948V20.7031H12.3281V12.7031Z" stroke="#5A6E87"/>
<path d="M12.332 20.7031H20.9987V28.7031H12.332V20.7031Z" stroke="#5A6E87"/>
<path d="M20.9883 4.70312H29.6549V12.7031H20.9883V4.70312Z" stroke="#5A6E87"/>
<path d="M20.9922 12.7031H29.6589V20.7031H20.9922V12.7031Z" stroke="#5A6E87"/>
<path d="M20.9961 20.7031H29.6628V28.7031H20.9961V20.7031Z" stroke="#5A6E87"/>
</g>
<rect x="3.65625" y="4.70312" width="26" height="24" rx="2" stroke="#5A6E87" stroke-width="2"/>
<rect x="18.7695" y="18.6123" width="14" height="14" rx="4" fill="white"/>
<path d="M30.0981 26.9251C29.912 26.941 29.7503 27.0594 29.6788 27.2319C29.6073 27.4045 29.638 27.6025 29.7583 27.7454C30.0984 28.1492 30.098 28.7528 29.7359 29.1578C29.6034 29.306 29.4627 29.4466 29.3145 29.5792C28.9096 29.9413 28.3059 29.9416 27.9022 29.6016C27.7593 29.4812 27.5613 29.4506 27.3887 29.5221C27.2161 29.5935 27.0978 29.7553 27.0819 29.9414C27.0368 30.4676 26.6094 30.8943 26.0668 30.9243C25.9682 30.9298 25.869 30.9325 25.7693 30.9325C25.6695 30.9325 25.5703 30.9298 25.4718 30.9243C24.9291 30.8943 24.5017 30.4676 24.4566 29.9414C24.4407 29.7553 24.3224 29.5935 24.1498 29.5221C23.9773 29.4506 23.7792 29.4812 23.6364 29.6016C23.2326 29.9416 22.6289 29.9413 22.224 29.5792L21.8907 29.9519L22.224 29.5792C22.0758 29.4466 21.9351 29.306 21.8026 29.1578C21.4405 28.7528 21.4401 28.1492 21.7802 27.7454C21.9005 27.6025 21.9312 27.4045 21.8597 27.2319C21.7882 27.0594 21.6265 26.9411 21.4404 26.9251C20.9141 26.8801 20.4874 26.4527 20.4574 25.91C20.452 25.8114 20.4492 25.7122 20.4492 25.6125C20.4492 25.5128 20.452 25.4136 20.4574 25.315C20.4874 24.7724 20.9141 24.3449 21.4404 24.2999C21.6265 24.284 21.7882 24.1656 21.8597 23.9931C21.9312 23.8205 21.9005 23.6225 21.7802 23.4796C21.4401 23.0758 21.4405 22.4722 21.8026 22.0672C21.9351 21.9191 22.0758 21.7784 22.224 21.6459C22.6289 21.2837 23.2326 21.2834 23.6364 21.6235C23.7792 21.7438 23.9773 21.7744 24.1498 21.703C24.3224 21.6315 24.4407 21.4698 24.4566 21.2837C24.5017 20.7574 24.9291 20.3307 25.4718 20.3007C25.5703 20.2952 25.6695 20.2925 25.7693 20.2925C25.869 20.2925 25.9682 20.2952 26.0668 20.3007C26.6094 20.3307 27.0368 20.7574 27.0819 21.2837C27.0978 21.4698 27.2161 21.6315 27.3887 21.703C27.5613 21.7744 27.7593 21.7438 27.9021 21.6235C28.3059 21.2834 28.9096 21.2837 29.3145 21.6459C29.4627 21.7784 29.6034 21.9191 29.7359 22.0672C30.098 22.4722 30.0984 23.0758 29.7583 23.4796C29.638 23.6225 29.6073 23.8205 29.6788 23.9931C29.7503 24.1656 29.912 24.284 30.0981 24.2999C30.6244 24.3449 31.0511 24.7724 31.0811 25.315C31.0865 25.4136 31.0893 25.5128 31.0893 25.6125C31.0893 25.7122 31.0865 25.8114 31.0811 25.91C31.0511 26.4527 30.6244 26.8801 30.0981 26.9251ZM25.7723 27.4579C26.7916 27.4579 27.6179 26.6316 27.6179 25.6123C27.6179 24.5931 26.7916 23.7667 25.7723 23.7667C24.753 23.7667 23.9267 24.5931 23.9267 25.6123C23.9267 26.6316 24.753 27.4579 25.7723 27.4579Z" stroke="#5A6E87" stroke-linecap="round" stroke-linejoin="round"/>
<defs>
<clipPath id="clip0_371_13503">
<rect x="3.65625" y="4.70312" width="26" height="24" rx="2" fill="white"/>
</clipPath>
</defs>
</svg>
