<svg width="33" height="33" viewBox="0 0 33 33" fill="none" xmlns="http://www.w3.org/2000/svg">
<path d="M17.2853 15.219L16.0533 20.0838C15.4776 22.3793 14.916 24.043 14.3685 25.0749C13.8209 26.1069 13.1786 26.8685 12.4415 27.3599C11.7115 27.8583 10.8726 28.1075 9.92492 28.1075C9.32823 28.1075 8.88949 27.9917 8.60869 27.76C8.3279 27.5354 8.1875 27.2687 8.1875 26.9598C8.1875 26.672 8.30333 26.4228 8.53498 26.2122C8.76664 26.0016 9.072 25.8963 9.45108 25.8963C9.76697 25.8963 10.0092 25.977 10.1776 26.1385C10.3461 26.2999 10.4303 26.5035 10.4303 26.7492C10.4303 26.9738 10.3777 27.1388 10.2724 27.2441C10.1671 27.3564 10.1145 27.4301 10.1145 27.4652L10.1671 27.5389C10.2092 27.574 10.2584 27.5916 10.3145 27.5916C10.5251 27.5916 10.7041 27.5249 10.8515 27.3915C11.2236 27.0616 11.5009 26.6614 11.6834 26.1911C11.8098 25.8682 12.0519 25.0153 12.41 23.6324L14.558 15.219H13.0944L13.4419 13.9871C13.9684 13.9941 14.3509 13.9274 14.5896 13.787C14.8283 13.6466 15.081 13.3307 15.3478 12.8393C16.12 11.4143 16.9343 10.3929 17.7907 9.77513C18.6471 9.15739 19.6018 8.84851 20.6548 8.84851C21.3287 8.84851 21.8166 8.97838 22.1184 9.23811C22.4273 9.49785 22.5817 9.8348 22.5817 10.249C22.5817 10.614 22.48 10.9053 22.2764 11.1229C22.0728 11.3335 21.8201 11.4388 21.5182 11.4388C21.2374 11.4388 21.0058 11.3511 20.8233 11.1756C20.6408 11.0001 20.5495 10.7895 20.5495 10.5438C20.5495 10.3683 20.6057 10.1823 20.718 9.98573C20.8373 9.78917 20.897 9.6558 20.897 9.5856C20.897 9.50838 20.8689 9.4452 20.8127 9.39606C20.7636 9.34692 20.6969 9.32235 20.6127 9.32235C20.1985 9.32235 19.7738 9.57858 19.3386 10.091C18.6225 10.9124 18.0469 12.211 17.6117 13.9871H19.1385L18.77 15.219H17.2853Z" fill="#5A6E87"/>
<path d="M19.8019 14.324L23.4768 13.6922C24.1437 14.7382 24.614 15.8894 24.8878 17.146C25.5757 16.1281 26.0952 15.4156 26.4462 15.0084C26.9165 14.4609 27.3026 14.1064 27.6045 13.9449C27.9133 13.7765 28.2398 13.6922 28.5837 13.6922C28.9698 13.6922 29.2647 13.7975 29.4682 14.0081C29.6788 14.2187 29.7841 14.503 29.7841 14.861C29.7841 15.198 29.6788 15.4753 29.4682 15.6929C29.2647 15.9035 29.0084 16.0088 28.6996 16.0088C28.4749 16.0088 28.2152 15.9702 27.9204 15.893C27.6325 15.8087 27.4325 15.7666 27.3202 15.7666C27.0253 15.7666 26.7445 15.8719 26.4778 16.0825C26.1127 16.3703 25.6635 16.9845 25.13 17.9252C25.7267 20.0312 26.204 21.3158 26.562 21.7791C26.7726 22.0529 26.9867 22.1898 27.2043 22.1898C27.3868 22.1898 27.5448 22.1441 27.6782 22.0529C27.8818 21.9055 28.1941 21.5369 28.6153 20.9473L28.9944 21.1684C28.3767 22.1652 27.7729 22.8672 27.1833 23.2743C26.734 23.5902 26.2917 23.7482 25.8565 23.7482C25.4072 23.7482 25.0317 23.6499 24.7298 23.4534C24.435 23.2498 24.1717 22.9234 23.9401 22.4741C23.7084 22.0178 23.4347 21.2912 23.1188 20.2944C22.2974 21.3404 21.6516 22.1055 21.1813 22.5899C20.718 23.0673 20.3319 23.3796 20.023 23.5271C19.7141 23.6745 19.3842 23.7482 19.0332 23.7482C18.6682 23.7482 18.3804 23.6429 18.1698 23.4323C17.9521 23.2217 17.8433 22.9479 17.8433 22.611C17.8433 22.253 17.9592 21.9581 18.1908 21.7265C18.4225 21.4948 18.7173 21.379 19.0753 21.379C19.2649 21.379 19.479 21.4351 19.7176 21.5475C20.0686 21.7159 20.3213 21.8002 20.4758 21.8002C20.6794 21.8002 20.8619 21.7581 21.0233 21.6738C21.2339 21.5685 21.5007 21.3404 21.8236 20.9894C22.0202 20.7718 22.3817 20.3085 22.9082 19.5994C22.2343 17.1004 21.7078 15.6051 21.3287 15.1137C21.09 14.7979 20.7882 14.6399 20.4231 14.6399C20.2336 14.6399 20.0019 14.668 19.7282 14.7241L19.8019 14.324Z" fill="#5A6E87"/>
<path d="M22.5835 3.97717L3.65234 15.5135L3.65234 3.97717H22.5835Z" fill="#5A6E87"/>
</svg>
