<svg width="33" height="33" viewBox="0 0 33 33" fill="none" xmlns="http://www.w3.org/2000/svg">
<path d="M15.1603 13.0713L13.9283 17.9361C13.3526 20.2316 12.791 21.8953 12.2435 22.9272C11.6959 23.9592 11.0536 24.7208 10.3165 25.2122C9.58648 25.7106 8.7476 25.9598 7.79992 25.9598C7.20323 25.9598 6.76449 25.844 6.48369 25.6123C6.2029 25.3877 6.0625 25.121 6.0625 24.8121C6.0625 24.5243 6.17833 24.2751 6.40998 24.0645C6.64164 23.8539 6.947 23.7486 7.32608 23.7486C7.64197 23.7486 7.88416 23.8293 8.05263 23.9908C8.22111 24.1522 8.30535 24.3558 8.30535 24.6015C8.30535 24.8261 8.2527 24.9911 8.1474 25.0964C8.0421 25.2087 7.98945 25.2824 7.98945 25.3175L8.0421 25.3912C8.08422 25.4263 8.13336 25.4439 8.18952 25.4439C8.40012 25.4439 8.57912 25.3772 8.72654 25.2438C9.09859 24.9139 9.37588 24.5137 9.5584 24.0434C9.68475 23.7205 9.92694 22.8676 10.285 21.4847L12.433 13.0713H10.9694L11.3169 11.8394C11.8434 11.8464 12.2259 11.7797 12.4646 11.6393C12.7033 11.4989 12.956 11.183 13.2228 10.6916C13.995 9.26657 14.8093 8.24518 15.6657 7.62743C16.5221 7.00968 17.4768 6.70081 18.5298 6.70081C19.2037 6.70081 19.6916 6.83067 19.9934 7.09041C20.3023 7.35014 20.4567 7.6871 20.4567 8.10127C20.4567 8.4663 20.355 8.75763 20.1514 8.97524C19.9478 9.18584 19.6951 9.29114 19.3932 9.29114C19.1124 9.29114 18.8808 9.20339 18.6983 9.02789C18.5158 8.8524 18.4245 8.6418 18.4245 8.3961C18.4245 8.22061 18.4807 8.03458 18.593 7.83802C18.7123 7.64147 18.772 7.50809 18.772 7.43789C18.772 7.36067 18.7439 7.29749 18.6877 7.24836C18.6386 7.19922 18.5719 7.17465 18.4877 7.17465C18.0735 7.17465 17.6488 7.43087 17.2136 7.94332C16.4975 8.76465 15.9219 10.0633 15.4867 11.8394H17.0135L16.645 13.0713H15.1603Z" fill="#5A6E87"/>
<path d="M17.6769 12.1763L21.3518 11.5445C22.0187 12.5905 22.489 13.7417 22.7628 14.9983C23.4507 13.9804 23.9702 13.2679 24.3212 12.8607C24.7915 12.3132 25.1776 11.9587 25.4795 11.7972C25.7883 11.6288 26.1148 11.5445 26.4587 11.5445C26.8448 11.5445 27.1397 11.6498 27.3432 11.8604C27.5538 12.071 27.6591 12.3553 27.6591 12.7133C27.6591 13.0503 27.5538 13.3276 27.3432 13.5452C27.1397 13.7558 26.8834 13.8611 26.5746 13.8611C26.3499 13.8611 26.0902 13.8225 25.7954 13.7452C25.5075 13.661 25.3075 13.6189 25.1952 13.6189C24.9003 13.6189 24.6195 13.7242 24.3528 13.9348C23.9877 14.2226 23.5385 14.8368 23.005 15.7775C23.6017 17.8835 24.079 19.1681 24.437 19.6314C24.6476 19.9052 24.8617 20.0421 25.0793 20.0421C25.2618 20.0421 25.4198 19.9964 25.5532 19.9052C25.7568 19.7578 26.0691 19.3892 26.4903 18.7996L26.8694 19.0207C26.2517 20.0175 25.6479 20.7195 25.0583 21.1266C24.609 21.4425 24.1667 21.6005 23.7315 21.6005C23.2822 21.6005 22.9067 21.5022 22.6048 21.3056C22.31 21.1021 22.0467 20.7756 21.8151 20.3264C21.5834 19.8701 21.3097 19.1435 20.9938 18.1467C20.1724 19.1927 19.5266 19.9578 19.0563 20.4422C18.593 20.9196 18.2069 21.2319 17.898 21.3794C17.5891 21.5268 17.2592 21.6005 16.9082 21.6005C16.5432 21.6005 16.2554 21.4952 16.0448 21.2846C15.8271 21.074 15.7183 20.8002 15.7183 20.4633C15.7183 20.1053 15.8342 19.8104 16.0658 19.5788C16.2975 19.3471 16.5923 19.2313 16.9503 19.2313C17.1399 19.2313 17.354 19.2874 17.5926 19.3998C17.9436 19.5682 18.1963 19.6525 18.3508 19.6525C18.5544 19.6525 18.7369 19.6104 18.8983 19.5261C19.1089 19.4208 19.3757 19.1927 19.6986 18.8417C19.8952 18.6241 20.2567 18.1607 20.7832 17.4517C20.1093 14.9527 19.5828 13.4574 19.2037 12.966C18.965 12.6501 18.6632 12.4922 18.2981 12.4922C18.1086 12.4922 17.8769 12.5203 17.6032 12.5764L17.6769 12.1763Z" fill="#5A6E87"/>
</svg>
