<svg width="24" height="24" viewBox="0 0 24 24" fill="none" xmlns="http://www.w3.org/2000/svg">
<path d="M9.61016 6.24396C9.61016 5.85736 9.29676 5.54396 8.91016 5.54396C8.52356 5.54396 8.21016 5.85736 8.21016 6.24396H9.61016ZM17.6102 6.24396C17.6102 5.85736 17.2968 5.54396 16.9102 5.54396C16.5236 5.54396 16.2102 5.85736 16.2102 6.24396H17.6102ZM16.2102 6.06214C16.2102 6.03949 16.2243 6.08455 16.1092 6.19593C15.9919 6.30931 15.7857 6.44366 15.4735 6.57135C14.8527 6.82531 13.9468 6.99851 12.9102 6.99851V8.39851C14.0826 8.39851 15.1767 8.20539 16.0036 7.86711C16.4154 7.69867 16.7949 7.48042 17.0825 7.20225C17.3721 6.92208 17.6102 6.53667 17.6102 6.06214H16.2102ZM12.9102 6.99851C11.8735 6.99851 10.9676 6.82531 10.3468 6.57135C10.0347 6.44366 9.82837 6.30931 9.71115 6.19593C9.59599 6.08455 9.61016 6.03949 9.61016 6.06214H8.21016C8.21016 6.53667 8.44818 6.92208 8.73784 7.20225C9.02545 7.48042 9.40495 7.69867 9.81669 7.86711C10.6436 8.20539 11.7377 8.39851 12.9102 8.39851V6.99851ZM9.61016 6.06214C9.61016 6.0848 9.59599 6.03974 9.71115 5.92836C9.82837 5.81498 10.0347 5.68063 10.3468 5.55294C10.9676 5.29898 11.8735 5.12578 12.9102 5.12578V3.72578C11.7377 3.72578 10.6436 3.9189 9.81669 4.25718C9.40495 4.42562 9.02545 4.64387 8.73784 4.92204C8.44818 5.2022 8.21016 5.58762 8.21016 6.06214H9.61016ZM12.9102 5.12578C13.9468 5.12578 14.8527 5.29898 15.4735 5.55294C15.7857 5.68063 15.9919 5.81498 16.1092 5.92836C16.2243 6.03974 16.2102 6.0848 16.2102 6.06214H17.6102C17.6102 5.58762 17.3721 5.2022 17.0825 4.92204C16.7949 4.64387 16.4154 4.42562 16.0036 4.25718C15.1767 3.9189 14.0826 3.72578 12.9102 3.72578V5.12578ZM16.2102 8.06214C16.2102 7.9822 16.2569 7.99657 16.1395 8.09752C16.0243 8.19652 15.8167 8.3174 15.4994 8.43281C14.8704 8.66153 13.9551 8.81669 12.9102 8.81669V10.2167C14.0744 10.2167 15.1591 10.0462 15.9778 9.74852C16.3843 9.60071 16.7625 9.40816 17.0522 9.15912C17.3396 8.91204 17.6102 8.54375 17.6102 8.06214H16.2102ZM12.9102 8.81669C11.8653 8.81669 10.9499 8.66153 10.3209 8.43281C10.0036 8.3174 9.796 8.19652 9.68084 8.09752C9.56342 7.99657 9.61016 7.9822 9.61016 8.06214H8.21016C8.21016 8.54375 8.48075 8.91204 8.76815 9.15912C9.05782 9.40816 9.43602 9.60071 9.84251 9.74852C10.6612 10.0462 11.7459 10.2167 12.9102 10.2167V8.81669ZM16.2102 9.88033C16.2102 9.80039 16.2569 9.81475 16.1395 9.9157C16.0243 10.0147 15.8167 10.1356 15.4994 10.251C14.8704 10.4797 13.9551 10.6349 12.9102 10.6349V12.0349C14.0744 12.0349 15.1591 11.8644 15.9778 11.5667C16.3843 11.4189 16.7625 11.2263 17.0522 10.9773C17.3396 10.7302 17.6102 10.3619 17.6102 9.88033H16.2102ZM12.9102 10.6349C11.8653 10.6349 10.9499 10.4797 10.3209 10.251C10.0036 10.1356 9.796 10.0147 9.68084 9.9157C9.56342 9.81475 9.61016 9.80039 9.61016 9.88033H8.21016C8.21016 10.3619 8.48075 10.7302 8.76815 10.9773C9.05782 11.2263 9.43602 11.4189 9.84251 11.5667C10.6612 11.8644 11.7459 12.0349 12.9102 12.0349V10.6349ZM16.2102 11.6985C16.2102 11.6186 16.2569 11.6329 16.1395 11.7339C16.0243 11.8329 15.8167 11.9538 15.4994 12.0692C14.8704 12.2979 13.9551 12.4531 12.9102 12.4531V13.8531C14.0744 13.8531 15.1591 13.6826 15.9778 13.3849C16.3843 13.2371 16.7625 13.0445 17.0522 12.7955C17.3396 12.5484 17.6102 12.1801 17.6102 11.6985H16.2102ZM12.9102 12.4531C11.8653 12.4531 10.9499 12.2979 10.3209 12.0692C10.0036 11.9538 9.796 11.8329 9.68084 11.7339C9.56342 11.6329 9.61016 11.6186 9.61016 11.6985H8.21016C8.21016 12.1801 8.48075 12.5484 8.76815 12.7955C9.05782 13.0445 9.43602 13.2371 9.84251 13.3849C10.6612 13.6826 11.7459 13.8531 12.9102 13.8531V12.4531ZM9.61016 11.6985V6.24396H8.21016V11.6985H9.61016ZM17.6102 11.6985V6.24396H16.2102V11.6985H17.6102Z" fill="#5A6E87"/>
<path d="M20.2151 22.067V22.867C20.4875 22.867 20.7411 22.7284 20.8883 22.4992C21.0355 22.27 21.0559 21.9816 20.9425 21.734L20.2151 22.067ZM20.2151 1.93311H21.0151C21.0151 1.72093 20.9308 1.51745 20.7808 1.36742C20.6307 1.21739 20.4273 1.13311 20.2151 1.13311L20.2151 1.93311ZM20.2151 16.2896L20.9334 16.6418L21.0151 16.4752V16.2896H20.2151ZM7.78516 1.93311L7.78516 1.13311L7.78516 1.93311ZM20.143 21.9095L20.8703 21.5764L20.8703 21.5764L20.143 21.9095ZM7.78516 22.867H20.2151V21.267H7.78516V22.867ZM2.98516 6.25462V17.7455H4.58516V6.25462H2.98516ZM20.2151 1.13311L7.78516 1.13311L7.78516 2.73311L20.2151 2.73311L20.2151 1.13311ZM20.9425 21.734L20.8703 21.5764L19.4156 22.2425L19.4877 22.4L20.9425 21.734ZM4.58516 6.25462C4.58516 4.25038 6.07496 2.73311 7.78516 2.73311L7.78516 1.13311C5.07708 1.13311 2.98516 3.48545 2.98516 6.25462H4.58516ZM20.8703 21.5764C20.1565 20.0173 20.1804 18.1777 20.9334 16.6418L19.4968 15.9374C18.5321 17.9052 18.5023 20.2478 19.4156 22.2425L20.8703 21.5764ZM7.78516 21.267C6.07496 21.267 4.58516 19.7497 4.58516 17.7455H2.98516C2.98516 20.5147 5.07708 22.867 7.78516 22.867V21.267ZM5.14741 19.6985V19.0812H3.54741V19.6985H5.14741ZM7.34741 16.6401H20.1663V15.0401H7.34741V16.6401ZM5.14741 19.0812C5.14741 17.6736 6.1895 16.6401 7.34741 16.6401V15.0401C5.19161 15.0401 3.54741 16.9087 3.54741 19.0812H5.14741ZM21.0151 16.2896V1.93311H19.4151V16.2896H21.0151Z" fill="#5A6E87"/>
</svg>
