<svg width="24" height="24" viewBox="0 0 24 24" fill="none" xmlns="http://www.w3.org/2000/svg">
<path d="M8.57636 13.1545C8.40813 13.533 8.5786 13.9762 8.95711 14.1445C9.33563 14.3127 9.77885 14.1422 9.94708 13.7637L8.57636 13.1545ZM12.5939 5.96181L13.2792 5.65721C13.1588 5.38636 12.8902 5.21181 12.5939 5.21181C12.2975 5.21181 12.0289 5.38636 11.9085 5.65721L12.5939 5.96181ZM15.2406 13.7637C15.4089 14.1422 15.8521 14.3127 16.2306 14.1445C16.6091 13.9762 16.7796 13.533 16.6113 13.1545L15.2406 13.7637ZM9.93254 10.2081C9.7473 9.8376 9.29679 9.68743 8.92631 9.87267C8.55582 10.0579 8.40566 10.5084 8.5909 10.8789L9.93254 10.2081ZM16.5968 10.8789C16.782 10.5084 16.6319 10.0579 16.2614 9.87267C15.8909 9.68743 15.4404 9.8376 15.2552 10.2081L16.5968 10.8789ZM13.3406 4.09644C13.3406 3.68222 13.0048 3.34644 12.5906 3.34644C12.1764 3.34644 11.8406 3.68222 11.8406 4.09644H13.3406ZM11.8406 5.7625C11.8406 6.17671 12.1764 6.5125 12.5906 6.5125C13.0048 6.5125 13.3406 6.17671 13.3406 5.7625H11.8406ZM13.4269 6.61012C13.8411 6.61012 14.1769 6.27434 14.1769 5.86012C14.1769 5.44591 13.8411 5.11012 13.4269 5.11012L13.4269 6.61012ZM11.7608 5.11012C11.3466 5.11012 11.0108 5.44591 11.0108 5.86012C11.0108 6.27434 11.3466 6.61012 11.7608 6.61012L11.7608 5.11012ZM9.94708 13.7637L13.2792 6.26641L11.9085 5.65721L8.57636 13.1545L9.94708 13.7637ZM11.9085 6.26641L15.2406 13.7637L16.6113 13.1545L13.2792 5.65721L11.9085 6.26641ZM9.26172 10.5435C8.5909 10.8789 8.5911 10.8793 8.5913 10.8797C8.59137 10.8799 8.59158 10.8803 8.59173 10.8806C8.59202 10.8811 8.59232 10.8817 8.59264 10.8824C8.59328 10.8836 8.59397 10.885 8.59472 10.8865C8.59622 10.8894 8.59795 10.8927 8.59992 10.8965C8.60384 10.904 8.6087 10.9131 8.61452 10.9236C8.62616 10.9448 8.64168 10.972 8.6613 11.0043C8.70052 11.0689 8.75641 11.1545 8.83093 11.2538C8.97971 11.4522 9.20484 11.7084 9.5221 11.9622C10.1661 12.4774 11.1621 12.9596 12.5939 12.9596V11.4596C11.5265 11.4596 10.8564 11.1087 10.4591 10.7909C10.2558 10.6282 10.1164 10.4678 10.0309 10.3538C9.9883 10.297 9.95959 10.2524 9.94348 10.2258C9.93545 10.2126 9.93063 10.204 9.92885 10.2008C9.92796 10.1991 9.92783 10.1989 9.92845 10.2001C9.92876 10.2007 9.92926 10.2016 9.92994 10.2029C9.93028 10.2036 9.93067 10.2044 9.9311 10.2052C9.93132 10.2057 9.93155 10.2061 9.93179 10.2066C9.93191 10.2068 9.9321 10.2072 9.93215 10.2073C9.93235 10.2077 9.93254 10.2081 9.26172 10.5435ZM12.5939 12.9596C14.0256 12.9596 15.0216 12.4774 15.6656 11.9622C15.9829 11.7084 16.208 11.4522 16.3568 11.2538C16.4313 11.1545 16.4872 11.0689 16.5264 11.0043C16.546 10.972 16.5615 10.9448 16.5732 10.9236C16.579 10.9131 16.5839 10.904 16.5878 10.8965C16.5897 10.8927 16.5915 10.8894 16.593 10.8865C16.5937 10.885 16.5944 10.8836 16.5951 10.8824C16.5954 10.8817 16.5957 10.8811 16.596 10.8806C16.5961 10.8803 16.5963 10.8799 16.5964 10.8797C16.5966 10.8793 16.5968 10.8789 15.926 10.5435C15.2552 10.2081 15.2554 10.2077 15.2555 10.2073C15.2556 10.2072 15.2558 10.2068 15.2559 10.2066C15.2562 10.2061 15.2564 10.2057 15.2566 10.2052C15.257 10.2044 15.2574 10.2036 15.2578 10.2029C15.2584 10.2016 15.2589 10.2007 15.2592 10.2001C15.2599 10.1989 15.2597 10.1991 15.2589 10.2008C15.2571 10.204 15.2522 10.2126 15.2442 10.2258C15.2281 10.2524 15.1994 10.297 15.1568 10.3538C15.0713 10.4678 14.9319 10.6282 14.7286 10.7909C14.3313 11.1087 13.6612 11.4596 12.5939 11.4596V12.9596ZM11.8406 4.09644V5.7625H13.3406V4.09644H11.8406ZM13.4269 5.11012L11.7608 5.11012L11.7608 6.61012L13.4269 6.61012L13.4269 5.11012Z" fill="#5A6E87"/>
<path d="M20.2151 22.0294V22.8294C20.4875 22.8294 20.7411 22.6908 20.8883 22.4616C21.0355 22.2324 21.0559 21.944 20.9425 21.6964L20.2151 22.0294ZM20.2151 1.89551H21.0151C21.0151 1.68333 20.9308 1.47985 20.7808 1.32982C20.6307 1.17979 20.4273 1.09551 20.2151 1.09551L20.2151 1.89551ZM20.2151 16.252L20.9334 16.6042L21.0151 16.4376V16.252H20.2151ZM7.78516 1.89551L7.78516 1.09551L7.78516 1.89551ZM20.143 21.8719L20.8703 21.5388L20.8703 21.5388L20.143 21.8719ZM7.78516 22.8294H20.2151V21.2294H7.78516V22.8294ZM2.98516 6.21702V17.7079H4.58516V6.21702H2.98516ZM20.2151 1.09551L7.78516 1.09551L7.78516 2.69551L20.2151 2.69551L20.2151 1.09551ZM20.9425 21.6964L20.8703 21.5388L19.4156 22.2049L19.4877 22.3625L20.9425 21.6964ZM4.58516 6.21702C4.58516 4.21278 6.07496 2.69551 7.78516 2.69551L7.78516 1.09551C5.07708 1.09551 2.98516 3.44785 2.98516 6.21702H4.58516ZM20.8703 21.5388C20.1565 19.9797 20.1804 18.1401 20.9334 16.6042L19.4968 15.8998C18.5321 17.8676 18.5023 20.2102 19.4156 22.2049L20.8703 21.5388ZM7.78516 21.2294C6.07496 21.2294 4.58516 19.7121 4.58516 17.7079H2.98516C2.98516 20.4771 5.07708 22.8294 7.78516 22.8294V21.2294ZM5.14741 19.661V19.0436H3.54741V19.661H5.14741ZM7.34741 16.6025H20.1663V15.0025H7.34741V16.6025ZM5.14741 19.0436C5.14741 17.636 6.1895 16.6025 7.34741 16.6025V15.0025C5.19161 15.0025 3.54741 16.8711 3.54741 19.0436H5.14741ZM21.0151 16.252V1.89551H19.4151V16.252H21.0151Z" fill="#5A6E87"/>
</svg>
