<svg width="24" height="24" viewBox="0 0 24 24" fill="none" xmlns="http://www.w3.org/2000/svg">
<path d="M12.992 5.90685C12.7147 5.90685 12.48 5.81085 12.288 5.61885C12.096 5.42685 12 5.19219 12 4.91485C12 4.63752 12.096 4.40285 12.288 4.21085C12.48 4.01885 12.7147 3.92285 12.992 3.92285C13.2587 3.92285 13.4827 4.01885 13.664 4.21085C13.856 4.40285 13.952 4.63752 13.952 4.91485C13.952 5.19219 13.856 5.42685 13.664 5.61885C13.4827 5.81085 13.2587 5.90685 12.992 5.90685ZM12.968 7.33085C13.3701 7.33085 13.696 7.65679 13.696 8.05885V13.3709C13.696 13.7729 13.3701 14.0989 12.968 14.0989V14.0989C12.5659 14.0989 12.24 13.7729 12.24 13.3709V8.05885C12.24 7.65679 12.5659 7.33085 12.968 7.33085V7.33085Z" fill="#5A6E87"/>
<path d="M20.2151 22.067V22.867C20.4875 22.867 20.7411 22.7284 20.8883 22.4992C21.0355 22.27 21.0559 21.9816 20.9425 21.734L20.2151 22.067ZM20.2151 1.93311H21.0151C21.0151 1.72093 20.9308 1.51745 20.7808 1.36742C20.6307 1.21739 20.4273 1.13311 20.2151 1.13311L20.2151 1.93311ZM20.2151 16.2896L20.9334 16.6418L21.0151 16.4752V16.2896H20.2151ZM7.78516 1.93311L7.78516 1.13311L7.78516 1.93311ZM20.143 21.9095L20.8703 21.5764L20.8703 21.5764L20.143 21.9095ZM7.78516 22.867H20.2151V21.267H7.78516V22.867ZM2.98516 6.25462V17.7455H4.58516V6.25462H2.98516ZM20.2151 1.13311L7.78516 1.13311L7.78516 2.73311L20.2151 2.73311L20.2151 1.13311ZM20.9425 21.734L20.8703 21.5764L19.4156 22.2425L19.4877 22.4L20.9425 21.734ZM4.58516 6.25462C4.58516 4.25038 6.07496 2.73311 7.78516 2.73311L7.78516 1.13311C5.07708 1.13311 2.98516 3.48545 2.98516 6.25462H4.58516ZM20.8703 21.5764C20.1565 20.0173 20.1804 18.1777 20.9334 16.6418L19.4968 15.9374C18.5321 17.9052 18.5023 20.2478 19.4156 22.2425L20.8703 21.5764ZM7.78516 21.267C6.07496 21.267 4.58516 19.7497 4.58516 17.7455H2.98516C2.98516 20.5147 5.07708 22.867 7.78516 22.867V21.267ZM5.14741 19.6985V19.0812H3.54741V19.6985H5.14741ZM7.34741 16.6401H20.1663V15.0401H7.34741V16.6401ZM5.14741 19.0812C5.14741 17.6736 6.1895 16.6401 7.34741 16.6401V15.0401C5.19161 15.0401 3.54741 16.9087 3.54741 19.0812H5.14741ZM21.0151 16.2896V1.93311H19.4151V16.2896H21.0151Z" fill="#5A6E87"/>
</svg>
