<svg width="24" height="24" viewBox="0 0 24 24" fill="none" xmlns="http://www.w3.org/2000/svg">
<path d="M17.7461 8.78125C17.7461 11.5427 15.5075 13.7812 12.7461 13.7812M17.7461 8.78125C17.7461 6.01983 15.5075 3.78125 12.7461 3.78125M17.7461 8.78125C17.7461 10.162 15.5075 11.2812 12.7461 11.2812C9.98467 11.2812 7.74609 10.162 7.74609 8.78125M17.7461 8.78125C17.7461 7.40054 15.5075 6.28125 12.7461 6.28125C9.98467 6.28125 7.74609 7.40054 7.74609 8.78125M12.7461 13.7812C9.98467 13.7812 7.74609 11.5427 7.74609 8.78125M12.7461 13.7812C14.1268 13.7812 15.2461 11.5427 15.2461 8.78125C15.2461 6.01983 14.1268 3.78125 12.7461 3.78125M12.7461 13.7812C11.3654 13.7812 10.2461 11.5427 10.2461 8.78125C10.2461 6.01983 11.3654 3.78125 12.7461 3.78125M7.74609 8.78125C7.74609 6.01983 9.98467 3.78125 12.7461 3.78125" stroke="#5A6E87"/>
<path d="M20.2151 22.0294V22.8294C20.4875 22.8294 20.7411 22.6908 20.8883 22.4616C21.0355 22.2324 21.0559 21.944 20.9425 21.6964L20.2151 22.0294ZM20.2151 1.89551H21.0151C21.0151 1.68333 20.9308 1.47985 20.7808 1.32982C20.6307 1.17979 20.4273 1.09551 20.2151 1.09551L20.2151 1.89551ZM20.2151 16.252L20.9334 16.6042L21.0151 16.4376V16.252H20.2151ZM7.78516 1.89551L7.78516 1.09551L7.78516 1.89551ZM20.143 21.8719L20.8703 21.5388L20.8703 21.5388L20.143 21.8719ZM7.78516 22.8294H20.2151V21.2294H7.78516V22.8294ZM2.98516 6.21702V17.7079H4.58516V6.21702H2.98516ZM20.2151 1.09551L7.78516 1.09551L7.78516 2.69551L20.2151 2.69551L20.2151 1.09551ZM20.9425 21.6964L20.8703 21.5388L19.4156 22.2049L19.4877 22.3625L20.9425 21.6964ZM4.58516 6.21702C4.58516 4.21278 6.07496 2.69551 7.78516 2.69551L7.78516 1.09551C5.07708 1.09551 2.98516 3.44785 2.98516 6.21702H4.58516ZM20.8703 21.5388C20.1565 19.9797 20.1804 18.1401 20.9334 16.6042L19.4968 15.8998C18.5321 17.8676 18.5023 20.2102 19.4156 22.2049L20.8703 21.5388ZM7.78516 21.2294C6.07496 21.2294 4.58516 19.7121 4.58516 17.7079H2.98516C2.98516 20.4771 5.07708 22.8294 7.78516 22.8294V21.2294ZM5.14741 19.661V19.0436H3.54741V19.661H5.14741ZM7.34741 16.6025H20.1663V15.0025H7.34741V16.6025ZM5.14741 19.0436C5.14741 17.636 6.1895 16.6025 7.34741 16.6025V15.0025C5.19161 15.0025 3.54741 16.8711 3.54741 19.0436H5.14741ZM21.0151 16.252V1.89551H19.4151V16.252H21.0151Z" fill="#5A6E87"/>
</svg>
