<svg width="91" height="24" viewBox="0 0 91 24" fill="none" xmlns="http://www.w3.org/2000/svg">
<path d="M0.25 17.8708H3.1384V12.3656H7.59338C10.8489 12.3656 13.2478 9.80783 13.2478 6.3488C13.2478 2.88977 10.8489 0.332031 7.59338 0.332031H0.25V17.8708ZM7.22621 3.20644C9.15997 3.20644 10.3839 4.42441 10.3839 6.3488C10.3839 8.24883 9.13549 9.49116 7.20173 9.49116H3.1384V3.20644H7.22621Z" fill="#F3F4F6"/>
<path d="M17.3054 17.8708V11.2938C17.3054 9.44244 18.823 8.15139 20.6589 8.15139C20.7568 8.15139 20.8792 8.15139 20.9771 8.17575V5.4475C19.4105 5.4475 18.1376 6.1052 17.3054 7.07958V5.69109H14.417V17.8708H17.3054Z" fill="#F3F4F6"/>
<path d="M26.9824 5.4475C23.482 5.4475 20.6181 8.27319 20.6181 11.7809C20.6181 15.2643 23.482 18.1144 26.9824 18.1144C30.5072 18.1144 33.3467 15.2643 33.3467 11.7809C33.3467 8.27319 30.5072 5.4475 26.9824 5.4475ZM23.5065 11.7809C23.5065 9.88091 25.0731 8.32191 26.9824 8.32191C28.8917 8.32191 30.4583 9.88091 30.4583 11.7809C30.4583 13.681 28.8917 15.24 26.9824 15.24C25.0731 15.24 23.5065 13.681 23.5065 11.7809Z" fill="#F3F4F6"/>
<path d="M33.5933 16.0438C35.062 17.3836 36.8979 18.1144 38.9295 18.1144C41.8914 18.1144 44.0699 16.5067 44.0699 14.3143C44.0699 11.6835 41.8914 10.8309 39.468 10.2707C38.1462 9.95398 36.9223 9.68603 36.9223 9.02833C36.9223 8.49242 37.5343 8.05395 38.8071 8.05395C39.9821 8.05395 41.206 8.41934 42.0872 9.17448L43.6782 7.22573C42.4788 6.15392 40.7164 5.4475 38.8071 5.4475C36.0411 5.4475 34.0095 6.93342 34.0095 9.00397C34.0095 11.6104 36.7265 12.195 38.7337 12.7553C39.6394 12.9989 41.1815 13.3156 41.1815 14.3387C41.1815 14.9964 40.2269 15.5079 39.003 15.5079C37.6322 15.5079 36.2614 14.8989 35.3068 14.0707L33.5933 16.0438Z" fill="#F3F4F6"/>
<path d="M45.0412 23.6683H47.9296V16.3361C48.7373 17.3105 50.1571 18.1144 51.6992 18.1144C55.224 18.1144 57.7697 15.2643 57.7697 11.7809C57.7697 8.27319 55.224 5.4475 51.6992 5.4475C50.1571 5.4475 48.7373 6.25136 47.9296 7.25009V5.69109H45.0412V23.6683ZM51.4054 8.32191C53.3147 8.32191 54.8813 9.88091 54.8813 11.7809C54.8813 13.681 53.3147 15.24 51.4054 15.24C49.4962 15.24 47.9296 13.681 47.9296 11.7809C47.9296 9.88091 49.4962 8.32191 51.4054 8.32191Z" fill="#F3F4F6"/>
<path d="M58.3658 11.7809C58.3658 15.3618 61.1807 18.1144 64.8769 18.1144C66.8841 18.1144 68.5975 17.408 69.7725 16.1169L67.9366 14.29C67.2023 15.0938 66.0763 15.5079 64.9014 15.5079C63.09 15.5079 61.7192 14.5823 61.2297 13.072H70.3355C70.3844 12.5848 70.4579 12.0733 70.4579 11.6104C70.4579 7.98087 68.0835 5.4475 64.6076 5.4475C61.0583 5.4475 58.3658 8.20011 58.3658 11.7809ZM64.5587 8.02959C66.1987 8.02959 67.496 9.10141 67.7408 10.8309H61.1807C61.4255 9.15013 62.8697 8.02959 64.5587 8.02959Z" fill="#F3F4F6"/>
<path d="M77.4002 18.1144C79.2116 18.1144 80.8516 17.3592 82.0021 16.1413L79.9704 14.0951C79.334 14.8015 78.4038 15.24 77.4002 15.24C75.4909 15.24 73.9244 13.681 73.9244 11.7809C73.9244 9.88091 75.4909 8.32191 77.4002 8.32191C78.4038 8.32191 79.334 8.76038 79.9704 9.44244L82.0021 7.42061C80.8516 6.20264 79.2116 5.4475 77.4002 5.4475C73.8999 5.4475 71.036 8.27319 71.036 11.7809C71.036 15.2643 73.8999 18.1144 77.4002 18.1144Z" fill="#F3F4F6"/>
<path d="M82.0009 5.69109V8.5655H84.2529V13.7784C84.2529 16.8477 85.4278 18.1144 88.2183 18.1144C88.8792 18.1144 89.687 18.0169 90.25 17.8708V15.1425C89.6381 15.2643 89.1485 15.3374 88.61 15.3374C87.435 15.3374 87.1413 14.8502 87.1413 12.9258V8.5655H90.25V5.69109H87.1413V2.42694H84.2529V4.64364C84.2529 5.27698 83.8123 5.69109 83.1759 5.69109H82.0009Z" fill="#F3F4F6"/>
</svg>
