<svg width="121" height="73" viewBox="0 0 121 73" fill="none" xmlns="http://www.w3.org/2000/svg">
<path d="M31.8136 30.2088C31.8136 29.1042 32.7091 28.2087 33.8137 28.2087H42.646C43.7506 28.2087 44.646 29.1042 44.646 30.2088V39.0421C44.646 40.1467 43.7506 41.0422 42.646 41.0422H33.8137C32.7091 41.0422 31.8136 40.1467 31.8136 39.0421V30.2088Z" stroke="#5A6E87" stroke-width="2.00008" stroke-linecap="round"/>
<path d="M27.9444 34.39C27.9444 33.2854 28.8399 32.3899 29.9445 32.3899H38.7768C39.8814 32.3899 40.7769 33.2854 40.7769 34.39V43.2233C40.7769 44.3279 39.8814 45.2233 38.7768 45.2233H29.9445C28.8399 45.2233 27.9444 44.3279 27.9444 43.2233V34.39Z" stroke="#5A6E87" stroke-width="2.00008" stroke-linecap="round"/>
<path d="M23.6953 26.1909C23.6953 25.0863 24.5908 24.1908 25.6954 24.1908H46.4955C47.6001 24.1908 48.4956 25.0863 48.4956 26.1909V46.993C48.4956 48.0976 47.6001 48.993 46.4955 48.993H25.6954C24.5908 48.993 23.6953 48.0976 23.6953 46.993V26.1909Z" stroke="#5A6E87" stroke-width="2.00008" stroke-linecap="round"/>
<path d="M84.8848 27.8042C84.8848 26.9758 85.5564 26.3042 86.3848 26.3042H93.009C93.8375 26.3042 94.5091 26.9758 94.5091 27.8042V34.4292C94.5091 35.2577 93.8375 35.9293 93.009 35.9293H86.3848C85.5564 35.9293 84.8848 35.2577 84.8848 34.4292V27.8042Z" stroke="#5A6E87" stroke-width="1.50006" stroke-linecap="round"/>
<path d="M81.9814 30.9401C81.9814 30.1116 82.653 29.44 83.4815 29.44H90.1057C90.9342 29.44 91.6058 30.1116 91.6058 30.9401V37.5651C91.6058 38.3935 90.9342 39.0651 90.1057 39.0651H83.4815C82.653 39.0651 81.9814 38.3935 81.9814 37.5651V30.9401Z" stroke="#5A6E87" stroke-width="1.50006" stroke-linecap="round"/>
<path d="M78.7969 24.7908C78.7969 23.9623 79.4685 23.2907 80.2969 23.2907H95.897C96.7255 23.2907 97.3971 23.9623 97.3971 24.7908V40.3923C97.3971 41.2208 96.7255 41.8924 95.897 41.8924H80.2969C79.4685 41.8924 78.7969 41.2208 78.7969 40.3923V24.7908Z" stroke="#5A6E87" stroke-width="1.50006" stroke-linecap="round"/>
<rect x="0.601562" y="1.09058" width="119" height="71.0025" rx="4.5" stroke="#9747FF" stroke-dasharray="10 5"/>
</svg>
