<svg width="22" height="23" viewBox="0 0 22 23" fill="none" xmlns="http://www.w3.org/2000/svg">
<path d="M8.3677 10.1222C8.17056 9.80355 7.75241 9.70504 7.43375 9.90218C7.11508 10.0993 7.01657 10.5175 7.21371 10.8361L8.3677 10.1222ZM9.68954 13.5485L9.11255 13.9055C9.222 14.0824 9.40655 14.1993 9.61326 14.2227C9.81997 14.2461 10.026 14.1733 10.1722 14.0254L9.68954 13.5485ZM14.2155 9.93289C14.4788 9.66632 14.4762 9.23674 14.2097 8.97338C13.9431 8.71003 13.5135 8.71262 13.2502 8.97919L14.2155 9.93289ZM7.02488 3.21431H18.1498V1.85734H7.02488V3.21431ZM18.8283 3.89279V15.0193H20.1853V3.89279H18.8283ZM18.1498 15.6978H7.02488V17.0547H18.1498V15.6978ZM6.3464 15.0193V3.89279H4.98943V15.0193H6.3464ZM7.02488 15.6978C6.65016 15.6978 6.3464 15.394 6.3464 15.0193H4.98943C4.98943 16.1434 5.90073 17.0547 7.02488 17.0547V15.6978ZM18.8283 15.0193C18.8283 15.394 18.5246 15.6978 18.1498 15.6978V17.0547C19.274 17.0547 20.1853 16.1434 20.1853 15.0193H18.8283ZM18.1498 3.21431C18.5245 3.21431 18.8283 3.51808 18.8283 3.89279H20.1853C20.1853 2.76865 19.274 1.85734 18.1498 1.85734V3.21431ZM7.02488 1.85734C5.90073 1.85734 4.98943 2.76864 4.98943 3.89279H6.3464C6.3464 3.51808 6.65016 3.21431 7.02488 3.21431V1.85734ZM3.72806 6.75762H14.853V5.40065H3.72806V6.75762ZM15.5315 7.4361V18.5626H16.8885V7.4361H15.5315ZM14.853 19.2411H3.72806V20.598H14.853V19.2411ZM3.04958 18.5626V7.4361H1.69261V18.5626H3.04958ZM3.72806 19.2411C3.35334 19.2411 3.04958 18.9373 3.04958 18.5626H1.69261C1.69261 19.6867 2.60391 20.598 3.72806 20.598V19.2411ZM15.5315 18.5626C15.5315 18.9373 15.2277 19.2411 14.853 19.2411V20.598C15.9772 20.598 16.8885 19.6867 16.8885 18.5626H15.5315ZM14.853 6.75762C15.2277 6.75762 15.5315 7.06138 15.5315 7.4361H16.8885C16.8885 6.31196 15.9772 5.40065 14.853 5.40065V6.75762ZM3.72806 5.40065C2.60391 5.40065 1.69261 6.31195 1.69261 7.4361H3.04958C3.04958 7.06139 3.35334 6.75762 3.72806 6.75762V5.40065ZM7.21371 10.8361L9.11255 13.9055L10.2665 13.1915L8.3677 10.1222L7.21371 10.8361ZM10.1722 14.0254L14.2155 9.93289L13.2502 8.97919L9.20689 13.0716L10.1722 14.0254Z" fill="#5A6E87"/>
</svg>
