<svg width="22" height="22" viewBox="0 0 22 22" fill="none" xmlns="http://www.w3.org/2000/svg">
<path d="M8.03648 6.58609C8.03648 5.83666 8.64402 5.22913 9.39345 5.22913H15.3856C16.1351 5.22913 16.7426 5.83666 16.7426 6.58609V12.5792C16.7426 13.3287 16.1351 13.9362 15.3856 13.9362H9.39345C8.64401 13.9362 8.03648 13.3287 8.03648 12.5792V6.58609Z" stroke="#5A6E87" stroke-width="1.35697"/>
<path d="M5.41016 9.42301C5.41016 8.67357 6.01769 8.06604 6.76712 8.06604H12.7593C13.5087 8.06604 14.1163 8.67357 14.1163 9.42301V15.4161C14.1163 16.1656 13.5087 16.7731 12.7593 16.7731H6.76712C6.01769 16.7731 5.41016 16.1656 5.41016 15.4161V9.42301Z" stroke="#5A6E87" stroke-width="1.35697"/>
<path d="M2.52734 3.86008C2.52734 3.11065 3.13488 2.50311 3.88431 2.50311H17.996C18.7454 2.50311 19.353 3.11065 19.353 3.86008V17.9736C19.353 18.7231 18.7454 19.3306 17.996 19.3306H3.88431C3.13488 19.3306 2.52734 18.7231 2.52734 17.9736V3.86008Z" stroke="#5A6E87" stroke-width="1.35697" stroke-linecap="round" stroke-dasharray="1.36 2.04"/>
</svg>
