<svg width="33" height="33" viewBox="0 0 33 33" fill="none" xmlns="http://www.w3.org/2000/svg">
<g clip-path="url(#clip0_362_21839)">
<rect x="12.4609" y="12.1902" width="8.66667" height="8" fill="#BFDBFE"/>
<path d="M12.4557 12.1902V4.19019H3.78906V12.1902M12.4557 12.1902H3.78906M12.4557 12.1902V20.1902H3.78906V12.1902M3.79297 20.1902H12.4596V28.1902H3.79297V20.1902ZM12.457 4.19019H21.1237V12.1902H12.457V4.19019ZM12.4648 20.1902H21.1315V28.1902H12.4648V20.1902ZM21.1211 4.19019H29.7878V12.1902H21.1211V4.19019ZM21.125 12.1902H29.7917V20.1902H21.125V12.1902ZM21.1289 20.1902H29.7956V28.1902H21.1289V20.1902Z" stroke="#5A6E87"/>
</g>
<rect x="3.78906" y="4.19019" width="26" height="24" rx="2" stroke="#5A6E87" stroke-width="2"/>
<rect x="18.7891" y="18.1898" width="14" height="14.0004" rx="4" fill="white"/>
<path d="M21.168 24.9566H30.4143M23.7875 19.6433V22.614M27.9203 19.6433V22.614M22.168 29.5968H29.4143C29.9665 29.5968 30.4143 29.1491 30.4143 28.5968V22.5165C30.4143 21.9642 29.9665 21.5165 29.4143 21.5165H22.168C21.6157 21.5165 21.168 21.9642 21.168 22.5165V28.5968C21.168 29.1491 21.6157 29.5968 22.168 29.5968Z" stroke="#5A6E87" stroke-width="1.2" stroke-linecap="round"/>
<defs>
<clipPath id="clip0_362_21839">
<rect x="3.78906" y="4.19019" width="26" height="24" rx="2" fill="white"/>
</clipPath>
</defs>
</svg>
