<svg width="33" height="33" viewBox="0 0 33 33" fill="none" xmlns="http://www.w3.org/2000/svg">
<g clip-path="url(#clip0_362_21864)">
<rect x="12.0664" y="4.01245" width="8.66667" height="24" fill="#BFDBFE"/>
<path d="M12.0612 12.0125V4.01245H3.39453V12.0125M12.0612 12.0125H3.39453M12.0612 12.0125V20.0125H3.39453V12.0125M3.39844 20.0125H12.0651V28.0125H3.39844V20.0125ZM20.7266 4.01245H29.3932V12.0125H20.7266V4.01245ZM20.7305 12.0125H29.3971V20.0125H20.7305V12.0125ZM20.7344 20.0125H29.401V28.0125H20.7344V20.0125Z" stroke="#5A6E87"/>
<path d="M16.4221 20.3304L16.4221 11.6945M16.4221 11.6945L18.4988 14.4209M16.4221 11.6945L14.3047 14.4209" stroke="#5A6E87" stroke-width="1.6" stroke-linecap="round" stroke-linejoin="round"/>
</g>
<rect x="3.39453" y="4.01245" width="26" height="24" rx="2" stroke="#5A6E87" stroke-width="2"/>
<rect x="18.3945" y="18.1569" width="14" height="14.0004" rx="4" fill="white"/>
<path d="M22.666 22.8105L25.0518 22.4004C25.4847 23.0794 25.79 23.8268 25.9678 24.6426C26.4144 23.9818 26.7516 23.5192 26.9795 23.2549C27.2848 22.8994 27.5355 22.6693 27.7314 22.5645C27.932 22.4551 28.1439 22.4004 28.3672 22.4004C28.6178 22.4004 28.8092 22.4688 28.9414 22.6055C29.0781 22.7422 29.1465 22.9268 29.1465 23.1592C29.1465 23.3779 29.0781 23.5579 28.9414 23.6992C28.8092 23.8359 28.6429 23.9043 28.4424 23.9043C28.2965 23.9043 28.1279 23.8792 27.9365 23.8291C27.7497 23.7744 27.6198 23.7471 27.5469 23.7471C27.3555 23.7471 27.1732 23.8154 27 23.9521C26.763 24.139 26.4714 24.5378 26.125 25.1484C26.5124 26.5156 26.8223 27.3496 27.0547 27.6504C27.1914 27.8281 27.3304 27.917 27.4717 27.917C27.5902 27.917 27.6927 27.8874 27.7793 27.8281C27.9115 27.7324 28.1143 27.4932 28.3877 27.1104L28.6338 27.2539C28.2327 27.901 27.8408 28.3568 27.458 28.6211C27.1663 28.8262 26.8792 28.9287 26.5967 28.9287C26.305 28.9287 26.0612 28.8649 25.8652 28.7373C25.6738 28.6051 25.5029 28.3932 25.3525 28.1016C25.2021 27.8053 25.0244 27.3337 24.8193 26.6865C24.2861 27.3656 23.8669 27.8623 23.5615 28.1768C23.2607 28.4867 23.0101 28.6895 22.8096 28.7852C22.609 28.8809 22.3949 28.9287 22.167 28.9287C21.93 28.9287 21.7432 28.8604 21.6064 28.7236C21.4652 28.5869 21.3945 28.4092 21.3945 28.1904C21.3945 27.958 21.4697 27.7666 21.6201 27.6162C21.7705 27.4658 21.9619 27.3906 22.1943 27.3906C22.3174 27.3906 22.4564 27.4271 22.6113 27.5C22.8392 27.6094 23.0033 27.6641 23.1035 27.6641C23.2357 27.6641 23.3542 27.6367 23.459 27.582C23.5957 27.5137 23.7689 27.3656 23.9785 27.1377C24.1061 26.9964 24.3408 26.6956 24.6826 26.2354C24.2451 24.613 23.9033 23.6423 23.6572 23.3232C23.5023 23.1182 23.3063 23.0156 23.0693 23.0156C22.9463 23.0156 22.7959 23.0339 22.6182 23.0703L22.666 22.8105Z" fill="#5A6E87"/>
<line x1="22.418" y1="20.8855" x2="28.8984" y2="20.8855" stroke="#5A6E87" stroke-linecap="round"/>
<defs>
<clipPath id="clip0_362_21864">
<rect x="3.39453" y="4.01245" width="26" height="24" rx="2" fill="white"/>
</clipPath>
</defs>
</svg>
