<svg width="33" height="33" viewBox="0 0 33 33" fill="none" xmlns="http://www.w3.org/2000/svg">
<g clip-path="url(#clip0_362_21874)">
<rect x="12.0664" y="4.01245" width="8.66667" height="24" fill="#BFDBFE"/>
<path d="M12.0612 12.0125V4.01245H3.39453V12.0125M12.0612 12.0125H3.39453M12.0612 12.0125V20.0125H3.39453V12.0125M3.39844 20.0125H12.0651V28.0125H3.39844V20.0125ZM20.7266 4.01245H29.3932V12.0125H20.7266V4.01245ZM20.7305 12.0125H29.3971V20.0125H20.7305V12.0125ZM20.7344 20.0125H29.401V28.0125H20.7344V20.0125Z" stroke="#5A6E87"/>
<path d="M16.4221 11.6945L16.4221 20.3304M16.4221 20.3304L18.4988 17.604M16.4221 20.3304L14.3047 17.604" stroke="#5A6E87" stroke-width="1.6" stroke-linecap="round" stroke-linejoin="round"/>
</g>
<rect x="3.39453" y="4.01245" width="26" height="24" rx="2" stroke="#5A6E87" stroke-width="2"/>
<rect x="18.3945" y="18.0121" width="14" height="14.0004" rx="4" fill="white"/>
<path d="M22.666 22.6658L25.0518 22.2556C25.4847 22.9347 25.79 23.682 25.9678 24.4978C26.4144 23.837 26.7516 23.3744 26.9795 23.1101C27.2848 22.7546 27.5355 22.5245 27.7314 22.4197C27.932 22.3103 28.1439 22.2556 28.3672 22.2556C28.6178 22.2556 28.8092 22.324 28.9414 22.4607C29.0781 22.5974 29.1465 22.782 29.1465 23.0144C29.1465 23.2332 29.0781 23.4132 28.9414 23.5544C28.8092 23.6912 28.6429 23.7595 28.4424 23.7595C28.2965 23.7595 28.1279 23.7345 27.9365 23.6843C27.7497 23.6296 27.6198 23.6023 27.5469 23.6023C27.3555 23.6023 27.1732 23.6707 27 23.8074C26.763 23.9942 26.4714 24.393 26.125 25.0037C26.5124 26.3708 26.8223 27.2048 27.0547 27.5056C27.1914 27.6833 27.3304 27.7722 27.4717 27.7722C27.5902 27.7722 27.6927 27.7426 27.7793 27.6833C27.9115 27.5876 28.1143 27.3484 28.3877 26.9656L28.6338 27.1091C28.2327 27.7563 27.8408 28.212 27.458 28.4763C27.1663 28.6814 26.8792 28.7839 26.5967 28.7839C26.305 28.7839 26.0612 28.7201 25.8652 28.5925C25.6738 28.4604 25.5029 28.2485 25.3525 27.9568C25.2021 27.6606 25.0244 27.1889 24.8193 26.5417C24.2861 27.2208 23.8669 27.7175 23.5615 28.032C23.2607 28.3419 23.0101 28.5447 22.8096 28.6404C22.609 28.7361 22.3949 28.7839 22.167 28.7839C21.93 28.7839 21.7432 28.7156 21.6064 28.5789C21.4652 28.4421 21.3945 28.2644 21.3945 28.0457C21.3945 27.8132 21.4697 27.6218 21.6201 27.4714C21.7705 27.321 21.9619 27.2458 22.1943 27.2458C22.3174 27.2458 22.4564 27.2823 22.6113 27.3552C22.8392 27.4646 23.0033 27.5193 23.1035 27.5193C23.2357 27.5193 23.3542 27.4919 23.459 27.4373C23.5957 27.3689 23.7689 27.2208 23.9785 26.9929C24.1061 26.8516 24.3408 26.5509 24.6826 26.0906C24.2451 24.4682 23.9033 23.4975 23.6572 23.1785C23.5023 22.9734 23.3063 22.8708 23.0693 22.8708C22.9463 22.8708 22.7959 22.8891 22.6182 22.9255L22.666 22.6658Z" fill="#5A6E87"/>
<line x1="22.418" y1="20.7407" x2="28.8984" y2="20.7407" stroke="#5A6E87" stroke-linecap="round"/>
<defs>
<clipPath id="clip0_362_21874">
<rect x="3.39453" y="4.01245" width="26" height="24" rx="2" fill="white"/>
</clipPath>
</defs>
</svg>
