<svg width="25" height="25" viewBox="0 0 25 25" fill="none" xmlns="http://www.w3.org/2000/svg">
<g clip-path="url(#clip0_398_13855)">
<path d="M1.95312 5.76025H11.832V19.3063H1.95312V5.76025Z" fill="#5A6E87"/>
<path d="M9.92578 16.199V11.1332M9.92578 13.9548C9.92578 15.3592 8.78726 16.4977 7.38281 16.4977C5.97837 16.4977 4.83984 15.3592 4.83984 13.9548C4.83984 12.5503 5.97837 11.4118 7.38281 11.4118C8.78726 11.4118 9.92578 12.5503 9.92578 13.9548Z" stroke="white" stroke-width="1.5" stroke-linecap="round"/>
<path d="M13.9766 16.1989L13.9766 7.89252M18.7637 13.8054C18.7637 15.1273 17.6921 16.1989 16.3701 16.1989C15.0482 16.1989 13.9766 15.1273 13.9766 13.8054C13.9766 12.4834 15.0482 11.4118 16.3701 11.4118C17.6921 11.4118 18.7637 12.4834 18.7637 13.8054Z" stroke="#5A6E87" stroke-width="1.5" stroke-linecap="round"/>
</g>
<rect x="1.95312" y="5.93475" width="20.25" height="12.75" rx="4.5" stroke="#5A6E87" stroke-width="1.5"/>
<defs>
<clipPath id="clip0_398_13855">
<rect x="1.95312" y="5.93475" width="20.25" height="12.75" rx="4.5" fill="white"/>
</clipPath>
</defs>
</svg>
