<svg width="25" height="25" viewBox="0 0 25 25" fill="none" xmlns="http://www.w3.org/2000/svg">
<path d="M4.74609 18.1332H10.7461C11.1603 18.1332 11.4961 17.7974 11.4961 17.3832C11.4961 16.969 11.1603 16.6332 10.7461 16.6332H4.74609C4.33188 16.6332 3.99609 16.969 3.99609 17.3832C3.99609 17.7974 4.33188 18.1332 4.74609 18.1332Z" fill="#5A6E87"/>
<path d="M6.99609 14.3832V20.3832C6.99609 20.7974 7.33188 21.1332 7.74609 21.1332C8.16031 21.1332 8.49609 20.7974 8.49609 20.3832V14.3832C8.49609 13.969 8.16031 13.6332 7.74609 13.6332C7.33188 13.6332 6.99609 13.969 6.99609 14.3832Z" fill="#5A6E87"/>
<path d="M10.7461 6.13318H4.74609C4.33188 6.13318 3.99609 6.46897 3.99609 6.88318C3.99609 7.29739 4.33188 7.63318 4.74609 7.63318H10.7461C11.1603 7.63318 11.4961 7.29739 11.4961 6.88318C11.4961 6.46897 11.1603 6.13318 10.7461 6.13318Z" fill="#5A6E87"/>
<path d="M21.2461 15.1425H15.2461C14.8319 15.1425 14.4961 15.4783 14.4961 15.8925C14.4961 16.3067 14.8319 16.6425 15.2461 16.6425H21.2461C21.6603 16.6425 21.9961 16.3067 21.9961 15.8925C21.9961 15.4783 21.6603 15.1425 21.2461 15.1425Z" fill="#5A6E87"/>
<path d="M21.2461 18.1238H15.2461C14.8319 18.1238 14.4961 18.4596 14.4961 18.8738C14.4961 19.2881 14.8319 19.6238 15.2461 19.6238H21.2461C21.6603 19.6238 21.9961 19.2881 21.9961 18.8738C21.9961 18.4596 21.6603 18.1238 21.2461 18.1238Z" fill="#5A6E87"/>
<path d="M21.0261 5.16379C21.1668 5.02314 21.2461 4.83209 21.2461 4.63318C21.2461 4.43427 21.1671 4.2435 21.0264 4.10285L21.02 4.09645C20.8799 3.95998 20.6916 3.88318 20.4961 3.88318C20.4736 3.88318 20.4511 3.88419 20.4287 3.88621C20.2538 3.90199 20.09 3.97866 19.9658 4.10285L15.466 8.60257C15.3254 8.74322 15.2461 8.93427 15.2461 9.13318C15.2461 9.14519 15.2464 9.15721 15.247 9.16921C15.2559 9.35544 15.3339 9.53167 15.4658 9.66351C15.6064 9.80416 15.7972 9.88318 15.9961 9.88318C16.195 9.88318 16.3858 9.80416 16.5264 9.66351L21.0261 5.16379Z" fill="#5A6E87"/>
<path d="M16.5264 4.10285C16.3858 3.9622 16.195 3.88318 15.9961 3.88318C15.7972 3.88318 15.6064 3.9622 15.4658 4.10285C15.3251 4.2435 15.2461 4.43427 15.2461 4.63318C15.2461 4.83209 15.3251 5.02286 15.4658 5.16351L19.9654 9.66312C20.106 9.80377 20.2972 9.88318 20.4961 9.88318C20.695 9.88318 20.8858 9.80416 21.0264 9.66351C21.1671 9.52286 21.2461 9.33209 21.2461 9.13318C21.2461 8.93427 21.1671 8.7435 21.0264 8.60285L16.5264 4.10285Z" fill="#5A6E87"/>
</svg>
