<svg width="33" height="33" viewBox="0 0 33 33" fill="none" xmlns="http://www.w3.org/2000/svg">
<g clip-path="url(#clip0_401_17818)">
<rect x="2.79688" y="12.208" width="25.5234" height="8" fill="#BFDBFE"/>
<path d="M2.79297 4.20801H11.4596V12.208H2.79297V4.20801Z" stroke="#5A6E87"/>
<path d="M2.79688 20.208H11.4635V28.208H2.79688V20.208Z" stroke="#5A6E87"/>
<path d="M11.4609 4.20801H20.1276V12.208H11.4609V4.20801Z" stroke="#5A6E87"/>
<path d="M11.4688 20.208H20.1354V28.208H11.4688V20.208Z" stroke="#5A6E87"/>
<path d="M20.125 4.20801H28.7917V12.208H20.125V4.20801Z" stroke="#5A6E87"/>
<path d="M20.1328 20.208H28.7995V28.208H20.1328V20.208Z" stroke="#5A6E87"/>
</g>
<rect x="2.79297" y="4.20801" width="26" height="24" rx="2" stroke="#5A6E87" stroke-width="2"/>
<rect x="18.0586" y="18.447" width="14" height="14" rx="4" fill="white"/>
<path d="M29.3872 26.7597C29.2011 26.7756 29.0394 26.894 28.9679 27.0665C28.8964 27.2391 28.9271 27.4371 29.0474 27.58C29.3875 27.9838 29.3871 28.5874 29.025 28.9924C28.8925 29.1405 28.7518 29.2812 28.6036 29.4137C28.1986 29.7759 27.595 29.7762 27.1912 29.4362C27.0483 29.3158 26.8503 29.2852 26.6778 29.3567C26.5052 29.4281 26.3869 29.5898 26.3709 29.776C26.3259 30.3022 25.8985 30.7289 25.3558 30.7589C25.2572 30.7644 25.158 30.7671 25.0583 30.7671C24.9586 30.7671 24.8594 30.7644 24.7608 30.7589C24.2182 30.7289 23.7907 30.3022 23.7457 29.776C23.7298 29.5899 23.6114 29.4281 23.4389 29.3567C23.2663 29.2852 23.0683 29.3158 22.9254 29.4362C22.5216 29.7762 21.918 29.7759 21.5131 29.4137L21.1798 29.7865L21.5131 29.4137C21.3649 29.2812 21.2242 29.1405 21.0917 28.9924C20.7295 28.5874 20.7292 27.9838 21.0693 27.58C21.1896 27.4371 21.2202 27.2391 21.1488 27.0665C21.0773 26.894 20.9156 26.7756 20.7295 26.7597C20.2032 26.7147 19.7765 26.2873 19.7465 25.7446C19.741 25.646 19.7383 25.5468 19.7383 25.4471C19.7383 25.3474 19.741 25.2482 19.7465 25.1496C19.7765 24.6069 20.2032 24.1795 20.7295 24.1345C20.9156 24.1186 21.0773 24.0002 21.1488 23.8277C21.2202 23.6551 21.1896 23.4571 21.0693 23.3142C20.7292 22.9104 20.7295 22.3068 21.0917 21.9018C21.2242 21.7537 21.3649 21.613 21.5131 21.4805C21.918 21.1183 22.5216 21.118 22.9254 21.4581C23.0683 21.5784 23.2663 21.609 23.4389 21.5376C23.6114 21.4661 23.7298 21.3044 23.7457 21.1183C23.7907 20.592 24.2182 20.1653 24.7608 20.1353C24.8594 20.1298 24.9586 20.1271 25.0583 20.1271C25.158 20.1271 25.2572 20.1298 25.3558 20.1353C25.8985 20.1653 26.3259 20.592 26.3709 21.1183C26.3869 21.3044 26.5052 21.4661 26.6778 21.5376C26.8503 21.609 27.0483 21.5784 27.1912 21.4581C27.595 21.118 28.1986 21.1183 28.6036 21.4805C28.7518 21.613 28.8925 21.7537 29.025 21.9018C29.3871 22.3068 29.3875 22.9104 29.0474 23.3142C28.9271 23.4571 28.8964 23.6551 28.9679 23.8277C29.0394 24.0002 29.2011 24.1186 29.3872 24.1345C29.9135 24.1795 30.3401 24.6069 30.3702 25.1496C30.3756 25.2482 30.3784 25.3474 30.3784 25.4471C30.3784 25.5468 30.3756 25.646 30.3702 25.7446C30.3401 26.2873 29.9135 26.7147 29.3872 26.7597ZM25.0613 27.2925C26.0806 27.2925 26.9069 26.4662 26.9069 25.4469C26.9069 24.4276 26.0806 23.6013 25.0613 23.6013C24.042 23.6013 23.2157 24.4276 23.2157 25.4469C23.2157 26.4662 24.042 27.2925 25.0613 27.2925Z" stroke="#5A6E87" stroke-linecap="round" stroke-linejoin="round"/>
<defs>
<clipPath id="clip0_401_17818">
<rect x="2.79297" y="4.20801" width="26" height="24" rx="2" fill="white"/>
</clipPath>
</defs>
</svg>
