<svg width="33" height="33" viewBox="0 0 33 33" fill="none" xmlns="http://www.w3.org/2000/svg">
<g clip-path="url(#clip0_306_12905)">
<rect x="3.02344" y="12.1899" width="25.5234" height="8" fill="#BFDBFE"/>
<path d="M3.01953 4.18994H11.6862V12.1899H3.01953V4.18994Z" stroke="#5A6E87"/>
<path d="M3.02344 20.1899H11.6901V28.1899H3.02344V20.1899Z" stroke="#5A6E87"/>
<path d="M11.6875 4.18994H20.3542V12.1899H11.6875V4.18994Z" stroke="#5A6E87"/>
<path d="M11.6953 20.1899H20.362V28.1899H11.6953V20.1899Z" stroke="#5A6E87"/>
<path d="M20.3516 4.18994H29.0182V12.1899H20.3516V4.18994Z" stroke="#5A6E87"/>
<path d="M20.3594 20.1899H29.026V28.1899H20.3594V20.1899Z" stroke="#5A6E87"/>
</g>
<rect x="3.01953" y="4.18994" width="26" height="24" rx="2" stroke="#5A6E87" stroke-width="2"/>
<rect x="18.0195" y="18.1899" width="14" height="14" rx="4" fill="white"/>
<path d="M28.6313 22.106C27.9668 23.9617 26.9951 24.7901 25.845 25.766C25.7687 25.6944 25.69 25.628 25.6093 25.5669C25.9737 24.661 26.2173 24.1348 26.519 23.699C26.8871 23.1675 27.3584 22.7477 28.3544 21.9497C28.416 21.9003 28.5049 21.8981 28.5697 21.9457L28.9186 21.4706L28.5697 21.9457C28.6366 21.9948 28.6464 22.064 28.6313 22.106ZM24.0514 26.2463L24.0428 26.2684L24.3584 26.5461L25.1631 27.2543L25.5566 27.6006C25.6681 28.1815 25.4847 28.8049 25.0168 29.2341C24.6621 29.5594 24.2902 29.6987 23.6831 29.7377C23.2624 29.7646 22.7695 29.7422 22.1324 29.7026C22.1547 29.6583 22.1756 29.6137 22.1951 29.5686C22.3714 29.1607 22.4183 28.7525 22.4467 28.4105C22.4516 28.3512 22.4561 28.2937 22.4605 28.2377C22.5083 27.629 22.5421 27.1996 22.9122 26.756C23.2945 26.4146 23.6951 26.2565 24.0514 26.2463Z" stroke="#5A6E87" stroke-width="1.2"/>
<defs>
<clipPath id="clip0_306_12905">
<rect x="3.01953" y="4.18994" width="26" height="24" rx="2" fill="white"/>
</clipPath>
</defs>
</svg>
