<svg width="25" height="25" viewBox="0 0 25 25" fill="none" xmlns="http://www.w3.org/2000/svg">
<path d="M12.0195 13.2364H20.2695C20.6837 13.2364 21.0195 12.9007 21.0195 12.4864C21.0195 12.0722 20.6837 11.7364 20.2695 11.7364H12.0195C11.6053 11.7364 11.2695 12.0722 11.2695 12.4864C11.2695 12.9007 11.6053 13.2364 12.0195 13.2364Z" fill="#5A6E87"/>
<path d="M12.0195 7.23645H20.2695C20.6837 7.23645 21.0195 6.90066 21.0195 6.48645C21.0195 6.07224 20.6837 5.73645 20.2695 5.73645H12.0195C11.6053 5.73645 11.2695 6.07224 11.2695 6.48645C11.2695 6.90066 11.6053 7.23645 12.0195 7.23645Z" fill="#5A6E87"/>
<path d="M12.0195 19.2364H20.2695C20.6837 19.2364 21.0195 18.9007 21.0195 18.4864C21.0195 18.0722 20.6837 17.7364 20.2695 17.7364H12.0195C11.6053 17.7364 11.2695 18.0722 11.2695 18.4864C11.2695 18.9007 11.6053 19.2364 12.0195 19.2364Z" fill="#5A6E87"/>
<path d="M9.15276 5.538C9.1602 5.53114 9.16771 5.52393 9.17486 5.51678C9.30809 5.38355 9.3863 5.20505 9.39392 5.01678L9.39396 5.01568C9.39434 5.00594 9.39453 4.99619 9.39453 4.98645C9.39453 4.79803 9.32361 4.61652 9.19588 4.478C9.18902 4.47057 9.18201 4.46327 9.17486 4.45612C9.04163 4.32289 8.86313 4.24468 8.67487 4.23706L8.67376 4.23702C8.66402 4.23664 8.65428 4.23645 8.64453 4.23645C8.45611 4.23645 8.2746 4.30737 8.13609 4.4351L5.39214 6.96554L4.27877 5.93584C4.14017 5.80765 3.95832 5.73645 3.76953 5.73645C3.75977 5.73645 3.75002 5.73664 3.74027 5.73702C3.54151 5.74478 3.35398 5.83118 3.21892 5.97721C3.09073 6.11581 3.01953 6.29766 3.01953 6.48645C3.01953 6.49621 3.01972 6.50596 3.0201 6.51571C3.02786 6.71447 3.11426 6.90201 3.26029 7.03706L4.88217 8.53706C5.16931 8.80263 5.61233 8.80295 5.89985 8.5378L9.15276 5.538Z" fill="#5A6E87"/>
<path d="M9.15276 11.538C9.1602 11.5311 9.16771 11.5239 9.17486 11.5168C9.30809 11.3835 9.3863 11.205 9.39392 11.0168L9.39396 11.0157C9.39434 11.0059 9.39453 10.9962 9.39453 10.9864C9.39453 10.798 9.32361 10.6165 9.19588 10.478C9.18902 10.4706 9.18201 10.4633 9.17486 10.4561C9.04163 10.3229 8.86313 10.2447 8.67487 10.2371L8.67376 10.237C8.66402 10.2366 8.65428 10.2364 8.64453 10.2364C8.45611 10.2364 8.2746 10.3074 8.13609 10.4351L5.39214 12.9655L4.27877 11.9358C4.14017 11.8076 3.95832 11.7364 3.76953 11.7364C3.75977 11.7364 3.75002 11.7366 3.74027 11.737C3.54151 11.7448 3.35398 11.8312 3.21892 11.9772C3.09073 12.1158 3.01953 12.2977 3.01953 12.4864C3.01953 12.4962 3.01972 12.506 3.0201 12.5157C3.02786 12.7145 3.11426 12.902 3.26029 13.0371L4.88217 14.5371C5.16931 14.8026 5.61233 14.8029 5.89985 14.5378L9.15276 11.538Z" fill="#5A6E87"/>
<path d="M9.15276 17.538C9.1602 17.5311 9.16771 17.5239 9.17486 17.5168C9.30809 17.3835 9.3863 17.205 9.39392 17.0168L9.39396 17.0157C9.39434 17.0059 9.39453 16.9962 9.39453 16.9864C9.39453 16.798 9.32361 16.6165 9.19588 16.478C9.18902 16.4706 9.18201 16.4633 9.17486 16.4561C9.04163 16.3229 8.86313 16.2447 8.67487 16.2371L8.67376 16.237C8.66402 16.2366 8.65428 16.2364 8.64453 16.2364C8.45611 16.2364 8.2746 16.3074 8.13609 16.4351L5.39214 18.9655L4.27877 17.9358C4.14017 17.8076 3.95832 17.7364 3.76953 17.7364C3.75977 17.7364 3.75002 17.7366 3.74027 17.737C3.54151 17.7448 3.35398 17.8312 3.21892 17.9772C3.09073 18.1158 3.01953 18.2977 3.01953 18.4864C3.01953 18.4962 3.01972 18.506 3.0201 18.5157C3.02786 18.7145 3.11426 18.902 3.26029 19.0371L4.88217 20.5371C5.16931 20.8026 5.61233 20.8029 5.89985 20.5378L9.15276 17.538Z" fill="#5A6E87"/>
</svg>
