<svg width="25" height="25" viewBox="0 0 25 25" fill="none" xmlns="http://www.w3.org/2000/svg">
<path d="M20.6016 15.2733L18.036 17.8732L20.6016 20.2022M15.4648 15.2733L18.0304 17.8732L15.4648 20.2022M5.28906 11.455H19.0996C19.928 11.455 20.5996 10.7834 20.5996 9.95496V5.40723C20.5996 4.5788 19.928 3.90723 19.0996 3.90723H5.28906C4.46064 3.90723 3.78906 4.5788 3.78906 5.40723V9.95496C3.78906 10.7834 4.46064 11.455 5.28906 11.455ZM5.28906 21.5116H11.2227C12.0511 21.5116 12.7227 20.84 12.7227 20.0116V15.4639C12.7227 14.6355 12.0511 13.9639 11.2227 13.9639H5.28906C4.46064 13.9639 3.78906 14.6355 3.78906 15.4639V20.0116C3.78906 20.84 4.46064 21.5116 5.28906 21.5116Z" stroke="#5A6E87" stroke-width="1.5" stroke-linecap="round"/>
</svg>
