<svg width="24" height="25" viewBox="0 0 24 25" fill="none" xmlns="http://www.w3.org/2000/svg">
<path fill-rule="evenodd" clip-rule="evenodd" d="M17.9133 11.2359C17.9133 11.2359 18.4982 11.8769 18.4982 12.7528C18.4982 12.7528 18.4982 13.6789 17.8482 14.3385L17.188 14.9987C17.188 14.9987 16.9806 15.2094 16.7026 15.3257C16.7026 15.3257 16.4247 15.4421 16.1233 15.4421C16.1233 15.4421 15.822 15.4421 15.544 15.3257C15.544 15.3257 15.266 15.2094 15.0546 14.9946L9.37736 9.31747C9.37736 9.31747 9.16672 9.11006 9.05033 8.83209C9.05033 8.83209 8.93394 8.55412 8.93394 8.25276C8.93394 8.25276 8.93394 7.95141 9.05033 7.67344C9.05033 7.67344 9.16672 7.39546 9.38144 7.18401L10.0336 6.53181C10.0336 6.53181 10.6972 5.87791 11.6233 5.87791C11.6233 5.87791 12.5017 5.87791 13.1403 6.46258L15.1992 4.40368C15.1992 4.40368 16.1734 3.42947 17.5497 3.39326C17.5497 3.39326 18.9453 3.35653 19.9412 4.30712C19.9412 4.30712 20.4346 4.77382 20.7093 5.39875C20.7093 5.39875 20.984 6.02369 20.9942 6.70624C20.9942 6.70624 21.0044 7.38879 20.7485 8.02166C20.7485 8.02166 20.4927 8.65454 20.011 9.13823L17.9133 11.2359ZM18.9481 8.07979L18.9492 8.07868C18.9492 8.07868 19.216 7.81034 19.3579 7.45947C19.3579 7.45947 19.5 7.10788 19.4943 6.72868C19.4943 6.72868 19.4887 6.34949 19.3361 6.0023C19.3361 6.0023 19.1835 5.65512 18.9055 5.39215C18.9055 5.39215 18.361 4.87242 17.5891 4.89274C17.5891 4.89274 16.811 4.91321 16.2599 5.46434L13.6724 8.05184C13.3795 8.34474 12.9046 8.34474 12.6117 8.05184L12.1563 7.59637C12.1563 7.59637 11.9346 7.37791 11.6233 7.37791C11.6233 7.37791 11.3121 7.37791 11.0943 7.59247L10.4339 8.25276C10.4339 8.25276 10.4339 8.25276 10.438 8.25681L16.1233 13.9421C16.1233 13.9421 16.1233 13.9421 16.1274 13.9381L16.7797 13.2857C16.7797 13.2857 16.9982 13.064 16.9982 12.7528C16.9982 12.7528 16.9982 12.4415 16.7836 12.2237L16.3242 11.7643C16.0313 11.4714 16.0313 10.9966 16.3242 10.7037L18.9481 8.07979Z" fill="#5A6E87"/>
<path d="M11.1596 10.0396C11.3002 9.89893 11.3795 9.70789 11.3795 9.50897C11.3795 9.31006 11.3005 9.11929 11.1599 8.97864L11.1534 8.97225C11.0133 8.83577 10.8251 8.75897 10.6295 8.75897C10.4306 8.75897 10.2399 8.83799 10.0992 8.97864L4.84921 14.2286C4.13535 14.934 3.87386 15.9075 3.87386 15.9075C3.64854 16.7463 3.81452 17.5843 3.81452 17.5843L2.90129 19.6814C2.73965 20.0407 2.8139 20.4367 2.8139 20.4367C2.88815 20.8327 3.17529 21.1154 3.17529 21.1154L3.17767 21.1177C3.50592 21.4378 3.95683 21.5198 3.95683 21.5198C4.40786 21.6018 4.82767 21.4177 4.82767 21.4177L6.79181 20.5615C7.62977 20.7275 8.46853 20.5022 8.46853 20.5022C9.44205 20.2407 10.1505 19.5236 10.1505 19.5236L15.397 14.2772C15.5376 14.1365 15.617 13.9454 15.617 13.7465C15.617 13.5476 15.538 13.3568 15.3974 13.2161C15.2567 13.0755 15.0659 12.9965 14.867 12.9965C14.6681 12.9965 14.4774 13.0755 14.3367 13.2161L9.08353 18.4693C8.66058 18.8974 8.07941 19.0535 8.07941 19.0535C7.49825 19.2096 6.91773 19.0511 6.91773 19.0511C6.75272 19.006 6.57727 19.0187 6.42047 19.0871L4.41559 19.961L5.28904 17.9553C5.3573 17.7986 5.36996 17.6232 5.32492 17.4583C5.1664 16.8778 5.32251 16.2966 5.32251 16.2966C5.47861 15.7154 5.90987 15.2893 5.90987 15.2893L11.1596 10.0396Z" fill="#5A6E87"/>
</svg>
