<svg width="25" height="25" viewBox="0 0 25 25" fill="none" xmlns="http://www.w3.org/2000/svg">
<path d="M3.64844 9.98303C3.23422 9.98303 2.89844 10.3188 2.89844 10.733C2.89844 11.1472 3.23422 11.483 3.64844 11.483V9.98303ZM19.8359 11.483C20.2502 11.483 20.5859 11.1472 20.5859 10.733C20.5859 10.3188 20.2502 9.98303 19.8359 9.98303V11.483ZM14.3073 14.0443C14.0341 14.3557 14.0651 14.8295 14.3765 15.1027C14.6879 15.3759 15.1617 15.3449 15.4349 15.0335L14.3073 14.0443ZM16.0512 13.1937L16.6091 12.6925C16.4658 12.533 16.2611 12.4425 16.0467 12.4437C15.8323 12.445 15.6287 12.538 15.4873 12.6991L16.0512 13.1937ZM16.7018 15.0401C16.9786 15.3483 17.4528 15.3736 17.7609 15.0968C18.0691 14.82 18.0944 14.3458 17.8176 14.0377L16.7018 15.0401ZM15.4349 16.1337C15.1617 15.8224 14.6879 15.7914 14.3765 16.0645C14.0651 16.3377 14.0341 16.8116 14.3073 17.1229L15.4349 16.1337ZM16.0512 17.9735L15.4873 18.4681C15.6287 18.6293 15.8323 18.7222 16.0467 18.7235C16.2611 18.7248 16.4658 18.6342 16.6091 18.4748L16.0512 17.9735ZM17.8176 17.1296C18.0944 16.8215 18.0691 16.3473 17.7609 16.0704C17.4528 15.7936 16.9786 15.819 16.7018 16.1271L17.8176 17.1296ZM15.4349 6.42658C15.1617 6.11521 14.6879 6.08422 14.3765 6.35738C14.0651 6.63054 14.0341 7.1044 14.3073 7.41578L15.4349 6.42658ZM16.0512 8.26636L15.4873 8.76095C15.6287 8.92212 15.8323 9.01507 16.0467 9.01634C16.2611 9.01761 16.4658 8.92708 16.6091 8.7676L16.0512 8.26636ZM17.8176 7.42242C18.0944 7.1143 18.0691 6.64011 17.7609 6.36328C17.4528 6.08645 16.9786 6.11182 16.7018 6.41994L17.8176 7.42242ZM7.82031 6.41028C7.82031 5.99606 7.48453 5.66028 7.07031 5.66028C6.6561 5.66028 6.32031 5.99606 6.32031 6.41028L7.82031 6.41028ZM6.32031 8.4756C6.32031 8.88981 6.6561 9.2256 7.07031 9.2256C7.48453 9.2256 7.82031 8.88981 7.82031 8.4756L6.32031 8.4756ZM11.5703 6.41028C11.5703 5.99606 11.2345 5.66028 10.8203 5.66028C10.4061 5.66028 10.0703 5.99606 10.0703 6.41028H11.5703ZM10.0703 8.4756C10.0703 8.88981 10.4061 9.2256 10.8203 9.2256C11.2345 9.2256 11.5703 8.88981 11.5703 8.4756H10.0703ZM6.5 13.1528C6.08579 13.1528 5.75 13.4886 5.75 13.9028C5.75 14.317 6.08579 14.6528 6.5 14.6528V13.1528ZM11.3906 14.6528C11.8048 14.6528 12.1406 14.317 12.1406 13.9028C12.1406 13.4886 11.8048 13.1528 11.3906 13.1528V14.6528ZM6.5 16.1607C6.08579 16.1607 5.75 16.4964 5.75 16.9107C5.75 17.3249 6.08579 17.6607 6.5 17.6607V16.1607ZM11.3906 17.6607C11.8048 17.6607 12.1406 17.3249 12.1406 16.9107C12.1406 16.4964 11.8048 16.1607 11.3906 16.1607V17.6607ZM4.91797 5.20276H18.7255V3.70276H4.91797V5.20276ZM19.4755 5.95276V19.0201H20.9755V5.95276H19.4755ZM18.7255 19.7701H4.91797V21.2701H18.7255V19.7701ZM4.16797 19.0201V5.95276H2.66797V19.0201H4.16797ZM4.91797 19.7701C4.50376 19.7701 4.16797 19.4343 4.16797 19.0201H2.66797C2.66797 20.2627 3.67533 21.2701 4.91797 21.2701V19.7701ZM19.4755 19.0201C19.4755 19.4343 19.1397 19.7701 18.7255 19.7701V21.2701C19.9681 21.2701 20.9755 20.2627 20.9755 19.0201H19.4755ZM18.7255 5.20276C19.1397 5.20276 19.4755 5.53855 19.4755 5.95276H20.9755C20.9755 4.71012 19.9681 3.70276 18.7255 3.70276V5.20276ZM4.91797 3.70276C3.67533 3.70276 2.66797 4.71012 2.66797 5.95276H4.16797C4.16797 5.53855 4.50376 5.20276 4.91797 5.20276V3.70276ZM3.64844 11.483H19.8359V9.98303H3.64844V11.483ZM15.4349 15.0335L16.615 13.6883L15.4873 12.6991L14.3073 14.0443L15.4349 15.0335ZM15.4932 13.695L16.7018 15.0401L17.8176 14.0377L16.6091 12.6925L15.4932 13.695ZM14.3073 17.1229L15.4873 18.4681L16.615 17.4789L15.4349 16.1337L14.3073 17.1229ZM16.6091 18.4748L17.8176 17.1296L16.7018 16.1271L15.4932 17.4723L16.6091 18.4748ZM14.3073 7.41578L15.4873 8.76095L16.615 7.77176L15.4349 6.42658L14.3073 7.41578ZM16.6091 8.7676L17.8176 7.42242L16.7018 6.41994L15.4932 7.76512L16.6091 8.7676ZM6.32031 6.41028L6.32031 8.4756L7.82031 8.4756L7.82031 6.41028L6.32031 6.41028ZM10.0703 6.41028V8.4756H11.5703V6.41028H10.0703ZM6.5 14.6528H11.3906V13.1528H6.5V14.6528ZM6.5 17.6607H11.3906V16.1607H6.5V17.6607Z" fill="#5A6E87"/>
</svg>
