<svg width="33" height="33" viewBox="0 0 33 33" fill="none" xmlns="http://www.w3.org/2000/svg">
<g clip-path="url(#clip0_306_11817)">
<path d="M12.5625 13.2377H18.4531V20.248H12.5625V13.2377Z" fill="#BFDBFE"/>
<path d="M12.5625 5.57251H25.1968V12.2594H12.5625V5.57251Z" fill="#A0AEC0"/>
<path d="M12.5625 21.231H23.487V27.7188H12.5625V21.231Z" fill="#A0AEC0"/>
<path d="M12.0612 12.7393V4.73926H3.39453V12.7393M12.0612 12.7393H3.39453M12.0612 12.7393V20.7393H3.39453V12.7393M3.39844 20.7393H12.0651V28.7393H3.39844V20.7393ZM12.0625 4.73926H20.7292V12.7393H12.0625V4.73926ZM12.0664 12.7393H20.7331V20.7393H12.0664V12.7393ZM12.0703 20.7393H20.737V28.7393H12.0703V20.7393ZM20.7266 4.73926H29.3932V12.7393H20.7266V4.73926ZM20.7305 12.7393H29.3971V20.7393H20.7305V12.7393ZM20.7344 20.7393H29.401V28.7393H20.7344V20.7393Z" stroke="#5A6E87"/>
</g>
<rect x="3.39453" y="4.73926" width="26" height="24" rx="2" stroke="#5A6E87" stroke-width="2"/>
<rect x="18.3945" y="18.7393" width="14" height="14" rx="4" fill="white"/>
<path d="M21.5 24.18H29.2847M21.5 26.9171H29.2847M21.5523 29.1252L28.5604 22.1172" stroke="#5A6E87" stroke-width="1.2" stroke-linecap="round"/>
<defs>
<clipPath id="clip0_306_11817">
<rect x="3.39453" y="4.73926" width="26" height="24" rx="2" fill="white"/>
</clipPath>
</defs>
</svg>
