<svg width="25" height="25" viewBox="0 0 25 25" fill="none" xmlns="http://www.w3.org/2000/svg">
<path d="M4.76172 10.4661L20.8945 10.4661M8.35937 2.80811L8.35937 7.89034M17.6797 2.80811V7.89034M5.87891 21.3127H19.6864C20.5148 21.3127 21.1864 20.6412 21.1864 19.8127V6.7699C21.1864 5.94147 20.5148 5.2699 19.6864 5.2699H5.87891C5.05048 5.2699 4.37891 5.94147 4.37891 6.7699V19.8127C4.37891 20.6412 5.05048 21.3127 5.87891 21.3127Z" stroke="#5A6E87" stroke-width="1.5" stroke-linecap="round"/>
<path d="M7.26613 14.1535C7.25058 13.7084 7.59883 13.3349 8.04397 13.3194C8.4891 13.3038 8.86256 13.6521 8.8781 14.0972L8.88338 14.2485C8.89893 14.6936 8.55067 15.0671 8.10554 15.0826C7.66041 15.0981 7.28695 14.7499 7.27141 14.3048L7.26613 14.1535Z" fill="#5A6E87"/>
<path d="M7.27003 17.3842C7.25449 16.9391 7.60274 16.5656 8.04787 16.5501C8.49301 16.5345 8.86646 16.8828 8.88201 17.3279L8.88729 17.4791C8.90283 17.9243 8.55458 18.2977 8.10945 18.3133C7.66431 18.3288 7.29086 17.9806 7.27531 17.5354L7.27003 17.3842Z" fill="#5A6E87"/>
<path d="M10.3599 14.1535C10.3443 13.7084 10.6926 13.3349 11.1377 13.3194C11.5829 13.3038 11.9563 13.6521 11.9719 14.0972L11.9771 14.2485C11.9927 14.6936 11.6444 15.067 11.1993 15.0826C10.7542 15.0981 10.3807 14.7499 10.3652 14.3047L10.3599 14.1535Z" fill="#5A6E87"/>
<path d="M10.3599 17.3842C10.3443 16.9391 10.6926 16.5656 11.1377 16.5501C11.5829 16.5345 11.9563 16.8828 11.9719 17.3279L11.9771 17.4792C11.9927 17.9243 11.6444 18.2978 11.1993 18.3133C10.7542 18.3288 10.3807 17.9806 10.3652 17.5355L10.3599 17.3842Z" fill="#5A6E87"/>
<path d="M13.5864 14.1535C13.5709 13.7083 13.9191 13.3349 14.3643 13.3193C14.8094 13.3038 15.1829 13.6521 15.1984 14.0972L15.2037 14.2484C15.2192 14.6936 14.871 15.067 14.4259 15.0826C13.9807 15.0981 13.6073 14.7499 13.5917 14.3047L13.5864 14.1535Z" fill="#5A6E87"/>
<path d="M13.5864 17.3842C13.5709 16.9391 13.9191 16.5656 14.3643 16.5501C14.8094 16.5345 15.1829 16.8828 15.1984 17.3279L15.2037 17.4791C15.2192 17.9243 14.871 18.2977 14.4259 18.3133C13.9807 18.3288 13.6073 17.9806 13.5917 17.5354L13.5864 17.3842Z" fill="#5A6E87"/>
<path d="M16.6802 14.1535C16.6646 13.7083 17.0129 13.3349 17.458 13.3193C17.9032 13.3038 18.2766 13.6521 18.2922 14.0972L18.2974 14.2484C18.313 14.6936 17.9647 15.067 17.5196 15.0826C17.0745 15.0981 16.701 14.7499 16.6855 14.3047L16.6802 14.1535Z" fill="#5A6E87"/>
<path d="M16.6841 17.3842C16.6685 16.9391 17.0168 16.5656 17.4619 16.5501C17.9071 16.5345 18.2805 16.8828 18.2961 17.3279L18.3014 17.4791C18.3169 17.9243 17.9686 18.2977 17.5235 18.3133C17.0784 18.3288 16.7049 17.9806 16.6894 17.5354L16.6841 17.3842Z" fill="#5A6E87"/>
</svg>
