<svg width="33" height="33" viewBox="0 0 33 33" fill="none" xmlns="http://www.w3.org/2000/svg">
<g clip-path="url(#clip0_306_11819)">
<path d="M3.90625 4.45508H12.5729V12.4551H3.90625V4.45508Z" fill="#BFDBFE"/>
<path d="M12.5781 12.4551H21.2448V20.4551H12.5781V12.4551Z" fill="#BFDBFE"/>
<path d="M12.582 20.4551H21.2487V28.4551H12.582V20.4551Z" fill="#BFDBFE"/>
<path d="M21.2383 4.45508H29.9049V12.4551H21.2383V4.45508Z" fill="#BFDBFE"/>
<path d="M3.90625 12.4551H12.5729V20.4551H3.90625V12.4551Z" stroke="#5A6E87"/>
<path d="M3.91016 20.4551H12.5768V28.4551H3.91016V20.4551Z" stroke="#5A6E87"/>
<path d="M12.5742 4.45508H21.2409V12.4551H12.5742V4.45508Z" stroke="#5A6E87"/>
<path d="M21.2422 12.4551H29.9089V20.4551H21.2422V12.4551Z" stroke="#5A6E87"/>
<path d="M21.2461 20.4551H29.9128V28.4551H21.2461V20.4551Z" stroke="#5A6E87"/>
</g>
<rect x="3.90625" y="4.45508" width="26" height="24" rx="2" stroke="#5A6E87" stroke-width="2"/>
<rect x="18.9062" y="18.4551" width="14" height="14" rx="4" fill="white"/>
<path d="M26.7318 26.0311C26.6554 25.9594 26.5767 25.893 26.496 25.8319C26.8604 24.926 27.104 24.3998 27.4057 23.964C27.7738 23.4325 28.2452 23.0127 29.2411 22.2147C29.3027 22.1653 29.3917 22.1631 29.4564 22.2107L29.8116 21.7271L29.4564 22.2107C29.5234 22.2598 29.5331 22.329 29.5181 22.3711C28.8535 24.2267 27.8818 25.0551 26.7318 26.0311ZM24.9381 26.5113L24.9295 26.5334L25.2451 26.8111L26.0498 27.5193L26.4433 27.8656C26.5548 28.4465 26.3715 29.07 25.9035 29.4991C25.5488 29.8244 25.177 29.9637 24.5698 30.0027C24.1492 30.0296 23.6562 30.0072 23.0191 29.9676C23.0414 29.9233 23.0623 29.8787 23.0818 29.8336C23.2582 29.4258 23.305 29.0175 23.3334 28.6755C23.3383 28.6163 23.3428 28.5587 23.3472 28.5027C23.395 27.8941 23.4288 27.4646 23.7989 27.021C24.1812 26.6797 24.5818 26.5215 24.9381 26.5113Z" stroke="#5A6E87" stroke-width="1.2"/>
<defs>
<clipPath id="clip0_306_11819">
<rect x="3.90625" y="4.45508" width="26" height="24" rx="2" fill="white"/>
</clipPath>
</defs>
</svg>
