<svg width="25" height="25" viewBox="0 0 25 25" fill="none" xmlns="http://www.w3.org/2000/svg">
<path d="M8.29688 6.76367C8.29688 6.56476 8.37589 6.37399 8.51655 6.23334C8.6572 6.09269 8.84796 6.01367 9.04688 6.01367H21.0469C21.2458 6.01367 21.4366 6.09269 21.5772 6.23334C21.7179 6.37399 21.7969 6.56476 21.7969 6.76367C21.7969 6.96258 21.7179 7.15335 21.5772 7.294C21.4366 7.43465 21.2458 7.51367 21.0469 7.51367H9.04688C8.84796 7.51367 8.6572 7.43465 8.51655 7.294C8.37589 7.15335 8.29688 6.96258 8.29688 6.76367ZM21.0469 12.0137H9.04688C8.84796 12.0137 8.6572 12.0927 8.51655 12.2333C8.37589 12.374 8.29688 12.5648 8.29688 12.7637C8.29688 12.9626 8.37589 13.1533 8.51655 13.294C8.6572 13.4347 8.84796 13.5137 9.04688 13.5137H21.0469C21.2458 13.5137 21.4366 13.4347 21.5772 13.294C21.7179 13.1533 21.7969 12.9626 21.7969 12.7637C21.7969 12.5648 21.7179 12.374 21.5772 12.2333C21.4366 12.0927 21.2458 12.0137 21.0469 12.0137ZM21.0469 18.0137H9.04688C8.84796 18.0137 8.6572 18.0927 8.51655 18.2333C8.37589 18.374 8.29688 18.5648 8.29688 18.7637C8.29688 18.9626 8.37589 19.1533 8.51655 19.294C8.6572 19.4346 8.84796 19.5137 9.04688 19.5137H21.0469C21.2458 19.5137 21.4366 19.4346 21.5772 19.294C21.7179 19.1533 21.7969 18.9626 21.7969 18.7637C21.7969 18.5648 21.7179 18.374 21.5772 18.2333C21.4366 18.0927 21.2458 18.0137 21.0469 18.0137ZM4.92188 11.6387C4.69937 11.6387 4.48186 11.7046 4.29686 11.8283C4.11185 11.9519 3.96766 12.1276 3.88251 12.3332C3.79736 12.5387 3.77508 12.7649 3.81849 12.9831C3.8619 13.2014 3.96905 13.4018 4.12638 13.5592C4.28371 13.7165 4.48417 13.8236 4.7024 13.8671C4.92063 13.9105 5.14683 13.8882 5.35239 13.803C5.55796 13.7179 5.73366 13.5737 5.85728 13.3887C5.9809 13.2037 6.04688 12.9862 6.04688 12.7637C6.04688 12.4653 5.92835 12.1792 5.71737 11.9682C5.50639 11.7572 5.22024 11.6387 4.92188 11.6387ZM4.92188 5.63867C4.69937 5.63867 4.48186 5.70465 4.29686 5.82827C4.11185 5.95189 3.96766 6.12759 3.88251 6.33315C3.79736 6.53872 3.77508 6.76492 3.81849 6.98315C3.8619 7.20138 3.96905 7.40183 4.12638 7.55917C4.28371 7.7165 4.48417 7.82365 4.7024 7.86705C4.92063 7.91046 5.14683 7.88818 5.35239 7.80304C5.55796 7.71789 5.73366 7.57369 5.85728 7.38869C5.9809 7.20368 6.04688 6.98618 6.04688 6.76367C6.04688 6.4653 5.92835 6.17915 5.71737 5.96818C5.50639 5.7572 5.22024 5.63867 4.92188 5.63867ZM4.92188 17.6387C4.69937 17.6387 4.48186 17.7046 4.29686 17.8283C4.11185 17.9519 3.96766 18.1276 3.88251 18.3331C3.79736 18.5387 3.77508 18.7649 3.81849 18.9831C3.8619 19.2014 3.96905 19.4018 4.12638 19.5592C4.28371 19.7165 4.48417 19.8236 4.7024 19.8671C4.92063 19.9105 5.14683 19.8882 5.35239 19.803C5.55796 19.7179 5.73366 19.5737 5.85728 19.3887C5.9809 19.2037 6.04688 18.9862 6.04688 18.7637C6.04688 18.4653 5.92835 18.1792 5.71737 17.9682C5.50639 17.7572 5.22024 17.6387 4.92188 17.6387Z" fill="#5A6E87"/>
</svg>
