<svg width="25" height="25" viewBox="0 0 25 25" fill="none" xmlns="http://www.w3.org/2000/svg">
<path d="M8.92506 4.1438L8.92506 20.7503M15.1751 4.1438L15.1751 20.7503M21.379 10.0304H2.70215M4.20506 20.7503H19.88C20.7084 20.7503 21.38 20.1477 21.38 19.4043V5.48983C21.38 4.74644 20.7085 4.14381 19.88 4.14381H4.20506C3.37663 4.14381 2.70506 4.74644 2.70506 5.48982V19.4043C2.70506 20.1477 3.37663 20.7503 4.20506 20.7503Z" stroke="#5A6E87" stroke-width="1.6"/>
<path d="M6.74609 6.99548C6.74609 7.56611 6.28351 8.02869 5.71289 8.02869C5.14227 8.02869 4.67969 7.56611 4.67969 6.99548C4.67969 6.42486 5.14227 5.96228 5.71289 5.96228C6.28351 5.96228 6.74609 6.42486 6.74609 6.99548Z" fill="#5A6E87"/>
<path d="M13.0742 6.99548C13.0742 7.56611 12.6116 8.02869 12.041 8.02869C11.4704 8.02869 11.0078 7.56611 11.0078 6.99548C11.0078 6.42486 11.4704 5.96228 12.041 5.96228C12.6116 5.96228 13.0742 6.42486 13.0742 6.99548Z" fill="#5A6E87"/>
<path d="M19.3242 6.99548C19.3242 7.56611 18.8616 8.02869 18.291 8.02869C17.7204 8.02869 17.2578 7.56611 17.2578 6.99548C17.2578 6.42486 17.7204 5.96228 18.291 5.96228C18.8616 5.96228 19.3242 6.42486 19.3242 6.99548Z" fill="#5A6E87"/>
</svg>
