<svg width="33" height="33" viewBox="0 0 33 33" fill="none" xmlns="http://www.w3.org/2000/svg">
<g clip-path="url(#clip0_397_14329)">
<rect x="3.29297" y="12.7517" width="25.5234" height="8" fill="#BFDBFE"/>
<path d="M3.28906 4.75171H11.9557V12.7517H3.28906V4.75171Z" stroke="#5A6E87"/>
<path d="M3.29297 20.7517H11.9596V28.7517H3.29297V20.7517Z" stroke="#5A6E87"/>
<path d="M11.957 4.75171H20.6237V12.7517H11.957V4.75171Z" stroke="#5A6E87"/>
<path d="M11.9648 20.7517H20.6315V28.7517H11.9648V20.7517Z" stroke="#5A6E87"/>
<path d="M20.6211 4.75171H29.2878V12.7517H20.6211V4.75171Z" stroke="#5A6E87"/>
<path d="M20.6289 20.7517H29.2956V28.7517H20.6289V20.7517Z" stroke="#5A6E87"/>
</g>
<rect x="3.28906" y="4.75171" width="26" height="24" rx="2" stroke="#5A6E87" stroke-width="2"/>
<rect x="18.2891" y="18.7517" width="14" height="14" rx="4" fill="white"/>
<path d="M28.9009 22.6678C28.2363 24.5235 27.2646 25.3518 26.1146 26.3278C26.0382 26.2562 25.9596 26.1897 25.8788 26.1286C26.2432 25.2228 26.4868 24.6965 26.7885 24.2608C27.1566 23.7292 27.628 23.3094 28.6239 22.5115C28.6856 22.4621 28.7745 22.4598 28.8393 22.5074L29.1882 22.0324L28.8393 22.5074C28.9062 22.5566 28.9159 22.6258 28.9009 22.6678ZM24.321 26.8081L24.3123 26.8301L24.6279 27.1079L25.4326 27.8161L25.8261 28.1624C25.9376 28.7432 25.7543 29.3667 25.2864 29.7958C24.9316 30.1211 24.5598 30.2605 23.9526 30.2994C23.532 30.3264 23.039 30.3039 22.4019 30.2643C22.4243 30.2201 22.4451 30.1754 22.4646 30.1303C22.641 29.7225 22.6878 29.3142 22.7162 28.9722C22.7211 28.913 22.7256 28.8555 22.73 28.7994C22.7779 28.1908 22.8116 27.7614 23.1817 27.3178C23.564 26.9764 23.9647 26.8183 24.321 26.8081Z" stroke="#5A6E87" stroke-width="1.2"/>
<defs>
<clipPath id="clip0_397_14329">
<rect x="3.28906" y="4.75171" width="26" height="24" rx="2" fill="white"/>
</clipPath>
</defs>
</svg>
