<svg width="25" height="25" viewBox="0 0 25 25" fill="none" xmlns="http://www.w3.org/2000/svg">
<path d="M6.95862 5.27896C6.60761 4.85257 5.9774 4.79146 5.55101 5.14247C5.12461 5.49348 5.06351 6.12368 5.41452 6.55008L6.95862 5.27896ZM11.0434 11.8144L10.2713 12.4499C10.4558 12.6741 10.7287 12.807 11.0189 12.8141C11.3091 12.8212 11.5881 12.7018 11.7834 12.487L11.0434 11.8144ZM19.0423 4.50124C19.4137 4.09256 19.3836 3.46011 18.9749 3.08863C18.5662 2.71715 17.9338 2.74731 17.5623 3.15599L19.0423 4.50124ZM4.42363 19.2729C4.1916 19.7741 4.4098 20.3685 4.91098 20.6005C5.41216 20.8325 6.00654 20.6143 6.23857 20.1131L4.42363 19.2729ZM13.3374 16.0224L13.3374 15.0224L13.3374 16.0224ZM20.2726 22.3772C20.4123 22.9115 20.9587 23.2314 21.4931 23.0916C22.0274 22.9519 22.3472 22.4055 22.2075 21.8712L20.2726 22.3772ZM5.33101 18.9574C4.77872 18.9574 4.33098 19.405 4.33095 19.9573C4.33092 20.5096 4.77861 20.9574 5.33089 20.9574L5.33101 18.9574ZM10.3596 20.9577C10.9119 20.9577 11.3596 20.51 11.3597 19.9577C11.3597 19.4055 10.912 18.9577 10.3597 18.9577L10.3596 20.9577ZM4.3086 19.9533C4.3062 20.5056 4.75197 20.9552 5.30425 20.9576C5.85653 20.96 6.30618 20.5142 6.30858 19.962L4.3086 19.9533ZM6.33044 14.9333C6.33284 14.381 5.88707 13.9314 5.33479 13.929C4.78251 13.9266 4.33285 14.3723 4.33045 14.9246L6.33044 14.9333ZM5.41452 6.55008L10.2713 12.4499L11.8154 11.1788L6.95862 5.27896L5.41452 6.55008ZM11.7834 12.487L19.0423 4.50124L17.5623 3.15599L10.3034 11.1418L11.7834 12.487ZM5.3311 19.693C6.23857 20.1131 6.23828 20.1137 6.23801 20.1143C6.23792 20.1145 6.23765 20.1151 6.23748 20.1155C6.23714 20.1162 6.23682 20.1169 6.23653 20.1175C6.23595 20.1187 6.23546 20.1198 6.23507 20.1206C6.2343 20.1222 6.23391 20.123 6.23392 20.123C6.23394 20.1229 6.23556 20.1196 6.23886 20.1133C6.24545 20.1006 6.25873 20.0759 6.27933 20.0407C6.32057 19.9703 6.39089 19.8586 6.49543 19.7191C6.7044 19.4402 7.04941 19.0508 7.57241 18.6552C8.60524 17.874 10.3931 17.0224 13.3374 17.0224L13.3374 15.0224C9.97472 15.0224 7.75947 16.006 6.36589 17.0601C5.67568 17.5822 5.20166 18.1104 4.89491 18.5198C4.74159 18.7244 4.62987 18.8996 4.55354 19.0299C4.51536 19.0951 4.48596 19.1492 4.46459 19.1903C4.4539 19.2108 4.4452 19.2281 4.43841 19.242C4.43502 19.2489 4.43209 19.255 4.42963 19.2601C4.4284 19.2627 4.42729 19.2651 4.42629 19.2672C4.42579 19.2683 4.42532 19.2693 4.42487 19.2702C4.42465 19.2707 4.42434 19.2714 4.42423 19.2716C4.42393 19.2723 4.42363 19.2729 5.3311 19.693ZM13.3374 17.0224C16.1125 17.0225 17.8194 18.3446 18.8647 19.6876C19.3942 20.3679 19.751 21.0529 19.9748 21.5688C20.0861 21.8255 20.1631 22.0368 20.2111 22.1799C20.235 22.2514 20.2517 22.3055 20.2617 22.3395C20.2667 22.3564 20.2701 22.3683 20.2719 22.3747C20.2728 22.3779 20.2733 22.3797 20.2734 22.3802C20.2734 22.3804 20.2734 22.3803 20.2733 22.3798C20.2732 22.3795 20.2731 22.3792 20.273 22.3787C20.2729 22.3785 20.2728 22.3781 20.2728 22.378C20.2727 22.3776 20.2726 22.3772 21.24 22.1242C22.2075 21.8712 22.2074 21.8707 22.2073 21.8702C22.2072 21.87 22.2071 21.8694 22.207 21.869C22.2067 21.8682 22.2065 21.8674 22.2062 21.8664C22.2057 21.8644 22.2051 21.862 22.2044 21.8593C22.2029 21.8539 22.201 21.847 22.1987 21.8387C22.1941 21.822 22.1877 21.7996 22.1795 21.7718C22.1631 21.7164 22.1393 21.6394 22.1073 21.544C22.0434 21.3535 21.9464 21.0881 21.8096 20.7728C21.5371 20.1447 21.1007 19.3042 20.443 18.4591C19.1137 16.7513 16.8692 15.0225 13.3374 15.0224L13.3374 17.0224ZM5.33089 20.9574L10.3596 20.9577L10.3597 18.9577L5.33101 18.9574L5.33089 20.9574ZM6.30858 19.962L6.33044 14.9333L4.33045 14.9246L4.3086 19.9533L6.30858 19.962Z" fill="#5A6E87"/>
</svg>
