<svg width="25" height="25" viewBox="0 0 25 25" fill="none" xmlns="http://www.w3.org/2000/svg">
<path d="M7.51953 6.48645C7.51953 6.28754 7.59855 6.09677 7.7392 5.95612C7.87985 5.81547 8.07062 5.73645 8.26953 5.73645H20.2695C20.4684 5.73645 20.6592 5.81547 20.7999 5.95612C20.9405 6.09677 21.0195 6.28754 21.0195 6.48645C21.0195 6.68536 20.9405 6.87613 20.7999 7.01678C20.6592 7.15743 20.4684 7.23645 20.2695 7.23645H8.26953C8.07062 7.23645 7.87985 7.15743 7.7392 7.01678C7.59855 6.87613 7.51953 6.68536 7.51953 6.48645ZM20.2695 11.7364H8.26953C8.07062 11.7364 7.87985 11.8155 7.7392 11.9561C7.59855 12.0968 7.51953 12.2875 7.51953 12.4864C7.51953 12.6854 7.59855 12.8761 7.7392 13.0168C7.87985 13.1574 8.07062 13.2364 8.26953 13.2364H20.2695C20.4684 13.2364 20.6592 13.1574 20.7999 13.0168C20.9405 12.8761 21.0195 12.6854 21.0195 12.4864C21.0195 12.2875 20.9405 12.0968 20.7999 11.9561C20.6592 11.8155 20.4684 11.7364 20.2695 11.7364ZM20.2695 17.7364H8.26953C8.07062 17.7364 7.87985 17.8155 7.7392 17.9561C7.59855 18.0968 7.51953 18.2875 7.51953 18.4864C7.51953 18.6854 7.59855 18.8761 7.7392 19.0168C7.87985 19.1574 8.07062 19.2364 8.26953 19.2364H20.2695C20.4684 19.2364 20.6592 19.1574 20.7999 19.0168C20.9405 18.8761 21.0195 18.6854 21.0195 18.4864C21.0195 18.2875 20.9405 18.0968 20.7999 17.9561C20.6592 17.8155 20.4684 17.7364 20.2695 17.7364ZM4.14453 11.3614C3.92203 11.3614 3.70452 11.4274 3.51952 11.551C3.33451 11.6747 3.19032 11.8504 3.10517 12.0559C3.02002 12.2615 2.99774 12.4877 3.04115 12.7059C3.08456 12.9242 3.1917 13.1246 3.34904 13.2819C3.50637 13.4393 3.70683 13.5464 3.92506 13.5898C4.14328 13.6332 4.36948 13.611 4.57505 13.5258C4.78062 13.4407 4.95632 13.2965 5.07994 13.1115C5.20355 12.9265 5.26953 12.709 5.26953 12.4864C5.26953 12.1881 5.15101 11.9019 4.94003 11.691C4.72905 11.48 4.4429 11.3614 4.14453 11.3614ZM4.14453 5.36145C3.92203 5.36145 3.70452 5.42743 3.51952 5.55105C3.33451 5.67466 3.19032 5.85036 3.10517 6.05593C3.02002 6.2615 2.99774 6.4877 3.04115 6.70593C3.08456 6.92416 3.1917 7.12461 3.34904 7.28194C3.50637 7.43928 3.70683 7.54642 3.92506 7.58983C4.14328 7.63324 4.36948 7.61096 4.57505 7.52581C4.78062 7.44067 4.95632 7.29647 5.07994 7.11147C5.20355 6.92646 5.26953 6.70895 5.26953 6.48645C5.26953 6.18808 5.15101 5.90193 4.94003 5.69095C4.72905 5.47998 4.4429 5.36145 4.14453 5.36145ZM4.14453 17.3614C3.92203 17.3614 3.70452 17.4274 3.51952 17.551C3.33451 17.6747 3.19032 17.8504 3.10517 18.0559C3.02002 18.2615 2.99774 18.4877 3.04115 18.7059C3.08456 18.9242 3.1917 19.1246 3.34904 19.2819C3.50637 19.4393 3.70683 19.5464 3.92506 19.5898C4.14328 19.6332 4.36948 19.611 4.57505 19.5258C4.78062 19.4407 4.95632 19.2965 5.07994 19.1115C5.20355 18.9265 5.26953 18.709 5.26953 18.4864C5.26953 18.1881 5.15101 17.9019 4.94003 17.691C4.72905 17.48 4.4429 17.3614 4.14453 17.3614Z" fill="#5A6E87"/>
</svg>
