<svg width="25" height="25" viewBox="0 0 25 25" fill="none" xmlns="http://www.w3.org/2000/svg">
<path d="M2.68359 5.41235C2.68359 4.58393 3.35517 3.91235 4.18359 3.91235H19.8586C20.687 3.91235 21.3586 4.58393 21.3586 5.41235V8.91864C21.3586 9.74707 20.687 10.4186 19.8586 10.4186H4.18359C3.35516 10.4186 2.68359 9.74706 2.68359 8.91864V5.41235Z" stroke="#5A6E87" stroke-width="1.5"/>
<path d="M11.6289 14.5626C11.6289 13.7342 12.3005 13.0626 13.1289 13.0626H19.8595C20.688 13.0626 21.3595 13.7342 21.3595 14.5626V19.56C21.3595 20.3885 20.688 21.06 19.8595 21.06H13.1289C12.3005 21.06 11.6289 20.3885 11.6289 19.56V14.5626Z" stroke="#5A6E87" stroke-width="1.5"/>
<path d="M2.68359 14.5627C2.68359 13.7343 3.35517 13.0627 4.18359 13.0627H7.33594C8.16436 13.0627 8.83594 13.7343 8.83594 14.5627V19.5601C8.83594 20.3885 8.16436 21.0601 7.33594 21.0601H4.18359C3.35517 21.0601 2.68359 20.3885 2.68359 19.5601V14.5627Z" stroke="#5A6E87" stroke-width="1.5"/>
</svg>
