<svg width="33" height="33" viewBox="0 0 33 33" fill="none" xmlns="http://www.w3.org/2000/svg">
<g clip-path="url(#clip0_362_21849)">
<rect x="12.4609" y="12.1006" width="8.66667" height="8" fill="#BFDBFE"/>
<path d="M12.4557 12.1006V4.10059H3.78906V12.1006M12.4557 12.1006H3.78906M12.4557 12.1006V20.1006H3.78906V12.1006M3.79297 20.1006H12.4596V28.1006H3.79297V20.1006ZM12.457 4.10059H21.1237V12.1006H12.457V4.10059ZM12.4648 20.1006H21.1315V28.1006H12.4648V20.1006ZM21.1211 4.10059H29.7878V12.1006H21.1211V4.10059ZM21.125 12.1006H29.7917V20.1006H21.125V12.1006ZM21.1289 20.1006H29.7956V28.1006H21.1289V20.1006Z" stroke="#5A6E87"/>
</g>
<rect x="3.78906" y="4.10059" width="26" height="24" rx="2" stroke="#5A6E87" stroke-width="2"/>
<rect x="18.7891" y="18.1002" width="14" height="14.0004" rx="4" fill="white"/>
<path d="M22.1914 25.0679C22.1914 24.3485 22.3387 23.7115 22.6334 23.1569C22.9367 22.6022 23.3441 22.1732 23.8554 21.8699C24.3754 21.5579 24.9474 21.4019 25.5714 21.4019C26.1347 21.4019 26.6244 21.5145 27.0404 21.7399C27.4651 21.9565 27.8031 22.2295 28.0544 22.5589V21.5189H29.5494V28.6819H28.0544V27.6159C27.8031 27.9539 27.4607 28.2355 27.0274 28.4609C26.5941 28.6862 26.1001 28.7989 25.5454 28.7989C24.9301 28.7989 24.3667 28.6429 23.8554 28.3309C23.3441 28.0102 22.9367 27.5682 22.6334 27.0049C22.3387 26.4329 22.1914 25.7872 22.1914 25.0679ZM28.0544 25.0939C28.0544 24.5999 27.9504 24.1709 27.7424 23.8069C27.5431 23.4429 27.2787 23.1655 26.9494 22.9749C26.6201 22.7842 26.2647 22.6889 25.8834 22.6889C25.5021 22.6889 25.1467 22.7842 24.8174 22.9749C24.4881 23.1569 24.2194 23.4299 24.0114 23.7939C23.8121 24.1492 23.7124 24.5739 23.7124 25.0679C23.7124 25.5619 23.8121 25.9952 24.0114 26.3679C24.2194 26.7405 24.4881 27.0265 24.8174 27.2259C25.1554 27.4165 25.5107 27.5119 25.8834 27.5119C26.2647 27.5119 26.6201 27.4165 26.9494 27.2259C27.2787 27.0352 27.5431 26.7579 27.7424 26.3939C27.9504 26.0212 28.0544 25.5879 28.0544 25.0939Z" fill="#5A6E87"/>
<defs>
<clipPath id="clip0_362_21849">
<rect x="3.78906" y="4.10059" width="26" height="24" rx="2" fill="white"/>
</clipPath>
</defs>
</svg>
