<svg width="33" height="33" viewBox="0 0 33 33" fill="none" xmlns="http://www.w3.org/2000/svg">
<g clip-path="url(#clip0_397_14116)">
<rect x="12.0664" y="5.01245" width="8.66667" height="24" fill="#BFDBFE"/>
<path d="M12.0612 13.0125V5.01245H3.39453V13.0125M12.0612 13.0125H3.39453M12.0612 13.0125V21.0125H3.39453V13.0125M3.39844 21.0125H12.0651V29.0125H3.39844V21.0125ZM20.7266 5.01245H29.3932V13.0125H20.7266V5.01245ZM20.7305 13.0125H29.3971V21.0125H20.7305V13.0125ZM20.7344 21.0125H29.401V29.0125H20.7344V21.0125Z" stroke="#5A6E87"/>
<path d="M16.4221 21.3304L16.4221 12.6945M16.4221 12.6945L18.4988 15.4209M16.4221 12.6945L14.3047 15.4209" stroke="#5A6E87" stroke-width="1.6" stroke-linecap="round" stroke-linejoin="round"/>
</g>
<rect x="3.39453" y="5.01245" width="26" height="24" rx="2" stroke="#5A6E87" stroke-width="2"/>
<rect x="18.3945" y="18.6989" width="14" height="14.0004" rx="4" fill="white"/>
<path d="M20.8867 22.905V21.761H23.1747V29.78H21.9097V22.905H20.8867Z" fill="#5A6E87"/>
<path d="M24.1824 25.666C24.1824 24.3974 24.3951 23.4074 24.8204 22.696C25.2531 21.9774 25.9938 21.618 27.0424 21.618C28.0911 21.618 28.8281 21.9774 29.2534 22.696C29.6861 23.4074 29.9024 24.3974 29.9024 25.666C29.9024 26.9494 29.6861 27.954 29.2534 28.68C28.8281 29.3987 28.0911 29.758 27.0424 29.758C25.9938 29.758 25.2531 29.3987 24.8204 28.68C24.3951 27.954 24.1824 26.9494 24.1824 25.666ZM28.6704 25.666C28.6704 25.072 28.6301 24.5697 28.5494 24.159C28.4761 23.7484 28.3221 23.4147 28.0874 23.158C27.8528 22.894 27.5044 22.762 27.0424 22.762C26.5804 22.762 26.2321 22.894 25.9974 23.158C25.7628 23.4147 25.6051 23.7484 25.5244 24.159C25.4511 24.5697 25.4144 25.072 25.4144 25.666C25.4144 26.282 25.4511 26.799 25.5244 27.217C25.5978 27.635 25.7518 27.9724 25.9864 28.229C26.2284 28.4857 26.5804 28.614 27.0424 28.614C27.5044 28.614 27.8528 28.4857 28.0874 28.229C28.3294 27.9724 28.4871 27.635 28.5604 27.217C28.6338 26.799 28.6704 26.282 28.6704 25.666Z" fill="#5A6E87"/>
<defs>
<clipPath id="clip0_397_14116">
<rect x="3.39453" y="5.01245" width="26" height="24" rx="2" fill="white"/>
</clipPath>
</defs>
</svg>
