<svg width="33" height="33" viewBox="0 0 33 33" fill="none" xmlns="http://www.w3.org/2000/svg">
<g clip-path="url(#clip0_362_21859)">
<rect x="3.39453" y="4.77734" width="8.66667" height="8" stroke="#5A6E87"/>
<rect x="3.39453" y="12.7773" width="8.66667" height="8" stroke="#5A6E87"/>
<rect x="3.39844" y="20.7773" width="8.66667" height="8" stroke="#5A6E87"/>
<rect x="12.0664" y="4.77734" width="8.66667" height="24" fill="#BFDBFE" stroke="#5A6E87"/>
<rect x="20.7266" y="4.77734" width="8.66667" height="8" stroke="#5A6E87"/>
<rect x="20.7305" y="12.7773" width="8.66667" height="8" stroke="#5A6E87"/>
<rect x="20.7344" y="20.7773" width="8.66667" height="8" stroke="#5A6E87"/>
<path d="M16.4143 20.5056L16.4143 11.8696M16.4143 11.8696L18.491 14.596M16.4143 11.8696L14.2969 14.596" stroke="#5A6E87" stroke-width="1.6" stroke-linecap="round" stroke-linejoin="round"/>
</g>
<rect x="3.39453" y="4.77734" width="26" height="24" rx="2" stroke="#5A6E87" stroke-width="2"/>
<rect x="18.3945" y="18.777" width="14" height="14.0004" rx="4" fill="white"/>
<path d="M20.8867 22.9832V21.8392H23.1747V29.8582H21.9097V22.9832H20.8867Z" fill="#5A6E87"/>
<path d="M24.1824 25.7442C24.1824 24.4755 24.3951 23.4855 24.8204 22.7742C25.2531 22.0555 25.9938 21.6962 27.0424 21.6962C28.0911 21.6962 28.8281 22.0555 29.2534 22.7742C29.6861 23.4855 29.9024 24.4755 29.9024 25.7442C29.9024 27.0275 29.6861 28.0322 29.2534 28.7582C28.8281 29.4768 28.0911 29.8362 27.0424 29.8362C25.9938 29.8362 25.2531 29.4768 24.8204 28.7582C24.3951 28.0322 24.1824 27.0275 24.1824 25.7442ZM28.6704 25.7442C28.6704 25.1502 28.6301 24.6478 28.5494 24.2372C28.4761 23.8265 28.3221 23.4928 28.0874 23.2362C27.8528 22.9722 27.5044 22.8402 27.0424 22.8402C26.5804 22.8402 26.2321 22.9722 25.9974 23.2362C25.7628 23.4928 25.6051 23.8265 25.5244 24.2372C25.4511 24.6478 25.4144 25.1502 25.4144 25.7442C25.4144 26.3602 25.4511 26.8772 25.5244 27.2952C25.5978 27.7132 25.7518 28.0505 25.9864 28.3072C26.2284 28.5638 26.5804 28.6922 27.0424 28.6922C27.5044 28.6922 27.8528 28.5638 28.0874 28.3072C28.3294 28.0505 28.4871 27.7132 28.5604 27.2952C28.6338 26.8772 28.6704 26.3602 28.6704 25.7442Z" fill="#5A6E87"/>
<defs>
<clipPath id="clip0_362_21859">
<rect x="3.39453" y="4.77734" width="26" height="24" rx="2" fill="white"/>
</clipPath>
</defs>
</svg>
