<svg width="25" height="25" viewBox="0 0 25 25" fill="none" xmlns="http://www.w3.org/2000/svg">
<path d="M19.8403 10.9467L19.8404 10.0822C19.8406 7.30553 17.5897 5.05445 14.813 5.05447M5.13231 18.5769L5.13224 17.7125C5.13203 14.9358 7.38295 12.6847 10.1597 12.6847M4.80078 7.54584H13.0898C14.1944 7.54584 15.0898 6.65041 15.0898 5.54584V5.26788C15.0898 4.16331 14.1944 3.26788 13.0898 3.26788H4.80078C3.69621 3.26788 2.80078 4.16331 2.80078 5.26788V5.54584C2.80078 6.65041 3.69621 7.54584 4.80078 7.54584ZM11.7539 14.8238H20.043C21.1475 14.8238 22.043 13.9284 22.043 12.8238V12.5458C22.043 11.4413 21.1475 10.5458 20.043 10.5458H11.7539C10.6493 10.5458 9.75391 11.4413 9.75391 12.5458V12.8238C9.75391 13.9284 10.6493 14.8238 11.7539 14.8238ZM4.80078 22.1017H13.0898C14.1944 22.1017 15.0898 21.2063 15.0898 20.1017V19.8238C15.0898 18.7192 14.1944 17.8238 13.0898 17.8238H4.80078C3.69621 17.8238 2.80078 18.7192 2.80078 19.8238V20.1017C2.80078 21.2063 3.69621 22.1017 4.80078 22.1017Z" stroke="#5A6E87" stroke-width="1.5"/>
</svg>
