<svg width="33" height="32" viewBox="0 0 33 32" fill="none" xmlns="http://www.w3.org/2000/svg">
<path d="M4.35156 6.38507C4.35156 5.2805 5.24699 4.38507 6.35156 4.38507H12.6828C13.7873 4.38507 14.6828 5.2805 14.6828 6.38507V12.7163C14.6828 13.8209 13.7873 14.7163 12.6828 14.7163H6.35156C5.24699 14.7163 4.35156 13.8209 4.35156 12.7163V6.38507Z" stroke="#5A6E87" stroke-width="2"/>
<path d="M4.35156 19.7883C4.35156 18.6837 5.24699 17.7883 6.35156 17.7883H12.6828C13.7873 17.7883 14.6828 18.6837 14.6828 19.7883V26.1195C14.6828 27.224 13.7873 28.1195 12.6828 28.1195H6.35156C5.24699 28.1195 4.35156 27.224 4.35156 26.1195V19.7883Z" stroke="#5A6E87" stroke-width="2"/>
<path d="M17.5703 6.38507C17.5703 5.2805 18.4657 4.38507 19.5703 4.38507H25.9015C27.0061 4.38507 27.9015 5.2805 27.9015 6.38507V12.7163C27.9015 13.8209 27.0061 14.7163 25.9015 14.7163H19.5703C18.4657 14.7163 17.5703 13.8209 17.5703 12.7163V6.38507Z" stroke="#5A6E87" stroke-width="2"/>
<path d="M7.21094 8.24872C7.21094 7.69643 7.65865 7.24872 8.21094 7.24872H10.8148C11.3671 7.24872 11.8148 7.69643 11.8148 8.24872V10.8526C11.8148 11.4049 11.3671 11.8526 10.8148 11.8526H8.21094C7.65865 11.8526 7.21094 11.4049 7.21094 10.8526V8.24872Z" fill="#5A6E87"/>
<path d="M7.21094 21.6519C7.21094 21.0996 7.65865 20.6519 8.21094 20.6519H10.8148C11.3671 20.6519 11.8148 21.0996 11.8148 21.6519V24.2558C11.8148 24.8081 11.3671 25.2558 10.8148 25.2558H8.21094C7.65865 25.2558 7.21094 24.8081 7.21094 24.2558V21.6519Z" fill="#5A6E87"/>
<path d="M20.4297 8.24872C20.4297 7.69643 20.8774 7.24872 21.4297 7.24872H24.0336C24.5859 7.24872 25.0336 7.69643 25.0336 8.24872V10.8526C25.0336 11.4049 24.5859 11.8526 24.0336 11.8526H21.4297C20.8774 11.8526 20.4297 11.4049 20.4297 10.8526V8.24872Z" fill="#5A6E87"/>
<path d="M19.6641 19.2175H22.6314V22.1848H19.6641V19.2175Z" fill="#5A6E87"/>
<path d="M22.6406 25.152H25.6079V28.1193H22.6406V25.152Z" fill="#5A6E87"/>
<path d="M25.6094 19.2175H28.5767V22.1848H25.6094V19.2175Z" fill="#5A6E87"/>
<path d="M25.6094 22.1848H28.5767V25.152H25.6094V22.1848Z" fill="#5A6E87"/>
<path d="M22.6406 16.3046H25.6079V19.2719H22.6406V16.3046Z" fill="#5A6E87"/>
<path d="M19.6641 25.1521H22.6314V28.1194H19.6641V25.1521Z" fill="#5A6E87"/>
<path d="M16.6953 22.1847H19.6626V25.152H16.6953V22.1847Z" fill="#5A6E87"/>
</svg>
