<svg width="33" height="33" viewBox="0 0 33 33" fill="none" xmlns="http://www.w3.org/2000/svg">
<path d="M17.5427 9.22009H14.4883C13.3837 9.22009 12.4883 10.1155 12.4883 11.2201V27.7468C12.4883 28.8514 13.3837 29.7468 14.4883 29.7468H17.5427C18.6473 29.7468 19.5427 28.8514 19.5427 27.7468V19.4835V11.2201C19.5427 10.1155 18.6473 9.22009 17.5427 9.22009Z" fill="#BFDBFE"/>
<path d="M17.5427 9.22009H14.4883C13.3837 9.22009 12.4883 10.1155 12.4883 11.2201V27.7468C12.4883 28.8514 13.3837 29.7468 14.4883 29.7468H17.5427C18.6473 29.7468 19.5427 28.8514 19.5427 27.7468V11.2201C19.5427 10.1155 18.6473 9.22009 17.5427 9.22009Z" fill="#BFDBFE"/>
<path d="M27.5232 13.8361H24.4688C23.3642 13.8361 22.4688 14.7315 22.4688 15.8361V27.9532C22.4688 29.0578 23.3642 29.9532 24.4688 29.9532H27.5232C28.6277 29.9532 29.5232 29.0578 29.5232 27.9532V15.8361C29.5232 14.7315 28.6277 13.8361 27.5232 13.8361Z" stroke="#5A6E87" stroke-width="2"/>
<path d="M17.5427 9.22009H14.4883C13.3837 9.22009 12.4883 10.1155 12.4883 11.2201V27.7468C12.4883 28.8514 13.3837 29.7468 14.4883 29.7468H17.5427C18.6473 29.7468 19.5427 28.8514 19.5427 27.7468V11.2201C19.5427 10.1155 18.6473 9.22009 17.5427 9.22009Z" stroke="#5A6E87" stroke-width="2"/>
<path d="M7.78096 3.80798H4.72656C3.62199 3.80798 2.72656 4.70341 2.72656 5.80798V27.7468C2.72656 28.8514 3.62199 29.7468 4.72656 29.7468H7.78097C8.88554 29.7468 9.78097 28.8514 9.78097 27.7468V5.80798C9.78097 4.70341 8.88553 3.80798 7.78096 3.80798Z" stroke="#5A6E87" stroke-width="2"/>
</svg>
