<svg width="32" height="30" viewBox="0 0 45 42" fill="none" xmlns="http://www.w3.org/2000/svg">
<path d="M9.171 6.74065L7.93901 11.6054C7.36338 13.9009 6.80179 15.5646 6.25424 16.5966C5.70669 17.6285 5.06437 18.3901 4.32728 18.8815C3.59722 19.3799 2.75834 19.6291 1.81066 19.6291C1.21397 19.6291 0.775229 19.5133 0.494435 19.2817C0.21364 19.057 0.0732422 18.7903 0.0732422 18.4814C0.0732422 18.1936 0.18907 17.9444 0.420726 17.7338C0.652382 17.5232 0.957746 17.4179 1.33682 17.4179C1.65271 17.4179 1.8949 17.4986 2.06338 17.6601C2.23185 17.8215 2.31609 18.0251 2.31609 18.2708C2.31609 18.4954 2.26344 18.6604 2.15814 18.7657C2.05285 18.878 2.0002 18.9517 2.0002 18.9868L2.05285 19.0605C2.09497 19.0956 2.1441 19.1132 2.20026 19.1132C2.41086 19.1132 2.58987 19.0465 2.73728 18.9131C3.10934 18.5832 3.38662 18.183 3.56914 17.7127C3.6955 17.3898 3.93768 16.5369 4.2957 15.154L6.44378 6.74065H4.98013L5.32762 5.50866C5.85411 5.51568 6.23669 5.449 6.47537 5.3086C6.71404 5.1682 6.96676 4.85231 7.23351 4.36091C8.0057 2.93588 8.82 1.91449 9.67643 1.29674C10.5329 0.678992 11.4876 0.370117 12.5405 0.370117C13.2144 0.370117 13.7023 0.499985 14.0042 0.75972C14.3131 1.01946 14.4675 1.35641 14.4675 1.77058C14.4675 2.13562 14.3657 2.42694 14.1621 2.64456C13.9585 2.85515 13.7058 2.96045 13.404 2.96045C13.1232 2.96045 12.8915 2.8727 12.709 2.6972C12.5265 2.52171 12.4352 2.31111 12.4352 2.06542C12.4352 1.88992 12.4914 1.70389 12.6037 1.50734C12.7231 1.31078 12.7827 1.1774 12.7827 1.1072C12.7827 1.02999 12.7546 0.966806 12.6985 0.917667C12.6493 0.868528 12.5827 0.843959 12.4984 0.843959C12.0842 0.843959 11.6595 1.10018 11.2243 1.61263C10.5083 2.43396 9.93265 3.73264 9.49742 5.50866H11.0242L10.6557 6.74065H9.171Z" fill="#5A6E87"/>
<path d="M11.6876 5.84562L15.3625 5.21383C16.0294 6.25979 16.4997 7.41105 16.7735 8.66761C17.4615 7.64972 17.9809 6.93721 18.3319 6.53006C18.8023 5.9825 19.1884 5.628 19.4902 5.46654C19.7991 5.29807 20.1255 5.21383 20.4695 5.21383C20.8556 5.21383 21.1504 5.31913 21.354 5.52972C21.5646 5.74032 21.6699 6.02462 21.6699 6.38264C21.6699 6.71959 21.5646 6.99688 21.354 7.21449C21.1504 7.42509 20.8942 7.53039 20.5853 7.53039C20.3607 7.53039 20.1009 7.49178 19.8061 7.41456C19.5183 7.33032 19.3182 7.2882 19.2059 7.2882C18.9111 7.2882 18.6303 7.3935 18.3635 7.6041C17.9985 7.89191 17.5492 8.50615 17.0157 9.44681C17.6124 11.5528 18.0897 12.8374 18.4478 13.3007C18.6584 13.5745 18.8725 13.7114 19.0901 13.7114C19.2726 13.7114 19.4305 13.6658 19.5639 13.5745C19.7675 13.4271 20.0799 13.0585 20.5011 12.4689L20.8801 12.69C20.2624 13.6868 19.6587 14.3888 19.069 14.796C18.6197 15.1118 18.1775 15.2698 17.7423 15.2698C17.293 15.2698 16.9174 15.1715 16.6156 14.975C16.3207 14.7714 16.0575 14.445 15.8258 13.9957C15.5942 13.5394 15.3204 12.8128 15.0045 11.816C14.1832 12.862 13.5374 13.6271 13.067 14.1115C12.6037 14.5889 12.2176 14.9013 11.9087 15.0487C11.5999 15.1961 11.2699 15.2698 10.9189 15.2698C10.5539 15.2698 10.2661 15.1645 10.0555 14.9539C9.83788 14.7433 9.72908 14.4695 9.72908 14.1326C9.72908 13.7746 9.8449 13.4797 10.0766 13.2481C10.3082 13.0164 10.6031 12.9006 10.9611 12.9006C11.1506 12.9006 11.3647 12.9567 11.6034 13.0691C11.9544 13.2375 12.2071 13.3218 12.3615 13.3218C12.5651 13.3218 12.7476 13.2797 12.9091 13.1954C13.1197 13.0901 13.3864 12.862 13.7093 12.511C13.9059 12.2934 14.2674 11.8301 14.7939 11.1211C14.12 8.62198 13.5935 7.12674 13.2144 6.63535C12.9758 6.31946 12.6739 6.16151 12.3089 6.16151C12.1193 6.16151 11.8877 6.18959 11.6139 6.24575L11.6876 5.84562Z" fill="#5A6E87"/>
</svg>
