<svg width="25" height="25" viewBox="0 0 25 25" fill="none" xmlns="http://www.w3.org/2000/svg">
<g clip-path="url(#clip0_370_22977)">
<path d="M3.92969 18.0159L3.92969 22.9065H8.01606L8.01606 18.0159M3.92969 18.0159H8.01606M3.92969 18.0159L3.92969 7.78148M8.01606 18.0159V7.78148M17.0977 18.0159V22.9065H23.9215V18.0159M17.0977 18.0159H23.9215M17.0977 18.0159V7.78148M23.9215 18.0159V7.78148M3.92969 7.78148H8.01606M3.92969 7.78148L3.92969 3.4063L8.01606 3.4063V7.78148M17.0977 7.78148H23.9215M17.0977 7.78148V3.4063L23.9215 3.4063V7.78148M10.7828 12.2628L9.73103 13.1288M9.73103 13.1288L10.7828 14.0509M9.73103 13.1288H12.5313M14.3784 12.2628L15.4302 13.1288M15.4302 13.1288L14.3784 14.0509M15.4302 13.1288H12.4219M8.01953 7.78153L8.01953 3.4063L17.0992 3.4063V7.78153H8.01953ZM8.01953 22.9074L8.01953 18.0168H17.0992V22.9074H8.01953Z" stroke="#5A6E87" stroke-width="1.2" stroke-linecap="round" stroke-linejoin="round"/>
</g>
<rect x="3.92969" y="4.15631" width="17.2499" height="17.25" rx="1.5" stroke="#5A6E87" stroke-width="1.5"/>
<defs>
<clipPath id="clip0_370_22977">
<rect x="3.92969" y="4.15631" width="17.2499" height="17.25" rx="1.5" fill="white"/>
</clipPath>
</defs>
</svg>
