<svg width="25" height="25" viewBox="0 0 25 25" fill="none" xmlns="http://www.w3.org/2000/svg">
<path d="M8.81898 11.2283C9.10992 10.9335 9.10677 10.4586 8.81193 10.1677C8.5171 9.87673 8.04224 9.87988 7.7513 10.1747L8.81898 11.2283ZM6.46443 12.5466L5.93059 12.0198L5.38139 12.5763L5.96032 13.1019L6.46443 12.5466ZM7.78103 14.7547C8.08772 15.0332 8.56204 15.0102 8.84045 14.7035C9.11886 14.3969 9.09594 13.9225 8.78925 13.6441L7.78103 14.7547ZM5.17447 10.1747C4.88353 9.87988 4.40867 9.87673 4.11383 10.1677C3.819 10.4586 3.81584 10.9335 4.10678 11.2283L5.17447 10.1747ZM6.46134 12.5466L6.96545 13.1019L7.54438 12.5763L6.99518 12.0198L6.46134 12.5466ZM4.13651 13.6441C3.82982 13.9225 3.8069 14.3969 4.08532 14.7035C4.36373 15.0102 4.83805 15.0332 5.14474 14.7547L4.13651 13.6441ZM4.64453 5.73273H12.2824V4.23273H4.64453V5.73273ZM15.5324 8.98272V9.91689H17.0324V8.98272H15.5324ZM12.2824 5.73273C14.0773 5.73273 15.5324 7.1878 15.5324 8.98272H17.0324C17.0324 6.35937 14.9058 4.23273 12.2824 4.23273V5.73273ZM4.64453 21.0055H12.2824V19.5055H4.64453V21.0055ZM17.0324 16.2555V15.3213H15.5324V16.2555H17.0324ZM12.2824 21.0055C14.9058 21.0055 17.0324 18.8788 17.0324 16.2555H15.5324C15.5324 18.0504 14.0773 19.5055 12.2824 19.5055V21.0055ZM7.7513 10.1747L5.93059 12.0198L6.99827 13.0734L8.81898 11.2283L7.7513 10.1747ZM5.96032 13.1019L7.78103 14.7547L8.78925 13.6441L6.96854 11.9913L5.96032 13.1019ZM4.10678 11.2283L5.9275 13.0734L6.99518 12.0198L5.17447 10.1747L4.10678 11.2283ZM5.95723 11.9913L4.13651 13.6441L5.14474 14.7547L6.96545 13.1019L5.95723 11.9913Z" fill="#5A6E87"/>
<rect x="10.6836" y="9.44034" width="10.5" height="6" rx="1.5" stroke="#5A6E87" stroke-width="1.5"/>
</svg>
