<svg width="33" height="33" viewBox="0 0 33 33" fill="none" xmlns="http://www.w3.org/2000/svg">
<g clip-path="url(#clip0_306_13346)">
<path d="M1.85156 4.85461H10.5182V12.8546H1.85156V4.85461Z" stroke="#5A6E87"/>
<path d="M1.85547 20.8546H10.5221V28.8546H1.85547V20.8546Z" stroke="#5A6E87"/>
<path d="M10.5195 4.85461H19.1862V12.8546H10.5195V4.85461Z" stroke="#5A6E87"/>
<path d="M10.5273 20.8546H19.194V28.8546H10.5273V20.8546Z" stroke="#5A6E87"/>
<path d="M19.1836 4.85461H27.8503V12.8546H19.1836V4.85461Z" stroke="#5A6E87"/>
<path d="M19.1914 20.8546H27.8581V28.8546H19.1914V20.8546Z" stroke="#5A6E87"/>
<path d="M12.25 15.1934L10.5205 16.946L12.25 18.516M8.78906 15.1934L10.5185 16.946L8.78906 18.516" stroke="#5A6E87" stroke-width="1.6" stroke-linecap="round"/>
</g>
<rect x="1.85156" y="4.85461" width="26" height="24" rx="2" stroke="#5A6E87" stroke-width="2"/>
<path d="M16.5312 14.8546C16.5312 13.75 17.4267 12.8546 18.5312 12.8546H28.6758C29.7804 12.8546 30.6758 13.75 30.6758 14.8546V18.8546C30.6758 19.9592 29.7804 20.8546 28.6758 20.8546H18.5313C17.4267 20.8546 16.5312 19.9592 16.5312 18.8546V14.8546Z" fill="#BFDBFE" stroke="#5A6E87"/>
<defs>
<clipPath id="clip0_306_13346">
<rect x="1.85156" y="4.85461" width="26" height="24" rx="2" fill="white"/>
</clipPath>
</defs>
</svg>
