<svg width="25" height="25" viewBox="0 0 25 25" fill="none" xmlns="http://www.w3.org/2000/svg">
<rect x="3.12891" y="3.89606" width="17.9999" height="17.25" rx="1.5" stroke="#5A6E87" stroke-width="1.5"/>
<path d="M10.5325 11.1553C10.7653 10.9194 10.7628 10.5395 10.5269 10.3068C10.291 10.074 9.91115 10.0766 9.6784 10.3124L10.5325 11.1553ZM8.39373 12.4685L7.96666 12.0471L7.5273 12.4923L7.99044 12.9128L8.39373 12.4685ZM9.70218 14.4667C9.94753 14.6894 10.327 14.6711 10.5497 14.4257C10.7724 14.1804 10.7541 13.8009 10.5088 13.5782L9.70218 14.4667ZM7.10676 10.3124C6.87401 10.0766 6.49412 10.074 6.25825 10.3068C6.02239 10.5395 6.01986 10.9194 6.25261 11.1553L7.10676 10.3124ZM8.39143 12.4685L8.79472 12.9127L9.25786 12.4923L8.8185 12.0471L8.39143 12.4685ZM6.2764 13.5782C6.03105 13.8009 6.01271 14.1804 6.23544 14.4257C6.45817 14.6711 6.83763 14.6894 7.08298 14.4667L6.2764 13.5782ZM13.6508 11.0208C13.6508 10.5237 14.0537 10.1208 14.5508 10.1208V8.92078C13.391 8.92078 12.4508 9.86098 12.4508 11.0208H13.6508ZM14.5508 10.1208H22.1591V8.92078H14.5508V10.1208ZM22.1591 10.1208C22.6562 10.1208 23.0591 10.5237 23.0591 11.0208H24.2591C24.2591 9.86098 23.3189 8.92078 22.1591 8.92078V10.1208ZM23.0591 11.0208V14.0208H24.2591V11.0208H23.0591ZM23.0591 14.0208C23.0591 14.5178 22.6562 14.9208 22.1591 14.9208V16.1208C23.3189 16.1208 24.2591 15.1806 24.2591 14.0208H23.0591ZM22.1591 14.9208H14.5508V16.1208H22.1591V14.9208ZM14.5508 14.9208C14.0537 14.9208 13.6508 14.5178 13.6508 14.0208H12.4508C12.4508 15.1806 13.391 16.1208 14.5508 16.1208V14.9208ZM13.6508 14.0208V11.0208H12.4508V14.0208H13.6508ZM17.7109 9.53149V15.2248H18.9109V9.53149H17.7109ZM9.6784 10.3124L7.96666 12.0471L8.8208 12.8899L10.5325 11.1553L9.6784 10.3124ZM7.99044 12.9128L9.70218 14.4667L10.5088 13.5782L8.79702 12.0243L7.99044 12.9128ZM6.25261 11.1553L7.96435 12.8899L8.8185 12.0471L7.10676 10.3124L6.25261 11.1553ZM7.98814 12.0243L6.2764 13.5782L7.08298 14.4667L8.79472 12.9127L7.98814 12.0243Z" fill="#5A6E87"/>
</svg>
