<svg width="33" height="33" viewBox="0 0 33 33" fill="none" xmlns="http://www.w3.org/2000/svg">
<g clip-path="url(#clip0_306_13347)">
<path d="M3.01562 12.4055H11.6823V28.4055H3.01562V12.4055Z" fill="#BFDBFE"/>
<path d="M11.6875 12.4055H29.0156V20.4055H11.6875V12.4055Z" fill="#BFDBFE"/>
<path d="M3.01562 4.40552V3.80552H2.41562V4.40552H3.01562ZM11.6823 4.40552H12.2823V3.80552H11.6823V4.40552ZM11.6823 12.4055V13.0055H12.2823V12.4055H11.6823ZM3.01562 12.4055H2.41562V13.0055H3.01562V12.4055ZM11.6836 4.40552V3.80552H11.0836V4.40552H11.6836ZM20.3503 4.40552H20.9503V3.80552H20.3503V4.40552ZM20.3503 12.4055V13.0055H20.9503V12.4055H20.3503ZM11.6836 12.4055H11.0836V13.0055H11.6836V12.4055ZM11.6914 20.4055V19.8055H11.0914V20.4055H11.6914ZM20.3581 20.4055H20.9581V19.8055H20.3581V20.4055ZM20.3581 28.4055V29.0055H20.9581V28.4055H20.3581ZM11.6914 28.4055H11.0914V29.0055H11.6914V28.4055ZM20.3477 4.40552V3.80552H19.7477V4.40552H20.3477ZM29.0143 4.40552H29.6143V3.80552H29.0143V4.40552ZM29.0143 12.4055V13.0055H29.6143V12.4055H29.0143ZM20.3477 12.4055H19.7477V13.0055H20.3477V12.4055ZM20.3555 20.4055V19.8055H19.7555V20.4055H20.3555ZM29.0221 20.4055H29.6221V19.8055H29.0221V20.4055ZM29.0221 28.4055V29.0055H29.6221V28.4055H29.0221ZM20.3555 28.4055H19.7555V29.0055H20.3555V28.4055ZM22.8828 17.0882C23.2142 17.0882 23.4828 16.8195 23.4828 16.4882C23.4828 16.1568 23.2142 15.8882 22.8828 15.8882V17.0882ZM16.0248 16.4882L15.6538 16.0166C15.5052 16.1336 15.4204 16.3137 15.425 16.5027C15.4296 16.6918 15.523 16.8676 15.6772 16.9772L16.0248 16.4882ZM18.125 15.5991C18.3854 15.3942 18.4304 15.017 18.2255 14.7566C18.0206 14.4962 17.6433 14.4512 17.3829 14.6561L18.125 15.5991ZM17.4063 18.2065C17.6763 18.3985 18.0509 18.3353 18.2429 18.0652C18.435 17.7951 18.3717 17.4205 18.1016 17.2285L17.4063 18.2065ZM7.12156 23.8345C7.12156 24.1658 7.39019 24.4345 7.72156 24.4345C8.05293 24.4345 8.32156 24.1658 8.32156 23.8345L7.12156 23.8345ZM7.72156 16.9765L8.21739 16.6386C8.10682 16.4764 7.92387 16.3785 7.72753 16.3765C7.5312 16.3746 7.34633 16.4688 7.23256 16.6288L7.72156 16.9765ZM8.40399 19.0435C8.59059 19.3173 8.96385 19.388 9.23769 19.2014C9.51153 19.0148 9.58225 18.6416 9.39565 18.3677L8.40399 19.0435ZM6.00319 18.3579C5.81117 18.628 5.87445 19.0026 6.14451 19.1946C6.41458 19.3866 6.78917 19.3233 6.98119 19.0533L6.00319 18.3579ZM3.01562 5.00552H11.6823V3.80552H3.01562V5.00552ZM11.0823 4.40552V12.4055H12.2823V4.40552H11.0823ZM11.6823 11.8055H3.01562V13.0055H11.6823V11.8055ZM3.61563 12.4055V4.40552H2.41562V12.4055H3.61563ZM11.6836 5.00552H20.3503V3.80552H11.6836V5.00552ZM19.7503 4.40552V12.4055H20.9503V4.40552H19.7503ZM20.3503 11.8055H11.6836V13.0055H20.3503V11.8055ZM12.2836 12.4055V4.40552H11.0836V12.4055H12.2836ZM11.6914 21.0055H20.3581V19.8055H11.6914V21.0055ZM19.7581 20.4055V28.4055H20.9581V20.4055H19.7581ZM20.3581 27.8055H11.6914V29.0055H20.3581V27.8055ZM12.2914 28.4055V20.4055H11.0914V28.4055H12.2914ZM20.3477 5.00552H29.0143V3.80552H20.3477V5.00552ZM28.4143 4.40552V12.4055H29.6143V4.40552H28.4143ZM29.0143 11.8055H20.3477V13.0055H29.0143V11.8055ZM20.9477 12.4055V4.40552H19.7477V12.4055H20.9477ZM20.3555 21.0055H29.0221V19.8055H20.3555V21.0055ZM28.4221 20.4055V28.4055H29.6221V20.4055H28.4221ZM29.0221 27.8055H20.3555V29.0055H29.0221V27.8055ZM20.9555 28.4055V20.4055H19.7555V28.4055H20.9555ZM22.8828 15.8882H16.0248V17.0882H22.8828V15.8882ZM17.3829 14.6561L15.6538 16.0166L16.3959 16.9597L18.125 15.5991L17.3829 14.6561ZM15.6772 16.9772L17.4063 18.2065L18.1016 17.2285L16.3725 15.9992L15.6772 16.9772ZM8.32156 23.8345L8.32156 16.9765L7.12156 16.9765L7.12156 23.8345L8.32156 23.8345ZM9.39565 18.3677L8.21739 16.6386L7.22573 17.3144L8.40399 19.0435L9.39565 18.3677ZM7.23256 16.6288L6.00319 18.3579L6.98119 19.0533L8.21056 17.3242L7.23256 16.6288Z" fill="#5A6E87"/>
</g>
<rect x="3.01562" y="4.40552" width="26" height="24" rx="2" stroke="#5A6E87" stroke-width="2"/>
<defs>
<clipPath id="clip0_306_13347">
<rect x="3.01562" y="4.40552" width="26" height="24" rx="2" fill="white"/>
</clipPath>
</defs>
</svg>
