<svg width="25" height="25" viewBox="0 0 25 25" fill="none" xmlns="http://www.w3.org/2000/svg">
<path d="M12.0822 9.11639C12.0822 9.5306 12.418 9.86639 12.8322 9.86639C13.2464 9.86639 13.5822 9.5306 13.5822 9.11639L12.0822 9.11639ZM12.8322 3.9729L13.4559 3.55637C13.3189 3.35124 13.0898 3.22659 12.8431 3.22298C12.5965 3.21938 12.3639 3.33728 12.2209 3.53831L12.8322 3.9729ZM13.0746 5.68626C13.3046 6.03072 13.7703 6.12347 14.1148 5.89343C14.4593 5.66338 14.552 5.19766 14.322 4.8532L13.0746 5.68626ZM11.2989 4.83514C11.0589 5.17273 11.138 5.64097 11.4756 5.88098C11.8132 6.121 12.2814 6.04191 12.5214 5.70432L11.2989 4.83514ZM20.4727 12.3601L19.7227 12.3601V12.3601L20.4727 12.3601ZM16.4727 16.3601L16.4727 15.6101H16.4727V16.3601ZM4.66016 12.36L5.41015 12.36L4.66016 12.36ZM8.66015 16.3599L8.66015 17.1099H8.66015V16.3599ZM13.5822 9.11639L13.5822 3.9729L12.0822 3.9729L12.0822 9.11639L13.5822 9.11639ZM14.322 4.8532L13.4559 3.55637L12.2085 4.38943L13.0746 5.68626L14.322 4.8532ZM12.2209 3.53831L11.2989 4.83514L12.5214 5.70432L13.4434 4.40749L12.2209 3.53831ZM19.7227 4.7222L19.7227 12.3601L21.2227 12.3601L21.2227 4.7222L19.7227 4.7222ZM16.4727 15.6101H15.3636V17.1101H16.4727V15.6101ZM19.7227 12.3601C19.7227 14.1551 18.2676 15.6101 16.4727 15.6101L16.4727 17.1101C19.096 17.1101 21.2227 14.9835 21.2227 12.3601L19.7227 12.3601ZM3.91016 4.72201L3.91016 12.36L5.41015 12.36L5.41015 4.72201L3.91016 4.72201ZM8.66015 17.1099H9.76923V15.6099H8.66015V17.1099ZM3.91016 12.36C3.91016 14.9833 6.0368 17.1099 8.66015 17.1099L8.66015 15.6099C6.86522 15.6099 5.41015 14.1549 5.41015 12.36L3.91016 12.36Z" fill="#5A6E87"/>
<rect x="16.0078" y="11.109" width="10.5" height="6.49997" rx="1.5" transform="rotate(90 16.0078 11.109)" stroke="#5A6E87" stroke-width="1.5"/>
</svg>
