<svg width="33" height="33" viewBox="0 0 33 33" fill="none" xmlns="http://www.w3.org/2000/svg">
<g clip-path="url(#clip0_306_13345)">
<path d="M2.08203 4.4054H10.7487V12.4054H2.08203V4.4054Z" stroke="#5A6E87"/>
<path d="M2.08594 20.4054H10.7526V28.4054H2.08594V20.4054Z" stroke="#5A6E87"/>
<path d="M10.75 4.4054H19.4167V12.4054H10.75V4.4054Z" stroke="#5A6E87"/>
<path d="M10.7578 20.4054H19.4245V28.4054H10.7578V20.4054Z" stroke="#5A6E87"/>
<path d="M19.4141 4.4054H28.0807V12.4054H19.4141V4.4054Z" stroke="#5A6E87"/>
<path d="M19.4219 20.4054H28.0885V28.4054H19.4219V20.4054Z" stroke="#5A6E87"/>
<path d="M13.2773 16.488L6.41936 16.488M6.41936 16.488L8.14847 15.1709M6.41936 16.488L8.14847 17.7174" stroke="#5A6E87" stroke-width="1.6" stroke-linecap="round" stroke-linejoin="round"/>
</g>
<rect x="2.08203" y="4.4054" width="26" height="24" rx="2" stroke="#5A6E87" stroke-width="2"/>
<path d="M16.7617 14.4054C16.7617 13.3008 17.6571 12.4054 18.7617 12.4054H28.9062C30.0108 12.4054 30.9062 13.3008 30.9062 14.4054V18.4054C30.9062 19.51 30.0108 20.4054 28.9062 20.4054H18.7617C17.6571 20.4054 16.7617 19.51 16.7617 18.4054V14.4054Z" stroke="#5A6E87"/>
<path d="M17.1016 14.4871C17.1016 13.4724 17.9504 12.6498 18.9976 12.6498H28.6147C29.6618 12.6498 30.5107 13.4724 30.5107 14.4871V18.1616C30.5107 19.1763 29.6618 19.9989 28.6147 19.9989H18.9976C17.9504 19.9989 17.1016 19.1763 17.1016 18.1616V14.4871Z" fill="#BFDBFE"/>
<defs>
<clipPath id="clip0_306_13345">
<rect x="2.08203" y="4.4054" width="26" height="24" rx="2" fill="white"/>
</clipPath>
</defs>
</svg>
