<svg width="25" height="25" viewBox="0 0 25 25" fill="none" xmlns="http://www.w3.org/2000/svg">
<path d="M9.23722 12.9369C9.65143 12.9369 9.98721 12.6012 9.98721 12.1869C9.98721 11.7727 9.65143 11.4369 9.23722 11.4369L9.23722 12.9369ZM4.09375 12.1869L3.67721 11.5633C3.47209 11.7002 3.34744 11.9293 3.34383 12.176C3.34023 12.4226 3.45812 12.6553 3.65916 12.7982L4.09375 12.1869ZM5.80711 11.9446C6.15157 11.7145 6.24432 11.2488 6.01427 10.9043C5.78422 10.5599 5.3185 10.4671 4.97404 10.6972L5.80711 11.9446ZM4.95598 13.7202C5.29357 13.9602 5.76181 13.8812 6.00183 13.5436C6.24184 13.206 6.16275 12.7377 5.82517 12.4977L4.95598 13.7202ZM9.23722 11.4369L4.09375 11.437L4.09375 12.9369L9.23722 12.9369L9.23722 11.4369ZM4.97404 10.6972L3.67721 11.5633L4.51029 12.8106L5.80711 11.9446L4.97404 10.6972ZM3.65916 12.7982L4.95598 13.7202L5.82517 12.4977L4.52834 11.5757L3.65916 12.7982ZM5.21768 5.11661H12.8556V3.61661H5.21768V5.11661ZM16.1056 8.3666V9.36975H17.6056V8.3666H16.1056ZM12.8556 5.11661C14.6505 5.11661 16.1056 6.57168 16.1056 8.3666H17.6056C17.6056 5.74325 15.4789 3.61661 12.8556 3.61661V5.11661ZM5.21768 20.6028H12.8556V19.1028H5.21768V20.6028ZM17.6056 15.8529V14.8497H16.1056V15.8529H17.6056ZM12.8556 20.6028C15.4789 20.6028 17.6056 18.4762 17.6056 15.8529H16.1056C16.1056 17.6478 14.6505 19.1028 12.8556 19.1028V20.6028Z" fill="#5A6E87"/>
<rect x="11.2852" y="9.08972" width="10.5" height="6" rx="1.5" stroke="#5A6E87" stroke-width="1.5"/>
</svg>
