<svg width="25" height="25" viewBox="0 0 25 25" fill="none" xmlns="http://www.w3.org/2000/svg">
<rect x="3.29688" y="3.26129" width="17.9999" height="18" rx="1.5" stroke="#5A6E87" stroke-width="1.5"/>
<path d="M10.9091 12.9233C11.2405 12.9233 11.5091 12.6546 11.5091 12.3233C11.5091 11.9919 11.2405 11.7233 10.9091 11.7233L10.9091 12.9233ZM5.76562 12.3233L5.40206 11.846C5.25031 11.9616 5.16257 12.1424 5.16571 12.3331C5.16884 12.5239 5.26249 12.7017 5.41795 12.8123L5.76562 12.3233ZM7.42602 11.8128C7.68963 11.612 7.74054 11.2355 7.53975 10.9719C7.33896 10.7083 6.96249 10.6574 6.69888 10.8582L7.42602 11.8128ZM6.71478 13.7343C6.98484 13.9263 7.35943 13.863 7.55145 13.593C7.74346 13.3229 7.68019 12.9483 7.41012 12.7563L6.71478 13.7343ZM10.9091 11.7233L5.76562 11.7233L5.76563 12.9233L10.9091 12.9233L10.9091 11.7233ZM6.69888 10.8582L5.40206 11.846L6.12919 12.8006L7.42602 11.8128L6.69888 10.8582ZM5.41795 12.8123L6.71478 13.7343L7.41012 12.7563L6.1133 11.8343L5.41795 12.8123ZM13.7317 10.8317C13.7317 10.3346 14.1347 9.93169 14.6317 9.93169V8.7317C13.4719 8.7317 12.5317 9.6719 12.5317 10.8317H13.7317ZM14.6317 9.93169H22.2401V8.7317H14.6317V9.93169ZM22.2401 9.93169C22.7372 9.93169 23.1401 10.3346 23.1401 10.8317H24.3401C24.3401 9.6719 23.3999 8.7317 22.2401 8.7317V9.93169ZM23.1401 10.8317V13.8317H24.3401V10.8317H23.1401ZM23.1401 13.8317C23.1401 14.3288 22.7372 14.7317 22.2401 14.7317V15.9317C23.3999 15.9317 24.3401 14.9915 24.3401 13.8317H23.1401ZM22.2401 14.7317H14.6317V15.9317H22.2401V14.7317ZM14.6317 14.7317C14.1347 14.7317 13.7317 14.3288 13.7317 13.8317H12.5317C12.5317 14.9915 13.472 15.9317 14.6317 15.9317V14.7317ZM13.7317 13.8317V10.8317H12.5317V13.8317H13.7317ZM17.7918 9.34241V15.0357H18.9918V9.34241H17.7918Z" fill="#5A6E87"/>
</svg>
