<svg width="25" height="25" viewBox="0 0 25 25" fill="none" xmlns="http://www.w3.org/2000/svg">
<g clip-path="url(#clip0_370_23265)">
<path d="M9.67966 4.15613H3.92969V10.1561H9.67966M9.67966 4.15613V10.1561M9.67966 4.15613H15.4297M9.67966 10.1561H15.4297M15.4297 4.15613V10.1561M15.4297 4.15613H21.1799V10.1561H15.4297M10.5401 14.619L10.54 14.4237C10.5391 13.3604 11.4008 12.4979 12.4641 12.4979C13.5268 12.4979 14.3883 13.3594 14.3883 14.4221V14.6194M10.5117 18.7322H14.4414C14.8556 18.7322 15.1914 18.3964 15.1914 17.9822V15.2534C15.1914 14.8392 14.8556 14.5034 14.4414 14.5034H10.5117C10.0975 14.5034 9.76172 14.8392 9.76172 15.2534V17.9822C9.76172 18.3964 10.0975 18.7322 10.5117 18.7322Z" stroke="#5A6E87" stroke-width="1.5"/>
</g>
<rect x="3.92969" y="4.15613" width="17.2499" height="17.25" rx="1.5" stroke="#5A6E87" stroke-width="1.5"/>
<defs>
<clipPath id="clip0_370_23265">
<rect x="3.92969" y="4.15613" width="17.2499" height="17.25" rx="1.5" fill="white"/>
</clipPath>
</defs>
</svg>
