<svg width="25" height="25" viewBox="0 0 25 25" fill="none" xmlns="http://www.w3.org/2000/svg">
<g clip-path="url(#clip0_370_23241)">
<path d="M17.6837 21.4063H22.5743V17.3199M17.6837 21.4063V17.3199M17.6837 21.4063H7.44925M17.6837 17.3199L22.5743 17.3199M17.6837 17.3199H7.44925M17.6837 17.3199V8.24028M22.5743 17.3199V8.24028M22.5743 8.24028L17.6837 8.24028M22.5743 8.24028L22.5743 1.41641L17.6837 1.41641M17.6837 8.24028L17.6837 1.41641M17.6837 8.24028L7.44925 8.24028M17.6837 1.41641L7.44925 1.41641M7.44925 21.4063L7.44925 17.3199M7.44925 21.4063H3.07422V17.3194M7.44925 17.3199L3.07422 17.3194M7.44925 17.3199L7.44925 8.24028M7.44925 8.24028L7.44925 1.41641M7.44925 8.24028L3.07422 8.24038M7.44925 1.41641L3.07422 1.4165L3.07422 8.24038M3.07422 8.24038V17.3194M11.9308 14.5532L12.7969 15.605M12.7969 15.605L13.7189 14.5532M12.7969 15.605V12.8046M11.9308 10.9595L12.7969 9.90775M12.7969 9.90775L13.7189 10.9595M12.7969 9.90775L12.7969 12.9161" stroke="#5A6E87" stroke-width="1.2" stroke-linecap="round" stroke-linejoin="round"/>
</g>
<rect x="3.92969" y="4.15631" width="17.2499" height="17.25" rx="1.5" stroke="#5A6E87" stroke-width="1.5"/>
<defs>
<clipPath id="clip0_370_23241">
<rect x="3.92969" y="4.15631" width="17.2499" height="17.25" rx="1.5" fill="white"/>
</clipPath>
</defs>
</svg>
