<svg width="25" height="24" viewBox="0 0 25 24" fill="none" xmlns="http://www.w3.org/2000/svg">
<path d="M9.04778 8.97559L9.04832 7.00101C9.04891 4.86137 10.7834 3.12707 12.923 3.12673C15.0653 3.12639 16.8014 4.86425 16.799 7.00651L16.7967 8.97559M6.57031 20.6002H19.2812C20.1096 20.6002 20.7812 19.9287 20.7812 19.1002V9.86408C20.7812 9.03565 20.1096 8.36408 19.2812 8.36408H6.57031C5.74188 8.36408 5.07031 9.03565 5.07031 9.86408V19.1002C5.07031 19.9287 5.74188 20.6002 6.57031 20.6002ZM14.395 12.3749C14.395 12.8954 14.1199 13.3517 13.7071 13.6062L14.9616 16.1947C15.2143 16.7162 14.8344 17.3224 14.2549 17.3224H11.6495C11.07 17.3224 10.6901 16.7162 10.9429 16.1947L12.196 13.6088C11.7809 13.3548 11.5039 12.8972 11.5039 12.3749C11.5039 11.5765 12.1511 10.9293 12.9495 10.9293C13.7478 10.9293 14.395 11.5765 14.395 12.3749Z" stroke="#5A6E87" stroke-width="1.5" stroke-linejoin="round"/>
</svg>
