<svg width="33" height="33" viewBox="0 0 33 33" fill="none" xmlns="http://www.w3.org/2000/svg">
<path d="M7.41863 16.6978V15.4648M9.48693 8.92582C9.48693 7.85662 10.3537 6.98987 11.4229 6.98987H23.0537C24.1229 6.98987 24.9897 7.85663 24.9897 8.92582V10.5706H28.2604C29.3296 10.5706 30.1964 11.4374 30.1964 12.5066V27.6773C30.1964 28.7465 29.3296 29.6133 28.2604 29.6133H4.06096C2.99176 29.6133 2.125 28.7465 2.125 27.6773V12.5066C2.125 11.4374 2.99176 10.5706 4.06096 10.5706H9.48693V8.92582Z" stroke="#5A6E87" stroke-width="2" stroke-linecap="round"/>
<path d="M21.6803 18.9863C21.6803 21.2603 19.8368 23.1038 17.5628 23.1038C15.2888 23.1038 13.4453 21.2603 13.4453 18.9863C13.4453 16.7122 15.2888 14.8688 17.5628 14.8688C19.8368 14.8688 21.6803 16.7122 21.6803 18.9863Z" fill="#BFDBFE"/>
<path d="M23.6967 18.9863C23.6967 22.3726 20.9515 25.1178 17.5651 25.1178C14.1788 25.1178 11.4336 22.3726 11.4336 18.9863C11.4336 15.5999 14.1788 12.8547 17.5651 12.8547C20.9515 12.8547 23.6967 15.5999 23.6967 18.9863ZM21.1803 18.9863C21.1803 20.9842 19.5607 22.6038 17.5628 22.6038C15.5649 22.6038 13.9453 20.9842 13.9453 18.9863C13.9453 16.9884 15.5649 15.3688 17.5628 15.3688C19.5607 15.3688 21.1803 16.9884 21.1803 18.9863ZM17.5628 23.6038C20.113 23.6038 22.1803 21.5364 22.1803 18.9863C22.1803 16.4361 20.113 14.3688 17.5628 14.3688C15.0126 14.3688 12.9453 16.4361 12.9453 18.9863C12.9453 21.5364 15.0126 23.6038 17.5628 23.6038Z" stroke="#5A6E87"/>
</svg>
