<svg width="33" height="33" viewBox="0 0 33 33" fill="none" xmlns="http://www.w3.org/2000/svg">
<rect x="4.93359" y="5.11896" width="24" height="22" rx="2" stroke="#5A6E87" stroke-width="2"/>
<path d="M22.983 23.6961C23.1177 23.8694 23.4544 23.8694 23.5891 23.6961L26.4544 20.0089C26.5891 19.8356 26.4208 19.619 26.1514 19.619H20.4208C20.1514 19.619 19.983 19.8356 20.1177 20.0089L22.983 23.6961Z" fill="#5A6E87"/>
<path d="M22.983 8.54179C23.1177 8.36847 23.4544 8.36847 23.5891 8.54179L26.4544 12.229C26.5891 12.4023 26.4208 12.619 26.1514 12.619H20.4208C20.1514 12.619 19.983 12.4023 20.1177 12.229L22.983 8.54179Z" fill="#5A6E87"/>
<path d="M16.9336 15.9012L29.3711 15.9012M17.9336 5.11896L17.9336 27.119" stroke="#5A6E87" stroke-width="2"/>
<path d="M7.95312 10.3041H14.9104M7.95312 15.9012H14.9104M7.95312 21.4834H14.9104" stroke="#BFDBFE" stroke-width="2" stroke-linecap="round"/>
</svg>
