<svg width="33" height="33" viewBox="0 0 33 33" fill="none" xmlns="http://www.w3.org/2000/svg">
<g clip-path="url(#clip0_362_22374)">
<rect x="4.16016" y="5.08984" width="24" height="22" rx="2" fill="#BFDBFE"/>
<path d="M21.0855 15.2369C18.8303 15.2369 8.18865 19.5359 4.3125 21.0843L4.59426 26.7266H27.9752L27.9733 20.2996C25.4546 17.976 23.3407 15.2369 21.0855 15.2369Z" fill="white"/>
<path d="M13.9087 20.5135C16.1639 20.5135 24.099 23.8324 27.9752 25.3807V26.7266H4.59426L4.48152 24.469C8.20432 22.6624 11.6535 20.5135 13.9087 20.5135Z" fill="white"/>
<path d="M4.59426 26.7266L4.3125 21.0843C8.18865 19.5359 18.8303 15.2369 21.0855 15.2369C23.3407 15.2369 25.4546 17.976 27.9733 20.2996L27.9752 26.7266M4.59426 26.7266H27.9752M4.59426 26.7266L4.48152 24.469C8.20432 22.6624 11.6535 20.5135 13.9087 20.5135C16.1639 20.5135 24.099 23.8324 27.9752 25.3807V26.7266" stroke="#5A6E87" stroke-linecap="round"/>
<path d="M13.9688 11.4075C13.9688 12.786 12.8512 13.9036 11.4727 13.9036C10.0941 13.9036 8.97656 12.786 8.97656 11.4075C8.97656 10.0289 10.0941 8.91138 11.4727 8.91138C12.8512 8.91138 13.9688 10.0289 13.9688 11.4075Z" fill="white" stroke="#5A6E87"/>
</g>
<rect x="4.16016" y="5.08984" width="24" height="22" rx="2" stroke="#5A6E87" stroke-width="2"/>
<defs>
<clipPath id="clip0_362_22374">
<rect x="4.16016" y="5.08984" width="24" height="22" rx="2" fill="white"/>
</clipPath>
</defs>
</svg>
