<svg width="33" height="32" viewBox="0 0 33 32" fill="none" xmlns="http://www.w3.org/2000/svg">
<path d="M29.2637 22.1772C29.2637 25.5887 26.4981 28.3543 23.0866 28.3543C19.675 28.3543 16.9094 25.5887 16.9094 22.1772C16.9094 18.7656 19.675 16 23.0866 16C26.4981 16 29.2637 18.7656 29.2637 22.1772Z" stroke="#5A6E87" stroke-width="2"/>
<path d="M4.20703 15.667H16.5614V28.0214H4.20703V15.667Z" stroke="#5A6E87" stroke-width="2"/>
<path d="M13.5307 12.023C12.7496 11.2419 12.7496 9.97561 13.5307 9.19456L17.7893 4.93588C18.5704 4.15484 19.8367 4.15484 20.6178 4.93588L24.8764 9.19456C25.6575 9.97561 25.6575 11.2419 24.8764 12.023L20.6178 16.2817C19.8367 17.0627 18.5704 17.0627 17.7893 16.2817L13.5307 12.023Z" stroke="#5A6E87" stroke-width="2"/>
<path d="M9.28986 4.16541L10.581 8.13911H14.7592L11.379 10.595L12.6701 14.5687L9.28986 12.1128L5.90962 14.5687L7.20076 10.595L3.82053 8.13911H7.99872L9.28986 4.16541Z" fill="#BFDBFE" stroke="#5A6E87"/>
</svg>
