<svg width="25" height="25" viewBox="0 0 25 25" fill="none" xmlns="http://www.w3.org/2000/svg">
<path d="M11.0837 16.3394V11.2737M13.2008 16.3394L13.2008 8.03296M10.5968 13.8065C10.5968 15.228 9.44451 16.3803 8.02303 16.3803C6.60156 16.3803 5.44922 15.228 5.44922 13.8065C5.44922 12.385 6.60156 11.2327 8.02303 11.2327C9.44451 11.2327 10.5968 12.385 10.5968 13.8065ZM18.8312 13.8065C18.8312 15.228 17.6789 16.3803 16.2574 16.3803C14.8359 16.3803 13.6836 15.228 13.6836 13.8065C13.6836 12.385 14.8359 11.2327 16.2574 11.2327C17.6789 11.2327 18.8312 12.385 18.8312 13.8065Z" stroke="#5A6E87" stroke-width="1.5" stroke-linecap="round"/>
<rect x="2.09766" y="6.07507" width="20.25" height="12.75" rx="4.5" stroke="#5A6E87" stroke-width="1.5"/>
</svg>
