<svg width="25" height="25" viewBox="0 0 25 25" fill="none" xmlns="http://www.w3.org/2000/svg">
<path d="M17.1533 18.3424C17.2543 18.4724 17.5068 18.4724 17.6079 18.3424L19.7568 15.5771C19.8579 15.4471 19.7316 15.2846 19.5296 15.2846H15.2316C15.0296 15.2846 14.9033 15.4471 15.0043 15.5771L17.1533 18.3424Z" fill="#5A6E87"/>
<path d="M17.1533 6.97664C17.2543 6.84665 17.5068 6.84665 17.6079 6.97664L19.7568 9.74204C19.8579 9.87203 19.7316 10.0345 19.5296 10.0345H15.2316C15.0296 10.0345 14.9033 9.87203 15.0043 9.74204L17.1533 6.97664Z" fill="#5A6E87"/>
<rect x="3.51172" y="4.62744" width="18" height="16.5" rx="1.5" stroke="#5A6E87" stroke-width="1.5"/>
<path d="M13.7402 12.7141L20.8926 12.7141M13.2637 4.62744L13.2637 21.1274M5.78125 8.51633H10.9992M5.78125 12.7141H10.9992M5.78125 16.9007H10.9992" stroke="#5A6E87" stroke-width="1.5" stroke-linecap="round"/>
</svg>
