<svg width="25" height="25" viewBox="0 0 25 25" fill="none" xmlns="http://www.w3.org/2000/svg">
<g clip-path="url(#clip0_362_22384)">
<path d="M12.2812 6.1307C12.3822 6.00071 12.6348 6.00071 12.7358 6.1307L14.8848 8.89609C14.9858 9.02608 14.8595 9.18857 14.6575 9.18857H10.3595C10.1575 9.18857 10.0312 9.02608 10.1322 8.89609L12.2812 6.1307Z" fill="#5A6E87"/>
<path d="M12.2783 18.758C12.3793 18.888 12.6318 18.888 12.7329 18.758L14.8818 15.9926C14.9829 15.8627 14.8566 15.7002 14.6546 15.7002H10.3566C10.1546 15.7002 10.0283 15.8627 10.1293 15.9926L12.2783 18.758Z" fill="#5A6E87"/>
<path d="M5.67871 4.46375C5.67871 4.04953 6.0145 3.71375 6.42871 3.71375H18.5943C19.0085 3.71375 19.3443 4.04953 19.3443 4.46375V11.6944C19.3443 12.1086 19.0085 12.4444 18.5943 12.4444H6.42871C6.0145 12.4444 5.67871 12.1086 5.67871 11.6944V4.46375Z" stroke="#5A6E87" stroke-width="1.5"/>
<path d="M5.67578 20.425C5.67578 20.8393 6.01157 21.175 6.42578 21.175H18.5914C19.0056 21.175 19.3414 20.8393 19.3414 20.425V13.1944C19.3414 12.7802 19.0056 12.4444 18.5914 12.4444H6.42578C6.01157 12.4444 5.67578 12.7802 5.67578 13.1944V20.425Z" stroke="#5A6E87" stroke-width="1.5"/>
</g>
<defs>
<clipPath id="clip0_362_22384">
<rect x="3.30078" y="2.69446" width="18.75" height="19.5" rx="1.5" fill="white"/>
</clipPath>
</defs>
</svg>
