<svg width="25" height="25" viewBox="0 0 25 25" fill="none" xmlns="http://www.w3.org/2000/svg">
<rect x="3.16406" y="4.37695" width="18" height="16.5" rx="1.5" stroke="#5A6E87" stroke-width="1.5"/>
<path d="M12.0166 17.4125C12.1176 17.5425 12.3701 17.5425 12.4711 17.4125L14.6201 14.6471C14.7211 14.5171 14.5949 14.3546 14.3928 14.3546H10.0949C9.89284 14.3546 9.76657 14.5171 9.86758 14.6471L12.0166 17.4125Z" fill="#5A6E87"/>
<path d="M12.0166 7.62569C12.1176 7.4957 12.3701 7.4957 12.4711 7.62569L14.6201 10.3911C14.7211 10.5211 14.5949 10.6836 14.3928 10.6836H10.0949C9.89284 10.6836 9.76657 10.5211 9.86758 10.3911L12.0166 7.62569Z" fill="#5A6E87"/>
<line x1="6.22266" y1="12.3992" x2="18.2637" y2="12.3992" stroke="#5A6E87" stroke-width="1.5" stroke-linecap="round"/>
</svg>
