<svg width="24" height="25" viewBox="0 0 24 25" fill="none" xmlns="http://www.w3.org/2000/svg">
<path d="M12.9361 12.5023L12.3579 12.0246L12.1861 12.2326V12.5023H12.9361ZM18.2366 6.08574L17.6584 5.60808L17.6584 5.60808L18.2366 6.08574ZM3.07243 6.09358L2.50403 6.58289L2.50403 6.58289L3.07243 6.09358ZM8.58936 12.5023H9.33936V12.2239L9.15776 12.013L8.58936 12.5023ZM8.58936 20.564H7.83936C7.83936 20.8378 7.98862 21.0899 8.22873 21.2216C8.46884 21.3532 8.76163 21.3436 8.99254 21.1964L8.58936 20.564ZM12.9361 17.7928L13.3393 18.4252C13.5553 18.2875 13.6861 18.049 13.6861 17.7928H12.9361ZM22.0249 16.2896C22.3158 15.9948 22.3127 15.5199 22.0178 15.229C21.723 14.938 21.2481 14.9412 20.9572 15.236L22.0249 16.2896ZM18.9255 18.3627L18.3916 17.8359L17.8424 18.3925L18.4213 18.918L18.9255 18.3627ZM20.9869 21.2471C21.2936 21.5255 21.7679 21.5026 22.0464 21.1959C22.3248 20.8892 22.3018 20.4149 21.9952 20.1365L20.9869 21.2471ZM16.8882 15.2361C16.5972 14.9412 16.1224 14.9381 15.8275 15.229C15.5327 15.52 15.5295 15.9948 15.8205 16.2897L16.8882 15.2361ZM18.9199 18.3628L19.424 18.9181L20.003 18.3925L19.4538 17.836L18.9199 18.3628ZM15.8502 20.1365C15.5435 20.4149 15.5206 20.8892 15.799 21.1959C16.0774 21.5026 16.5517 21.5255 16.8584 21.2471L15.8502 20.1365ZM13.5143 12.9799L18.8149 6.5634L17.6584 5.60808L12.3579 12.0246L13.5143 12.9799ZM17.8474 4.5094H3.45502V6.0094H17.8474V4.5094ZM2.50403 6.58289L8.02096 12.9916L9.15776 12.013L3.64083 5.60427L2.50403 6.58289ZM7.83936 12.5023V20.564H9.33936V12.5023H7.83936ZM8.99254 21.1964L13.3393 18.4252L12.5329 17.1604L8.18618 19.9316L8.99254 21.1964ZM13.6861 17.7928V12.5023H12.1861V17.7928H13.6861ZM3.45502 4.5094C2.3817 4.5094 1.80378 5.76945 2.50403 6.58289L3.64083 5.60427C3.77765 5.76321 3.66473 6.0094 3.45502 6.0094V4.5094ZM18.8149 6.5634C19.4908 5.74512 18.9088 4.5094 17.8474 4.5094V6.0094C17.6401 6.0094 17.5263 5.76796 17.6584 5.60808L18.8149 6.5634ZM20.9572 15.236L18.3916 17.8359L19.4593 18.8895L22.0249 16.2896L20.9572 15.236ZM18.4213 18.918L20.9869 21.2471L21.9952 20.1365L19.4296 17.8074L18.4213 18.918ZM15.8205 16.2897L18.3861 18.8896L19.4538 17.836L16.8882 15.2361L15.8205 16.2897ZM18.4158 17.8075L15.8502 20.1365L16.8584 21.2471L19.424 18.9181L18.4158 17.8075Z" fill="#5A6E87"/>
</svg>
