<svg width="24" height="25" viewBox="0 0 24 25" fill="none" xmlns="http://www.w3.org/2000/svg">
<path d="M20.483 20.7991H10.3016M10.3016 20.7991H7.31697L3.73747 17.1147C3.16387 16.5242 3.17325 15.5818 3.75851 15.003L14.0032 4.86989C14.5854 4.2941 15.5217 4.29152 16.107 4.8641L20.2052 8.87324C20.8046 9.45962 20.8069 10.4235 20.2103 11.0127L10.3016 20.7991ZM8.89689 10.1121L14.9115 16.0423M7.01407 3.67712L3.07422 7.61698" stroke="#5A6E87" stroke-width="1.5" stroke-linecap="round"/>
<path d="M3.77378 3.49553C3.77378 3.98103 3.3802 4.37461 2.8947 4.37461C2.4092 4.37461 2.01562 3.98103 2.01562 3.49553C2.01562 3.01003 2.4092 2.61646 2.8947 2.61646C3.3802 2.61646 3.77378 3.01003 3.77378 3.49553Z" stroke="#5A6E87" stroke-width="1.5"/>
<path d="M7.89487 7.61699C7.89487 8.10249 7.50129 8.49607 7.01579 8.49607C6.53029 8.49607 6.13672 8.10249 6.13672 7.61699C6.13672 7.13149 6.53029 6.73792 7.01579 6.73792C7.50129 6.73792 7.89487 7.13149 7.89487 7.61699Z" stroke="#5A6E87" stroke-width="1.5"/>
</svg>
