<svg width="24" height="25" viewBox="0 0 24 25" fill="none" xmlns="http://www.w3.org/2000/svg">
<g clip-path="url(#clip0_481_20141)">
<path d="M2.25 3.31592V2.56592H1.5V3.31592H2.25ZM2.25 9.31592H1.5V10.0659H2.25V9.31592ZM21.75 3.31592H22.5V2.56592H21.75V3.31592ZM21.75 9.31592V10.0659H22.5V9.31592H21.75ZM12.7775 12.1753C12.7775 11.761 12.4417 11.4253 12.0275 11.4253C11.6133 11.4253 11.2775 11.761 11.2775 12.1753L12.7775 12.1753ZM12.0275 17.3188L11.4162 17.7533C11.5592 17.9544 11.7918 18.0723 12.0385 18.0687C12.2851 18.0651 12.5142 17.9404 12.6512 17.7353L12.0275 17.3188ZM13.5173 16.4385C13.7473 16.094 13.6546 15.6283 13.3101 15.3982C12.9657 15.1682 12.4999 15.2609 12.2699 15.6054L13.5173 16.4385ZM11.7167 15.5873C11.4767 15.2497 11.0085 15.1707 10.6709 15.4107C10.3333 15.6507 10.2542 16.1189 10.4942 16.4565L11.7167 15.5873ZM2.25 4.06592H8.75V2.56592H2.25V4.06592ZM8 3.31592V9.31592H9.5V3.31592H8ZM8.75 8.56592H2.25V10.0659H8.75V8.56592ZM3 9.31592V3.31592H1.5V9.31592H3ZM8.75 4.06592H15.25V2.56592H8.75V4.06592ZM14.5 3.31592V9.31592H16V3.31592H14.5ZM15.25 8.56592H8.75V10.0659H15.25V8.56592ZM15.25 4.06592H21.75V2.56592H15.25V4.06592ZM21 3.31592V9.31592H22.5V3.31592H21ZM21.75 8.56592H15.25V10.0659H21.75V8.56592ZM11.2775 12.1753L11.2775 17.3188L12.7775 17.3188L12.7775 12.1753L11.2775 12.1753ZM12.2699 15.6054L11.4038 16.9022L12.6512 17.7353L13.5173 16.4385L12.2699 15.6054ZM12.6388 16.8842L11.7167 15.5873L10.4942 16.4565L11.4162 17.7533L12.6388 16.8842Z" fill="#5A6E87"/>
</g>
<rect x="2.25" y="3.31592" width="19.5" height="18" rx="1.5" stroke="#5A6E87" stroke-width="1.6"/>
<defs>
<clipPath id="clip0_481_20141">
<rect x="2.25" y="3.31592" width="19.5" height="18" rx="1.5" fill="white"/>
</clipPath>
</defs>
</svg>
