<svg width="32" height="33" viewBox="0 0 32 33" fill="none" xmlns="http://www.w3.org/2000/svg">
<path d="M19.066 17.1904L18.2951 16.5535L18.066 16.8308V17.1904H19.066ZM13.2704 17.1904H14.2704V16.8193L14.0283 16.538L13.2704 17.1904ZM13.2704 27.9393H12.2704C12.2704 28.3044 12.4694 28.6405 12.7896 28.8161C13.1097 28.9917 13.5001 28.9788 13.808 28.7825L13.2704 27.9393ZM19.066 24.2444L19.6036 25.0876C19.8917 24.9039 20.066 24.586 20.066 24.2444H19.066ZM26.1334 8.63499L25.3625 7.99811L26.1334 8.63499ZM19.837 17.8273L26.9044 9.27186L25.3625 7.99811L18.2951 16.5535L19.837 17.8273ZM25.6145 6.5332H6.42462V8.5332H25.6145V6.5332ZM5.15663 9.29785L12.5125 17.8428L14.0283 16.538L6.67237 7.99304L5.15663 9.29785ZM12.2704 17.1904V27.9393H14.2704V17.1904H12.2704ZM13.808 28.7825L19.6036 25.0876L18.5285 23.4012L12.7328 27.0961L13.808 28.7825ZM20.066 24.2444V17.1904H18.066V24.2444H20.066ZM6.42462 6.5332C4.99353 6.5332 4.22297 8.21327 5.15663 9.29785L6.67237 7.99304C6.85479 8.20495 6.70424 8.5332 6.42462 8.5332V6.5332ZM26.9044 9.27186C27.8057 8.18083 27.0297 6.5332 25.6145 6.5332V8.5332C25.338 8.5332 25.1864 8.21128 25.3625 7.99811L26.9044 9.27186Z" fill="#5A6E87"/>
</svg>
