<svg width="24" height="25" viewBox="0 0 24 25" fill="none" xmlns="http://www.w3.org/2000/svg">
<path d="M12.772 12.5477L12.3094 12.1656L12.172 12.3319V12.5477H12.772ZM18.0726 6.13115L17.61 5.74902L17.61 5.74902L18.0726 6.13115ZM2.90837 6.13899L2.45365 6.53044L2.45365 6.53044L2.90837 6.13899ZM8.4253 12.5477H9.0253V12.325L8.88002 12.1563L8.4253 12.5477ZM8.4253 20.6094H7.8253C7.8253 20.8285 7.9447 21.0301 8.13679 21.1355C8.32888 21.2408 8.56311 21.2331 8.74784 21.1153L8.4253 20.6094ZM12.772 17.8382L13.0946 18.3441C13.2674 18.2339 13.372 18.0431 13.372 17.8382H12.772ZM16.2222 19.2873L16.8222 19.2873V19.2873H16.2222ZM16.0145 15.6556C15.9115 15.3406 15.5727 15.1688 15.2577 15.2717C14.9428 15.3747 14.7709 15.7135 14.8739 16.0285L16.0145 15.6556ZM15.9515 17.3937L15.3812 17.5802L15.5616 18.1321L16.1191 17.9698L15.9515 17.3937ZM17.5901 17.5418C17.9083 17.4492 18.0912 17.1162 17.9986 16.7981C17.906 16.4799 17.573 16.297 17.2549 16.3896L17.5901 17.5418ZM20.5692 21.1073C20.6722 21.4223 21.011 21.5942 21.3259 21.4912C21.6409 21.3882 21.8128 21.0494 21.7098 20.7344L20.5692 21.1073ZM20.6322 19.3692L21.2025 19.1827L21.022 18.6309L20.4645 18.7931L20.6322 19.3692ZM18.9935 19.2211C18.6753 19.3137 18.4925 19.6467 18.585 19.9649C18.6776 20.283 19.0106 20.4659 19.3288 20.3733L18.9935 19.2211ZM13.2346 12.9298L18.5352 6.51328L17.61 5.74902L12.3094 12.1656L13.2346 12.9298ZM17.6834 4.70481H3.29096V5.90481H17.6834V4.70481ZM2.45365 6.53044L7.97058 12.9391L8.88002 12.1563L3.36309 5.74754L2.45365 6.53044ZM7.8253 12.5477V20.6094H9.0253V12.5477H7.8253ZM8.74784 21.1153L13.0946 18.3441L12.4495 17.3323L8.10275 20.1034L8.74784 21.1153ZM13.372 17.8382V12.5477H12.172V17.8382H13.372ZM3.29096 4.70481C2.34594 4.70481 1.83711 5.81423 2.45365 6.53044L3.36309 5.74754C3.37168 5.75753 3.38164 5.77663 3.38442 5.80006C3.38686 5.82069 3.38299 5.83728 3.37747 5.84931C3.37195 5.86134 3.3619 5.8751 3.34468 5.88671C3.32511 5.8999 3.30413 5.90481 3.29096 5.90481V4.70481ZM18.5352 6.51328C19.1303 5.79281 18.6179 4.70481 17.6834 4.70481V5.90481C17.6701 5.90481 17.6494 5.89995 17.6301 5.8871C17.6131 5.87575 17.6029 5.8622 17.5973 5.85019C17.5916 5.83818 17.5876 5.82174 17.5897 5.80136C17.5921 5.7783 17.6015 5.75925 17.61 5.74902L18.5352 6.51328ZM18.179 15.9969H18.4232V14.7969H18.179V15.9969ZM19.9021 17.4757V18.2616H21.1021V17.4757H19.9021ZM16.9447 17.2299C16.9454 16.5487 17.4978 15.9969 18.179 15.9969V14.7969C16.8355 14.7969 15.7461 15.8852 15.7447 17.2286L16.9447 17.2299ZM18.4232 15.9969C19.24 15.9969 19.9021 16.659 19.9021 17.4757H21.1021C21.1021 15.9962 19.9027 14.7969 18.4232 14.7969V15.9969ZM18.5453 20.7662H18.301V21.9662H18.5453V20.7662ZM16.8222 19.2873V18.5014H15.6222V19.2873H16.8222ZM19.7796 19.5331C19.7789 20.2143 19.2265 20.7662 18.5453 20.7662V21.9662C19.8887 21.9662 20.9782 20.8778 20.9796 19.5344L19.7796 19.5331ZM18.301 20.7662C17.4843 20.7662 16.8222 20.1041 16.8222 19.2873L15.6222 19.2873C15.6222 20.7668 16.8216 21.9662 18.301 21.9662V20.7662ZM14.8739 16.0285L15.3812 17.5802L16.5218 17.2073L16.0145 15.6556L14.8739 16.0285ZM16.1191 17.9698L17.5901 17.5418L17.2549 16.3896L15.7838 16.8176L16.1191 17.9698ZM21.7098 20.7344L21.2025 19.1827L20.0619 19.5556L20.5692 21.1073L21.7098 20.7344ZM20.4645 18.7931L18.9935 19.2211L19.3288 20.3733L20.7998 19.9453L20.4645 18.7931Z" fill="#5A6E87"/>
</svg>
