<svg width="24" height="25" viewBox="0 0 24 25" fill="none" xmlns="http://www.w3.org/2000/svg">
<path d="M14.5744 12.4835L13.9962 12.0059L13.8244 12.2138V12.4835H14.5744ZM9.7076 12.4835H10.4576V12.2052L10.276 11.9942L9.7076 12.4835ZM9.7076 21.5097H8.9576C8.9576 21.7836 9.10685 22.0357 9.34697 22.1673C9.58708 22.299 9.87987 22.2894 10.1108 22.1421L9.7076 21.5097ZM14.5744 18.407L14.9776 19.0394C15.1936 18.9017 15.3244 18.6632 15.3244 18.407H14.5744ZM20.5908 5.20036L20.0126 4.7227L20.5908 5.20036ZM15.1526 12.9612L21.169 5.67802L20.0126 4.7227L13.9962 12.0059L15.1526 12.9612ZM20.2016 3.62402H3.82726V5.12402H20.2016V3.62402ZM2.87626 5.69751L9.1392 12.9728L10.276 11.9942L4.01307 4.7189L2.87626 5.69751ZM8.9576 12.4835V21.5097H10.4576V12.4835H8.9576ZM10.1108 22.1421L14.9776 19.0394L14.1712 17.7746L9.30441 20.8773L10.1108 22.1421ZM15.3244 18.407V12.4835H13.8244V18.407H15.3244ZM3.82726 3.62402C2.75393 3.62402 2.17602 4.88407 2.87626 5.69751L4.01307 4.7189C4.14988 4.87783 4.03697 5.12402 3.82726 5.12402V3.62402ZM21.169 5.67802C21.845 4.85974 21.263 3.62402 20.2016 3.62402V5.12402C19.9942 5.12402 19.8805 4.88259 20.0126 4.7227L21.169 5.67802Z" fill="#5A6E87"/>
</svg>
