<svg width="25" height="25" viewBox="0 0 25 25" fill="none" xmlns="http://www.w3.org/2000/svg">
    <path d="M9.10133 20.4976C8.67888 20.6536 8.23828 20.335 8.23828 19.8846C8.23828 19.5993 8.42209 19.3475 8.68991 19.249C10.6443 18.53 12.1705 17.4647 13.2683 16.0531C14.4705 14.5557 15.0716 12.9634 15.0716 11.2761C15.0716 10.8754 14.9767 10.538 14.7869 10.2638C14.6392 10.074 14.4916 9.97908 14.344 9.97908C14.112 9.97908 13.6058 10.19 12.8254 10.6118C12.4458 10.8016 12.0451 10.8965 11.6233 10.8965C10.5899 10.8965 9.76734 10.5907 9.15571 9.97908C8.54409 9.36746 8.23828 8.52384 8.23828 7.44823C8.23828 6.4148 8.62845 5.529 9.4088 4.79084C10.2102 4.05268 11.1804 3.68359 12.3193 3.68359C13.7112 3.68359 14.945 4.29522 16.0206 5.51846C17.1173 6.72061 17.6657 8.32348 17.6657 10.3271C17.6657 12.4994 16.9064 14.5135 15.3879 16.3695C14.0256 18.0772 11.9301 19.4532 9.10133 20.4976Z" fill="#5A6E87"/>
</svg>
