<svg width="25" height="25" viewBox="0 0 25 25" fill="none" xmlns="http://www.w3.org/2000/svg">
    <path d="M3.30978 15.2185C2.98107 15.2185 2.70537 15.1071 2.4827 14.8844C2.26002 14.6618 2.14868 14.3861 2.14868 14.0574C2.14868 13.7286 2.26002 13.4529 2.4827 13.2303C2.70537 13.0076 2.98107 12.8963 3.30978 12.8963C3.6279 12.8963 3.89829 13.0076 4.12097 13.2303C4.34364 13.4529 4.45498 13.7286 4.45498 14.0574C4.45498 14.3861 4.34364 14.6618 4.12097 14.8844C3.89829 15.1071 3.6279 15.2185 3.30978 15.2185Z" fill="#5A6E87"/>
    <path d="M5.14526 9.19027C5.14526 7.35583 5.45276 5.92433 6.06778 4.89578C6.69339 3.85662 7.76437 3.33704 9.28069 3.33704C10.797 3.33704 11.8627 3.85662 12.4777 4.89578C13.1033 5.92433 13.4161 7.35583 13.4161 9.19027C13.4161 11.0459 13.1033 12.4986 12.4777 13.5484C11.8627 14.5875 10.797 15.1071 9.28069 15.1071C7.76437 15.1071 6.69339 14.5875 6.06778 13.5484C5.45276 12.4986 5.14526 11.0459 5.14526 9.19027ZM11.6347 9.19027C11.6347 8.33137 11.5764 7.60502 11.4597 7.01121C11.3537 6.41741 11.131 5.93494 10.7917 5.56381C10.4524 5.18208 9.94872 4.99121 9.28069 4.99121C8.61266 4.99121 8.10899 5.18208 7.76967 5.56381C7.43035 5.93494 7.20237 6.41741 7.08573 7.01121C6.97969 7.60502 6.92667 8.33137 6.92667 9.19027C6.92667 10.081 6.97969 10.8285 7.08573 11.4329C7.19177 12.0374 7.41444 12.5251 7.75376 12.8963C8.10368 13.2674 8.61266 13.4529 9.28069 13.4529C9.94872 13.4529 10.4524 13.2674 10.7917 12.8963C11.1416 12.5251 11.3696 12.0374 11.4757 11.4329C11.5817 10.8285 11.6347 10.081 11.6347 9.19027Z" fill="#5A6E87"/>
    <path d="M14.2699 9.19027C14.2699 7.35583 14.5774 5.92433 15.1924 4.89578C15.818 3.85662 16.889 3.33704 18.4053 3.33704C19.9216 3.33704 20.9873 3.85662 21.6023 4.89578C22.2279 5.92433 22.5407 7.35583 22.5407 9.19027C22.5407 11.0459 22.2279 12.4986 21.6023 13.5484C20.9873 14.5875 19.9216 15.1071 18.4053 15.1071C16.889 15.1071 15.818 14.5875 15.1924 13.5484C14.5774 12.4986 14.2699 11.0459 14.2699 9.19027ZM20.7593 9.19027C20.7593 8.33137 20.701 7.60502 20.5844 7.01121C20.4783 6.41741 20.2557 5.93494 19.9163 5.56381C19.577 5.18208 19.0733 4.99121 18.4053 4.99121C17.7373 4.99121 17.2336 5.18208 16.8943 5.56381C16.555 5.93494 16.327 6.41741 16.2103 7.01121C16.1043 7.60502 16.0513 8.33137 16.0513 9.19027C16.0513 10.081 16.1043 10.8285 16.2103 11.4329C16.3164 12.0374 16.5391 12.5251 16.8784 12.8963C17.2283 13.2674 17.7373 13.4529 18.4053 13.4529C19.0733 13.4529 19.577 13.2674 19.9163 12.8963C20.2663 12.5251 20.4942 12.0374 20.6003 11.4329C20.7063 10.8285 20.7593 10.081 20.7593 9.19027Z" fill="#5A6E87"/>
    <path d="M19.8487 17.0515L21.5162 18.7193M21.5162 18.7193L19.8487 20.3868M21.5162 18.7193L12.3242 18.7193" stroke="#5A6E87" stroke-width="1.4" stroke-linecap="round" stroke-linejoin="round"/>
</svg>
