<svg width="25" height="25" viewBox="0 0 25 25" fill="none" xmlns="http://www.w3.org/2000/svg">
    <path d="M7.74303 14.7691C7.40328 14.7691 7.11834 14.654 6.88819 14.4239C6.65804 14.1937 6.54297 13.9088 6.54297 13.569C6.54297 13.2293 6.65804 12.9444 6.88819 12.7142C7.11834 12.4841 7.40328 12.369 7.74303 12.369C8.07181 12.369 8.35128 12.4841 8.58142 12.7142C8.81157 12.9444 8.92665 13.2293 8.92665 13.569C8.92665 13.9088 8.81157 14.1937 8.58142 14.4239C8.35128 14.654 8.07181 14.7691 7.74303 14.7691Z" fill="#5A6E87"/>
    <path d="M9.60496 8.50579C9.60496 6.6098 9.92278 5.13028 10.5584 4.06721C11.205 2.99319 12.3119 2.45618 13.8791 2.45618C15.4463 2.45618 16.5478 2.99319 17.1834 4.06721C17.83 5.13028 18.1533 6.6098 18.1533 8.50579C18.1533 10.4237 17.83 11.9251 17.1834 13.0101C16.5478 14.0841 15.4463 14.6212 13.8791 14.6212C12.3119 14.6212 11.205 14.0841 10.5584 13.0101C9.92278 11.9251 9.60496 10.4237 9.60496 8.50579ZM16.3121 8.50579C16.3121 7.61807 16.2519 6.86735 16.1313 6.25362C16.0217 5.63989 15.7916 5.14124 15.4409 4.75766C15.0902 4.36312 14.5696 4.16585 13.8791 4.16585C13.1887 4.16585 12.6681 4.36312 12.3174 4.75766C11.9667 5.14124 11.7311 5.63989 11.6105 6.25362C11.5009 6.86735 11.4461 7.61807 11.4461 8.50579C11.4461 9.42638 11.5009 10.199 11.6105 10.8237C11.7201 11.4484 11.9503 11.9525 12.301 12.3361C12.6626 12.7197 13.1887 12.9115 13.8791 12.9115C14.5696 12.9115 15.0902 12.7197 15.4409 12.3361C15.8025 11.9525 16.0381 11.4484 16.1477 10.8237C16.2573 10.199 16.3121 9.42638 16.3121 8.50579Z" fill="#5A6E87"/>
    <path d="M9.1575 17.3483L7.42188 19.0842M7.42188 19.0842L9.1575 20.8198M7.42188 19.0842H17.1235" stroke="#5A6E87" stroke-width="1.4" stroke-linecap="round" stroke-linejoin="round"/>
</svg>
