<svg width="33" height="33" viewBox="0 0 33 33" fill="none" xmlns="http://www.w3.org/2000/svg">
<path d="M16.9688 23.5707C24.2024 23.5707 30.0664 19.546 30.0664 14.5812C30.0664 14.3053 30.0483 14.0322 30.0128 13.7626C29.4103 17.579 23.8003 20.5696 16.9688 20.5696C10.1372 20.5696 4.52719 17.579 3.92467 13.7626C3.88921 14.0323 3.87109 14.3053 3.87109 14.5812C3.87109 19.546 9.73511 23.5707 16.9688 23.5707Z" fill="#BFDBFE"/>
<path d="M26.8325 24.087C26.4814 24.4132 26.0914 24.7243 25.6643 25.0174C23.481 26.5159 20.4097 27.4748 16.9688 27.4748C13.5278 27.4748 10.4565 26.5159 8.27319 25.0174C7.8461 24.7243 7.45611 24.4132 7.10501 24.087C7.28172 24.1903 7.46211 24.2902 7.64583 24.3867C10.1425 25.698 13.4171 26.4737 16.9688 26.4737C20.5204 26.4737 23.795 25.698 26.2917 24.3867C26.4754 24.2902 26.6558 24.1903 26.8325 24.087ZM28.5142 11.1778C28.5142 12.6453 27.4648 14.169 25.3431 15.3821C23.2496 16.5792 20.2907 17.3513 16.968 17.3513C13.6454 17.3513 10.6865 16.5792 8.59292 15.3821C6.47121 14.169 5.42188 12.6453 5.42188 11.1778C5.42188 9.71027 6.47121 8.18656 8.59292 6.97341C10.6865 5.77638 13.6454 5.00421 16.968 5.00421C20.2907 5.00421 23.2496 5.77638 25.3431 6.97341C27.4648 8.18656 28.5142 9.71027 28.5142 11.1778Z" stroke="#5A6E87" stroke-width="2"/>
<rect x="18.6875" y="18.3439" width="14" height="14" rx="4" fill="white"/>
<path d="M30.0161 26.6567C29.83 26.6727 29.6683 26.791 29.5968 26.9636C29.5253 27.1361 29.556 27.3342 29.6763 27.477C30.0164 27.8808 30.016 28.4845 29.6539 28.8894C29.5214 29.0376 29.3807 29.1783 29.2325 29.3108C28.8275 29.6729 28.2239 29.6733 27.8201 29.3332C27.6773 29.2129 27.4792 29.1822 27.3067 29.2537C27.1341 29.3252 27.0158 29.4869 26.9998 29.673C26.9548 30.1993 26.5274 30.6259 25.9847 30.656C25.8861 30.6614 25.787 30.6642 25.6872 30.6642C25.5875 30.6642 25.4883 30.6614 25.3897 30.656C24.8471 30.6259 24.4196 30.1993 24.3746 29.673C24.3587 29.4869 24.2404 29.3252 24.0678 29.2537C23.8952 29.1822 23.6972 29.2129 23.5543 29.3332C23.1505 29.6733 22.5469 29.6729 22.142 29.3108L21.8087 29.6835L22.142 29.3108C21.9938 29.1783 21.8531 29.0376 21.7206 28.8894C21.3584 28.4845 21.3581 27.8808 21.6982 27.477C21.8185 27.3342 21.8492 27.1361 21.7777 26.9636C21.7062 26.791 21.5445 26.6727 21.3584 26.6568C20.8321 26.6117 20.4054 26.1843 20.3754 25.6416C20.3699 25.5431 20.3672 25.4439 20.3672 25.3441C20.3672 25.2444 20.3699 25.1452 20.3754 25.0466C20.4054 24.504 20.8321 24.0766 21.3584 24.0315C21.5445 24.0156 21.7062 23.8973 21.7777 23.7247C21.8492 23.5521 21.8185 23.3541 21.6982 23.2112C21.3581 22.8075 21.3584 22.2038 21.7206 21.7989C21.8531 21.6507 21.9938 21.51 22.142 21.3775C22.5469 21.0154 23.1505 21.015 23.5543 21.3551C23.6972 21.4754 23.8952 21.5061 24.0678 21.4346C24.2404 21.3631 24.3587 21.2014 24.3746 21.0153C24.4196 20.489 24.8471 20.0623 25.3897 20.0323C25.4883 20.0269 25.5875 20.0241 25.6872 20.0241C25.787 20.0241 25.8861 20.0269 25.9847 20.0323C26.5274 20.0623 26.9548 20.489 26.9998 21.0153C27.0158 21.2014 27.1341 21.3631 27.3067 21.4346C27.4792 21.5061 27.6773 21.4754 27.8201 21.3551C28.2239 21.015 28.8275 21.0154 29.2325 21.3775C29.3807 21.51 29.5214 21.6507 29.6539 21.7989C30.016 22.2038 30.0164 22.8075 29.6763 23.2112C29.556 23.3541 29.5253 23.5521 29.5968 23.7247C29.6683 23.8973 29.83 24.0156 30.0161 24.0315C30.5424 24.0766 30.9691 24.504 30.9991 25.0466C31.0045 25.1452 31.0073 25.2444 31.0073 25.3441C31.0073 25.4439 31.0045 25.5431 30.9991 25.6416C30.9691 26.1843 30.5424 26.6117 30.0161 26.6567ZM25.6902 27.1896C26.7096 27.1896 27.5359 26.3633 27.5359 25.344C27.5359 24.3247 26.7096 23.4984 25.6902 23.4984C24.6709 23.4984 23.8446 24.3247 23.8446 25.344C23.8446 26.3633 24.6709 27.1896 25.6902 27.1896Z" stroke="#5A6E87" stroke-linecap="round" stroke-linejoin="round"/>
</svg>
