<svg width="33" height="33" viewBox="0 0 33 33" fill="none" xmlns="http://www.w3.org/2000/svg">
<g clip-path="url(#clip0_362_22404)">
<rect x="2.59375" y="4.2395" width="10.1857" height="8" stroke="#5A6E87"/>
<rect x="2.59375" y="12.2395" width="10.1857" height="8" stroke="#5A6E87"/>
<rect x="2.59766" y="20.2395" width="10.1857" height="8" stroke="#5A6E87"/>
<rect x="12.7773" y="4.2395" width="10.1857" height="8" fill="#BFDBFE" stroke="#5A6E87"/>
<rect x="12.7812" y="12.2395" width="10.1857" height="8" fill="#BFDBFE" stroke="#5A6E87"/>
<rect x="12.7852" y="20.2395" width="10.1857" height="8" fill="#BFDBFE" stroke="#5A6E87"/>
<rect x="22.9688" y="4.2395" width="10.1857" height="8" stroke="#5A6E87"/>
<rect x="22.9727" y="12.2395" width="10.1857" height="8" stroke="#5A6E87"/>
<rect x="22.9766" y="20.2395" width="10.1857" height="8" stroke="#5A6E87"/>
</g>
<rect x="6.87109" y="4.2395" width="21" height="24" rx="2" stroke="#5A6E87" stroke-width="2"/>
<rect x="18.6875" y="18.3439" width="14" height="14" rx="4" fill="white"/>
<path d="M26.513 25.92C26.4367 25.8483 26.358 25.7819 26.2772 25.7208C26.6416 24.815 26.8852 24.2887 27.187 23.8529C27.5551 23.3214 28.0264 22.9016 29.0223 22.1037C29.084 22.0542 29.1729 22.052 29.2377 22.0996L29.5929 21.616L29.2377 22.0996C29.3046 22.1487 29.3144 22.2179 29.2993 22.26C28.6348 24.1157 27.6631 24.944 26.513 25.92ZM24.7194 26.4003L24.7108 26.4223L25.0263 26.7L25.831 27.4082L26.2245 27.7545C26.336 28.3354 26.1527 28.9589 25.6848 29.388C25.3301 29.7133 24.9582 29.8526 24.3511 29.8916C23.9304 29.9186 23.4374 29.8961 22.8003 29.8565C22.8227 29.8123 22.8436 29.7676 22.8631 29.7225C23.0394 29.3147 23.0862 28.9064 23.1146 28.5644C23.1195 28.5052 23.1241 28.4476 23.1285 28.3916C23.1763 27.783 23.21 27.3536 23.5801 26.9099C23.9624 26.5686 24.3631 26.4104 24.7194 26.4003Z" stroke="#5A6E87" stroke-width="1.2"/>
<defs>
<clipPath id="clip0_362_22404">
<rect x="6.87109" y="4.2395" width="21" height="24" rx="2" fill="white"/>
</clipPath>
</defs>
</svg>
