<svg width="35" height="37" viewBox="0 5 33 33" fill="none" xmlns="http://www.w3.org/2000/svg">
<path d="M26.1169 16.0862L26.7557 16.7202L27.3874 16.0837L26.7532 15.4497L26.1169 16.0862ZM15.4148 5.3877L16.0511 4.75119L15.4124 4.11278L14.7762 4.75353L15.4148 5.3877ZM6.18485 14.6825L6.82347 15.3167L6.82347 15.3167L6.18485 14.6825ZM6.17927 17.4954L6.8204 16.8638H6.8204L6.17927 17.4954ZM13.9953 25.429L13.3541 26.0606L13.3541 26.0607L13.9953 25.429ZM16.8396 25.4342L17.4784 26.0682L16.8396 25.4342ZM6.95617 5.94234C6.6047 5.59087 6.03485 5.59087 5.68338 5.94234C5.3319 6.29381 5.3319 6.86366 5.68338 7.21513L6.95617 5.94234ZM26.1193 22.9571L26.7563 22.3214L26.1193 21.6831L25.4823 22.3214L26.1193 22.9571ZM26.7532 15.4497L16.0511 4.75119L14.7785 6.0242L25.4806 16.7227L26.7532 15.4497ZM14.7762 4.75353L9.65115 9.91457L10.9284 11.1829L16.0534 6.02186L14.7762 4.75353ZM9.65115 9.91457L5.54622 14.0484L6.82347 15.3167L10.9284 11.1829L9.65115 9.91457ZM5.53813 18.127L13.3541 26.0606L14.6364 24.7974L6.8204 16.8638L5.53813 18.127ZM17.4784 26.0682L26.7557 16.7202L25.4781 15.4522L16.2008 24.8003L17.4784 26.0682ZM14.261 13.2472L10.9262 9.91234L9.65338 11.1851L12.9882 14.52L14.261 13.2472ZM10.9262 9.91234L6.95617 5.94234L5.68338 7.21513L9.65338 11.1851L10.9262 9.91234ZM13.3541 26.0607C14.4871 27.2107 16.3412 27.2141 17.4784 26.0682L16.2008 24.8003C15.7694 25.2349 15.0662 25.2336 14.6364 24.7974L13.3541 26.0607ZM5.54623 14.0484C4.42642 15.176 4.42282 16.9949 5.53814 18.127L6.8204 16.8638C6.39735 16.4343 6.39871 15.7444 6.82347 15.3167L5.54623 14.0484ZM16.8424 16.1292C16.8424 16.8955 16.2211 17.5168 15.4547 17.5168V19.3168C17.2152 19.3168 18.6424 17.8897 18.6424 16.1292H16.8424ZM15.4547 17.5168C14.6884 17.5168 14.0671 16.8955 14.0671 16.1292H12.2671C12.2671 17.8897 13.6943 19.3168 15.4547 19.3168V17.5168ZM14.0671 16.1292C14.0671 15.3628 14.6884 14.7416 15.4547 14.7416V12.9416C13.6943 12.9416 12.2671 14.3687 12.2671 16.1292H14.0671ZM15.4547 14.7416C16.2211 14.7416 16.8424 15.3628 16.8424 16.1292H18.6424C18.6424 14.3687 17.2152 12.9416 15.4547 12.9416V14.7416ZM27.2858 26.169C27.2858 26.8132 26.7636 27.3355 26.1193 27.3355V29.1355C27.7577 29.1355 29.0858 27.8073 29.0858 26.169H27.2858ZM26.1193 27.3355C25.4751 27.3355 24.9528 26.8132 24.9528 26.169H23.1528C23.1528 27.8073 24.481 29.1355 26.1193 29.1355V27.3355ZM24.9528 26.169C24.9528 26.1165 24.9905 25.9376 25.1655 25.6172C25.3265 25.3225 25.5522 24.9999 25.7949 24.6897C26.035 24.3828 26.2773 24.1064 26.4607 23.9057C26.552 23.8058 26.6276 23.7259 26.6797 23.6717C26.7057 23.6446 26.7258 23.624 26.7389 23.6106C26.7454 23.6039 26.7503 23.599 26.7532 23.596C26.7547 23.5946 26.7557 23.5935 26.7562 23.593C26.7565 23.5927 26.7566 23.5926 26.7566 23.5926C26.7567 23.5926 26.7566 23.5926 26.7566 23.5926C26.7566 23.5927 26.7565 23.5927 26.7565 23.5927C26.7564 23.5928 26.7563 23.5929 26.1193 22.9571C25.4823 22.3214 25.4822 22.3215 25.4821 22.3216C25.482 22.3216 25.4819 22.3217 25.4819 22.3218C25.4817 22.322 25.4815 22.3222 25.4812 22.3224C25.4807 22.3229 25.4801 22.3235 25.4794 22.3243C25.4779 22.3257 25.476 22.3277 25.4736 22.3302C25.4687 22.3351 25.4619 22.342 25.4533 22.3507C25.4362 22.3682 25.4118 22.3932 25.3813 22.425C25.3204 22.4884 25.2346 22.5792 25.1321 22.6913C24.9281 22.9145 24.6538 23.227 24.3772 23.5805C24.1033 23.9306 23.8124 24.3395 23.5859 24.7542C23.3735 25.1429 23.1528 25.6508 23.1528 26.169H24.9528ZM26.1193 22.9571C25.4823 23.5929 25.4822 23.5928 25.4821 23.5927C25.4821 23.5927 25.4821 23.5927 25.482 23.5926C25.482 23.5926 25.482 23.5926 25.482 23.5926C25.482 23.5926 25.4821 23.5927 25.4824 23.593C25.4829 23.5935 25.4839 23.5946 25.4854 23.596C25.4884 23.599 25.4932 23.6039 25.4997 23.6106C25.5129 23.624 25.5329 23.6446 25.5589 23.6717C25.611 23.7259 25.6866 23.8058 25.7779 23.9057C25.9614 24.1064 26.2037 24.3828 26.4437 24.6897C26.6864 24.9999 26.9122 25.3225 27.0731 25.6172C27.2482 25.9376 27.2858 26.1165 27.2858 26.169H29.0858C29.0858 25.6508 28.8651 25.1429 28.6527 24.7542C28.4262 24.3395 28.1353 23.9306 27.8614 23.5805C27.5848 23.227 27.3105 22.9145 27.1065 22.6913C27.004 22.5792 26.9182 22.4884 26.8573 22.425C26.8268 22.3932 26.8025 22.3682 26.7853 22.3507C26.7767 22.342 26.7699 22.3351 26.7651 22.3302C26.7626 22.3277 26.7607 22.3257 26.7592 22.3243C26.7585 22.3235 26.7579 22.3229 26.7574 22.3224C26.7572 22.3222 26.757 22.322 26.7568 22.3218C26.7567 22.3217 26.7566 22.3216 26.7565 22.3216C26.7564 22.3215 26.7563 22.3214 26.1193 22.9571Z" fill="#5A6E87"/>
</svg>
