<svg width="22" height="22" viewBox="0 0 14 15" fill="none" xmlns="http://www.w3.org/2000/svg">
<path d="M4.16879 10.9427C4.19382 10.8816 4.25336 10.8416 4.31946 10.8416H8.17116C8.23726 10.8416 8.2968 10.8816 8.32183 10.9427L8.97171 12.5311C8.99674 12.5923 9.05628 12.6323 9.12238 12.6323L10.3752 12.6323C10.4923 12.6323 10.5711 12.5124 10.5246 12.4049L7.07483 3.77708C7.04908 3.71745 6.99034 3.67883 6.92538 3.67883H5.57452C5.50956 3.67883 5.45082 3.71745 5.42507 3.77708L2.00961 12.4049C1.9632 12.5124 2.042 12.6323 2.15906 12.6323H3.36824C3.43434 12.6323 3.49388 12.5923 3.51891 12.5311L4.16879 10.9427ZM6.08893 5.46261C6.14156 5.32134 6.34139 5.32134 6.39402 5.46261L7.84443 9.37648C7.88406 9.48285 7.8054 9.5961 7.69188 9.5961H4.80465C4.69114 9.5961 4.61247 9.48285 4.6521 9.37648L6.08893 5.46261Z" fill="#5A6E87"/>
<path d="M14.0016 10.6401L12.6737 11.9193M12.6737 11.9193L11.3945 10.5916M12.6737 11.9193L12.6617 8.64294" stroke="#5A6E87" stroke-width="0.7" stroke-linecap="round" stroke-linejoin="round"/>
</svg>
