<svg width="25" height="25" viewBox="0 0 25 25" fill="none" xmlns="http://www.w3.org/2000/svg">
<path d="M7.84875 4.12305L11.4785 4.17371C15.0327 4.22331 17.8909 7.11288 17.9018 10.6673C17.9127 14.2218 15.0722 17.1288 11.5184 17.2001L7.755 17.2757M7.46875 4.17355V17.2473" stroke="#5A6E87" stroke-width="2" stroke-linecap="round" stroke-linejoin="round"/>
<path d="M5.09766 22.2989V22.175C5.09766 21.7542 5.48882 21.5049 5.97135 21.5049H19.5716C20.0541 21.5049 20.4453 21.7926 20.4453 22.2134V22.2834C20.4453 22.7042 20.0541 23 19.5716 23H5.97135C5.48882 23 5.09766 22.7197 5.09766 22.2989Z" fill="#5A6E87"/>
<path d="M5.09766 20.127V20.0063C5.09766 19.5965 5.48882 19.3538 5.97135 19.3538H19.5716C20.0541 19.3538 20.4453 19.6339 20.4453 20.0437V20.1119C20.4453 20.5218 20.0541 20.8098 19.5716 20.8098H5.97135C5.48882 20.8098 5.09766 20.5369 5.09766 20.127Z" fill="#5A6E87"/>
</svg>
