<svg width="16" height="16" viewBox="0 0 16 16" fill="none" xmlns="http://www.w3.org/2000/svg">
<path d="M4.90034 11.6857C4.93005 11.6131 5.00074 11.5656 5.07921 11.5656H9.65189C9.73037 11.5656 9.80105 11.6131 9.83076 11.6857L10.6023 13.5714C10.632 13.6441 10.7027 13.6915 10.7812 13.6915H12.0589C12.1979 13.6915 12.2914 13.5492 12.2363 13.4216L8.14075 3.17877C8.11018 3.10798 8.04044 3.06213 7.96333 3.06213H6.76778C6.69066 3.06213 6.62093 3.10798 6.59035 3.17877L2.53558 13.4216C2.48048 13.5492 2.57403 13.6915 2.713 13.6915H3.94994C4.02841 13.6915 4.09909 13.6441 4.12881 13.5714L4.90034 11.6857ZM7.1799 5.17981C7.24238 5.01209 7.47962 5.01209 7.5421 5.17981L9.264 9.82629C9.31105 9.95257 9.21766 10.087 9.0829 10.087H5.65522C5.52046 10.087 5.42707 9.95257 5.47412 9.82629L7.1799 5.17981Z" fill="#5A6E87"/>
<path d="M13.5498 4.63309L12.261 3.3916M12.261 3.3916L11.0195 4.68019M12.261 3.3916L12.2494 6.57143" stroke="#5A6E87" stroke-width="0.7" stroke-linecap="round" stroke-linejoin="round"/>
</svg>
