<svg width="32" height="33" viewBox="0 0 32 33" fill="none" xmlns="http://www.w3.org/2000/svg">
<path d="M18 4.40967H14C13.4477 4.40967 13 4.85738 13 5.40967C13 5.96195 13.4477 6.40967 14 6.40967H18C18.5523 6.40967 19 5.96195 19 5.40967C19 4.85738 18.5523 4.40967 18 4.40967Z" fill="#5A6E87"/>
<path d="M14 28.4097H18C18.5523 28.4097 19 27.962 19 27.4097C19 26.8574 18.5523 26.4097 18 26.4097H14C13.4477 26.4097 13 26.8574 13 27.4097C13 27.962 13.4477 28.4097 14 28.4097Z" fill="#5A6E87"/>
<path d="M26 6.40967V9.40967C26 9.96195 26.4477 10.4097 27 10.4097C27.5523 10.4097 28 9.96195 28 9.40967V6.40967C28 5.58124 27.4142 4.99545 27.4142 4.99545C26.8284 4.40967 26 4.40967 26 4.40967H23C22.4477 4.40967 22 4.85738 22 5.40967C22 5.96195 22.4477 6.40967 23 6.40967H26Z" fill="#5A6E87"/>
<path d="M28 18.4097V14.4097C28 13.8574 27.5523 13.4097 27 13.4097C26.4477 13.4097 26 13.8574 26 14.4097V18.4097C26 18.962 26.4477 19.4097 27 19.4097C27.5523 19.4097 28 18.962 28 18.4097Z" fill="#5A6E87"/>
<path d="M28 26.4097V23.4097C28 22.8574 27.5523 22.4097 27 22.4097C26.4477 22.4097 26 22.8574 26 23.4097V26.4097H23C22.4477 26.4097 22 26.8574 22 27.4097C22 27.962 22.4477 28.4097 23 28.4097H26C26.8284 28.4097 27.4142 27.8239 27.4142 27.8239C28 27.2381 28 26.4097 28 26.4097Z" fill="#5A6E87"/>
<path d="M4 14.4097V18.4097C4 18.962 4.44772 19.4097 5 19.4097C5.55228 19.4097 6 18.962 6 18.4097V14.4097C6 13.8574 5.55228 13.4097 5 13.4097C4.44772 13.4097 4 13.8574 4 14.4097Z" fill="#5A6E87"/>
<path d="M6 26.4097V23.4097C6 22.8574 5.55228 22.4097 5 22.4097C4.44772 22.4097 4 22.8574 4 23.4097V26.4097C4 27.2381 4.58579 27.8239 4.58579 27.8239C5.17157 28.4097 6 28.4097 6 28.4097H9C9.55228 28.4097 10 27.962 10 27.4097C10 26.8574 9.55228 26.4097 9 26.4097H6Z" fill="#5A6E87"/>
<path d="M4 6.40967V9.40967C4 9.96195 4.44772 10.4097 5 10.4097C5.55228 10.4097 6 9.96195 6 9.40967V6.40967H9C9.55228 6.40967 10 5.96195 10 5.40967C10 4.85738 9.55228 4.40967 9 4.40967H6C5.17157 4.40967 4.58579 4.99545 4.58579 4.99545C4 5.58124 4 6.40967 4 6.40967Z" fill="#5A6E87"/>
<path fill-rule="evenodd" clip-rule="evenodd" d="M9 22.4097V10.4097C9 9.85738 9.44772 9.40967 10 9.40967H22C22.5523 9.40967 23 9.85738 23 10.4097V22.4097C23 22.962 22.5523 23.4097 22 23.4097H10C9.44772 23.4097 9 22.962 9 22.4097ZM21 21.4097H11V11.4097H21V21.4097Z" fill="#5A6E87"/>
<path fill-rule="evenodd" clip-rule="evenodd" d="M8.45703 11.1401C8.45703 9.75942 9.57632 8.64014 10.957 8.64014H21.0404C22.4211 8.64014 23.5404 9.75943 23.5404 11.1401V21.4011C23.5404 22.7818 22.4211 23.9011 21.0404 23.9011H10.957C9.57632 23.9011 8.45703 22.7818 8.45703 21.4011V11.1401ZM10.957 9.64014C10.1286 9.64014 9.45703 10.3117 9.45703 11.1401V21.4011C9.45703 22.2296 10.1286 22.9011 10.957 22.9011H21.0404C21.8688 22.9011 22.5404 22.2296 22.5404 21.4011V11.1401C22.5404 10.3117 21.8688 9.64014 21.0404 9.64014H10.957Z" fill="#5A6E87"/>
<path d="M8.95703 11.1401C8.95703 10.0356 9.85246 9.14014 10.957 9.14014H21.0404C22.1449 9.14014 23.0404 10.0356 23.0404 11.1401V21.4011C23.0404 22.5057 22.1449 23.4011 21.0404 23.4011H10.957C9.85246 23.4011 8.95703 22.5057 8.95703 21.4011V11.1401Z" fill="#BFDBFE"/>
</svg>
