<svg width="33" height="33" viewBox="0 0 33 33" fill="none" xmlns="http://www.w3.org/2000/svg">
<g clip-path="url(#clip0_362_22454)">
<rect x="3.67188" y="4.1189" width="26" height="24" rx="2" fill="white"/>
<path d="M3.67188 4.1189H12.3374V11.7362H3.67188V4.1189Z" fill="#5A6E87"/>
<path d="M12.3359 4.1189H21.0015V11.7362H12.3359V4.1189Z" fill="#5A6E87"/>
<path d="M21 4.1189H29.6656V11.7362H21V4.1189Z" fill="#5A6E87"/>
<path d="M3.67188 4.1189H12.3374V11.7362H3.67188V4.1189Z" stroke="#5A6E87" stroke-width="2"/>
<path d="M12.3359 4.1189H21.0015V11.7362H12.3359V4.1189Z" stroke="#5A6E87" stroke-width="2"/>
<path d="M21 4.1189H29.6656V11.7362H21V4.1189Z" stroke="#5A6E87" stroke-width="2"/>
<path d="M21.0093 19.3537V11.7363H12.3438V19.3537M21.0093 19.3537H12.3438M21.0093 19.3537V28.5309H12.3438V19.3537M21.0039 11.7363H29.6695V19.3536H21.0039V11.7363ZM3.67188 11.7362H12.3374V19.3535H3.67188V11.7362ZM3.67578 19.3535H12.3413V28.5309H3.67578V19.3535ZM21.0078 19.3535H29.6734V28.5309H21.0078V19.3535Z" stroke="#5A6E87" stroke-width="2"/>
<path d="M6.67661 7.97407C6.65091 7.23814 7.22667 6.62071 7.9626 6.59501C8.69853 6.56931 9.31595 7.14507 9.34165 7.881C9.36735 8.61693 8.79159 9.23436 8.05566 9.26006C7.31973 9.28575 6.70231 8.71 6.67661 7.97407Z" fill="white"/>
<path d="M15.3446 7.95154C15.3189 7.21561 15.8946 6.59818 16.6306 6.57248C17.3665 6.54678 17.9839 7.12254 18.0096 7.85847C18.0353 8.5944 17.4596 9.21183 16.7236 9.23753C15.9877 9.26322 15.3703 8.68747 15.3446 7.95154Z" fill="white"/>
<path d="M23.9971 8.06711C23.9714 7.33118 24.5471 6.71375 25.2831 6.68805C26.019 6.66235 26.6364 7.23811 26.6621 7.97404C26.6878 8.70997 26.1121 9.3274 25.3761 9.3531C24.6402 9.37879 24.0228 8.80304 23.9971 8.06711Z" fill="white"/>
</g>
<rect x="3.67188" y="4.1189" width="26" height="24" rx="2" stroke="#5A6E87" stroke-width="2"/>
<defs>
<clipPath id="clip0_362_22454">
<rect x="3.67188" y="4.1189" width="26" height="24" rx="2" fill="white"/>
</clipPath>
</defs>
</svg>
