<svg width="33" height="32" viewBox="0 0 33 32" fill="none" xmlns="http://www.w3.org/2000/svg">
<path d="M6.08203 3.54224L6.08203 12.756L26.4589 12.756L26.4589 3.54224M6.08203 28.1469L6.08203 18.9331L26.4589 18.9331L26.4589 28.1469" stroke="#5A6E87" stroke-width="2"/>
<path fill-rule="evenodd" clip-rule="evenodd" d="M4.61328 15.772C4.61328 15.4958 4.83714 15.272 5.11328 15.272H6.2293C6.50544 15.272 6.7293 15.4958 6.7293 15.772C6.7293 16.0481 6.50544 16.272 6.2293 16.272H5.11328C4.83714 16.272 4.61328 16.0481 4.61328 15.772ZM9.07734 15.772C9.07734 15.4958 9.3012 15.272 9.57734 15.272H11.8094C12.0855 15.272 12.3094 15.4958 12.3094 15.772C12.3094 16.0481 12.0855 16.272 11.8094 16.272H9.57734C9.3012 16.272 9.07734 16.0481 9.07734 15.772ZM14.6574 15.772C14.6574 15.4958 14.8813 15.272 15.1574 15.272H17.3895C17.6656 15.272 17.8895 15.4958 17.8895 15.772C17.8895 16.0481 17.6656 16.272 17.3895 16.272H15.1574C14.8813 16.272 14.6574 16.0481 14.6574 15.772ZM20.2375 15.772C20.2375 15.4958 20.4614 15.272 20.7375 15.272H22.9695C23.2457 15.272 23.4695 15.4958 23.4695 15.772C23.4695 16.0481 23.2457 16.272 22.9695 16.272H20.7375C20.4614 16.272 20.2375 16.0481 20.2375 15.772ZM25.8176 15.772C25.8176 15.4958 26.0414 15.272 26.3176 15.272H27.4336C27.7097 15.272 27.9336 15.4958 27.9336 15.772C27.9336 16.0481 27.7097 16.272 27.4336 16.272H26.3176C26.0414 16.272 25.8176 16.0481 25.8176 15.772Z" fill="#5A6E87"/>
</svg>
