<svg width="33" height="32" viewBox="0 0 33 32" fill="none" xmlns="http://www.w3.org/2000/svg">
<g clip-path="url(#clip0_398_14428)">
<path d="M4.55078 23.7757L4.55078 29L9.99931 29M4.55078 23.7757H9.99931M4.55078 23.7757L4.55078 7.83359M9.99931 23.7757V29M9.99931 23.7757L9.99931 7.83359M9.99931 23.7757H22.1055M9.99931 29L22.1055 29M22.1055 29V23.7757M22.1055 29L27.5508 29V23.7757M22.1055 23.7757H27.5508M22.1055 23.7757V7.83359M27.5508 23.7757V7.83359M4.55078 7.83359H9.99931M4.55078 7.83359L4.55078 2H10M9.99931 7.83359L10 2M9.99931 7.83359H22.1055M22.1055 7.83359H27.5508M22.1055 7.83359V2M27.5508 7.83359V2L22.1055 2M22.1055 2H10" stroke="#5A6E87"/>
</g>
<rect x="4.55469" y="3" width="23" height="26" rx="2" stroke="#5A6E87" stroke-width="2"/>
<defs>
<clipPath id="clip0_398_14428">
<rect x="4.55469" y="3" width="23" height="26" rx="2" fill="white"/>
</clipPath>
</defs>
</svg>
