<svg width="33" height="32" viewBox="0 0 33 32" fill="none" xmlns="http://www.w3.org/2000/svg">
<g clip-path="url(#clip0_362_22383)">
<rect x="3.97656" y="4" width="26" height="8" fill="#BFDBFE"/>
<path d="M3.97656 4H12.6432V12H3.97656V4Z" stroke="#5A6E87"/>
<path d="M12.6445 4H21.3112V12H12.6445V4Z" stroke="#5A6E87"/>
<path d="M21.3086 4H29.9753V12H21.3086V4Z" stroke="#5A6E87"/>
</g>
<rect x="3.97656" y="4" width="26" height="24" rx="2" stroke="#5A6E87" stroke-width="2"/>
<g clip-path="url(#clip1_362_22383)">
<rect x="18.9766" y="17.9996" width="14" height="14.0004" rx="4" fill="white"/>
<path d="M28.8682 21.2116V22.3681C28.8682 22.5984 29.0549 22.7851 29.2852 22.7851C29.5155 22.7851 29.7021 22.5984 29.7021 22.3681V20.7947C29.7021 20.5644 29.5155 20.3777 29.2852 20.3777H22.6136C22.3834 20.3777 22.1967 20.5644 22.1967 20.7947V22.3681C22.1967 22.5984 22.3834 22.7851 22.6136 22.7851C22.8439 22.7851 23.0306 22.5984 23.0306 22.3681V21.2116H28.8682Z" fill="#5A6E87"/>
<path fill-rule="evenodd" clip-rule="evenodd" d="M22.1967 29.1537V26.1209C22.1967 25.8906 22.3834 25.7039 22.6136 25.7039H29.2852C29.5155 25.7039 29.7021 25.8906 29.7021 26.1209V29.1537C29.7021 29.384 29.5155 29.5707 29.2852 29.5707H22.6136C22.3834 29.5707 22.1967 29.384 22.1967 29.1537ZM28.8682 28.7368H23.0306V26.5378H28.8682V28.7368Z" fill="#5A6E87"/>
<path d="M30.7446 26.9548H29.2852C29.0549 26.9548 28.8682 27.1415 28.8682 27.3718C28.8682 27.6021 29.0549 27.7887 29.2852 27.7887H31.1615C31.3918 27.7887 31.5785 27.6021 31.5785 27.3718V23.2021C31.5785 22.6758 31.1794 22.3069 31.1794 22.3069C30.7945 21.9512 30.2598 21.9512 30.2598 21.9512H21.639C21.1043 21.9512 20.7194 22.3069 20.7194 22.3069C20.3203 22.6758 20.3203 23.2021 20.3203 23.2021V27.3718C20.3203 27.6021 20.507 27.7887 20.7373 27.7887H22.6136C22.8439 27.7887 23.0306 27.6021 23.0306 27.3718C23.0306 27.1415 22.8439 26.9548 22.6136 26.9548H21.1543V23.2021C21.1543 23.0406 21.2855 22.9193 21.2855 22.9193C21.4307 22.7851 21.639 22.7851 21.639 22.7851H30.2598C30.4681 22.7851 30.6133 22.9193 30.6133 22.9193C30.7446 23.0406 30.7446 23.2021 30.7446 23.2021V26.9548Z" fill="#5A6E87"/>
<path d="M29.7021 24.2445C29.7021 24.5899 29.4221 24.87 29.0767 24.87C28.7313 24.87 28.4512 24.5899 28.4512 24.2445C28.4512 23.8991 28.7313 23.619 29.0767 23.619C29.4221 23.619 29.7021 23.8991 29.7021 24.2445Z" fill="#5A6E87"/>
<path d="M28.8682 21.2116V22.3681C28.8682 22.5984 29.0549 22.7851 29.2852 22.7851C29.5155 22.7851 29.7021 22.5984 29.7021 22.3681V20.7947C29.7021 20.5644 29.5155 20.3777 29.2852 20.3777H22.6136C22.3834 20.3777 22.1967 20.5644 22.1967 20.7947V22.3681C22.1967 22.5984 22.3834 22.7851 22.6136 22.7851C22.8439 22.7851 23.0306 22.5984 23.0306 22.3681V21.2116H28.8682Z" stroke="#5A6E87" stroke-width="0.4"/>
<path fill-rule="evenodd" clip-rule="evenodd" d="M22.1967 29.1537V26.1209C22.1967 25.8906 22.3834 25.7039 22.6136 25.7039H29.2852C29.5155 25.7039 29.7021 25.8906 29.7021 26.1209V29.1537C29.7021 29.384 29.5155 29.5707 29.2852 29.5707H22.6136C22.3834 29.5707 22.1967 29.384 22.1967 29.1537ZM28.8682 28.7368H23.0306V26.5378H28.8682V28.7368Z" stroke="#5A6E87" stroke-width="0.4"/>
<path d="M30.7446 26.9548H29.2852C29.0549 26.9548 28.8682 27.1415 28.8682 27.3718C28.8682 27.6021 29.0549 27.7887 29.2852 27.7887H31.1615C31.3918 27.7887 31.5785 27.6021 31.5785 27.3718V23.2021C31.5785 22.6758 31.1794 22.3069 31.1794 22.3069C30.7945 21.9512 30.2598 21.9512 30.2598 21.9512H21.639C21.1043 21.9512 20.7194 22.3069 20.7194 22.3069C20.3203 22.6758 20.3203 23.2021 20.3203 23.2021V27.3718C20.3203 27.6021 20.507 27.7887 20.7373 27.7887H22.6136C22.8439 27.7887 23.0306 27.6021 23.0306 27.3718C23.0306 27.1415 22.8439 26.9548 22.6136 26.9548H21.1543V23.2021C21.1543 23.0406 21.2855 22.9193 21.2855 22.9193C21.4307 22.7851 21.639 22.7851 21.639 22.7851H30.2598C30.4681 22.7851 30.6133 22.9193 30.6133 22.9193C30.7446 23.0406 30.7446 23.2021 30.7446 23.2021V26.9548Z" stroke="#5A6E87" stroke-width="0.4"/>
<path d="M29.7021 24.2445C29.7021 24.5899 29.4221 24.87 29.0767 24.87C28.7313 24.87 28.4512 24.5899 28.4512 24.2445C28.4512 23.8991 28.7313 23.619 29.0767 23.619C29.4221 23.619 29.7021 23.8991 29.7021 24.2445Z" stroke="#5A6E87" stroke-width="0.4"/>
</g>
<defs>
<clipPath id="clip0_362_22383">
<rect x="3.97656" y="4" width="26" height="24" rx="2" fill="white"/>
</clipPath>
<clipPath id="clip1_362_22383">
<rect x="18.9766" y="17.9996" width="14" height="14.0004" rx="4" fill="white"/>
</clipPath>
</defs>
</svg>
