<svg width="33" height="33" viewBox="0 0 33 33" fill="none" xmlns="http://www.w3.org/2000/svg">
<path d="M7.15625 7.64197H17.832M7.15625 23.1206H24.793M11.2188 28L11.2187 3.91382M20.6406 28.0934L20.6406 12.6344" stroke="#BFDBFE"/>
<path d="M6.36719 26.5753C6.36719 27.6217 7.21545 28.47 8.26183 28.47H25.7404V12.6161L18.7786 3.91382L6.36719 3.91382V26.5753Z" stroke="#5A6E87" stroke-width="2"/>
<path d="M18.6797 4.70642V12.6344H24.7983" stroke="#5A6E87" stroke-linecap="round"/>
<g clip-path="url(#clip0_371_13107)">
<rect x="18.0547" y="18.0499" width="14" height="14.0004" rx="4" fill="white"/>
<path d="M27.9463 21.2619V22.4184C27.9463 22.6487 28.133 22.8354 28.3633 22.8354C28.5936 22.8354 28.7803 22.6487 28.7803 22.4184V20.8449C28.7803 20.6147 28.5936 20.428 28.3633 20.428H21.6918C21.4615 20.428 21.2748 20.6147 21.2748 20.8449V22.4184C21.2748 22.6487 21.4615 22.8354 21.6918 22.8354C21.9221 22.8354 22.1087 22.6487 22.1087 22.4184V21.2619H27.9463Z" fill="#5A6E87"/>
<path fill-rule="evenodd" clip-rule="evenodd" d="M21.2748 29.204V26.1712C21.2748 25.9409 21.4615 25.7542 21.6918 25.7542H28.3633C28.5936 25.7542 28.7803 25.9409 28.7803 26.1712V29.204C28.7803 29.4343 28.5936 29.621 28.3633 29.621H21.6918C21.4615 29.621 21.2748 29.4343 21.2748 29.204ZM27.9463 28.7871H22.1087V26.5881H27.9463V28.7871Z" fill="#5A6E87"/>
<path d="M29.8227 27.0051H28.3633C28.133 27.0051 27.9463 27.1918 27.9463 27.4221C27.9463 27.6524 28.133 27.839 28.3633 27.839H30.2397C30.4699 27.839 30.6566 27.6524 30.6566 27.4221V23.2524C30.6566 22.7261 30.2575 22.3572 30.2575 22.3572C29.8726 22.0015 29.338 22.0015 29.338 22.0015H20.7171C20.1824 22.0015 19.7975 22.3572 19.7975 22.3572C19.3984 22.7261 19.3984 23.2524 19.3984 23.2524V27.4221C19.3984 27.6524 19.5851 27.839 19.8154 27.839H21.6918C21.9221 27.839 22.1087 27.6524 22.1087 27.4221C22.1087 27.1918 21.9221 27.0051 21.6918 27.0051H20.2324V23.2524C20.2324 23.0909 20.3636 22.9696 20.3636 22.9696C20.5088 22.8354 20.7171 22.8354 20.7171 22.8354H29.338C29.5463 22.8354 29.6915 22.9696 29.6915 22.9696C29.8227 23.0909 29.8227 23.2524 29.8227 23.2524V27.0051Z" fill="#5A6E87"/>
<path d="M28.7803 24.2948C28.7803 24.6402 28.5002 24.9202 28.1548 24.9202C27.8094 24.9202 27.5294 24.6402 27.5294 24.2948C27.5294 23.9494 27.8094 23.6693 28.1548 23.6693C28.5002 23.6693 28.7803 23.9494 28.7803 24.2948Z" fill="#5A6E87"/>
<path d="M27.9463 21.2619V22.4184C27.9463 22.6487 28.133 22.8354 28.3633 22.8354C28.5936 22.8354 28.7803 22.6487 28.7803 22.4184V20.8449C28.7803 20.6147 28.5936 20.428 28.3633 20.428H21.6918C21.4615 20.428 21.2748 20.6147 21.2748 20.8449V22.4184C21.2748 22.6487 21.4615 22.8354 21.6918 22.8354C21.9221 22.8354 22.1087 22.6487 22.1087 22.4184V21.2619H27.9463Z" stroke="#5A6E87" stroke-width="0.4"/>
<path fill-rule="evenodd" clip-rule="evenodd" d="M21.2748 29.204V26.1712C21.2748 25.9409 21.4615 25.7542 21.6918 25.7542H28.3633C28.5936 25.7542 28.7803 25.9409 28.7803 26.1712V29.204C28.7803 29.4343 28.5936 29.621 28.3633 29.621H21.6918C21.4615 29.621 21.2748 29.4343 21.2748 29.204ZM27.9463 28.7871H22.1087V26.5881H27.9463V28.7871Z" stroke="#5A6E87" stroke-width="0.4"/>
<path d="M29.8227 27.0051H28.3633C28.133 27.0051 27.9463 27.1918 27.9463 27.4221C27.9463 27.6524 28.133 27.839 28.3633 27.839H30.2397C30.4699 27.839 30.6566 27.6524 30.6566 27.4221V23.2524C30.6566 22.7261 30.2575 22.3572 30.2575 22.3572C29.8726 22.0015 29.338 22.0015 29.338 22.0015H20.7171C20.1824 22.0015 19.7975 22.3572 19.7975 22.3572C19.3984 22.7261 19.3984 23.2524 19.3984 23.2524V27.4221C19.3984 27.6524 19.5851 27.839 19.8154 27.839H21.6918C21.9221 27.839 22.1087 27.6524 22.1087 27.4221C22.1087 27.1918 21.9221 27.0051 21.6918 27.0051H20.2324V23.2524C20.2324 23.0909 20.3636 22.9696 20.3636 22.9696C20.5088 22.8354 20.7171 22.8354 20.7171 22.8354H29.338C29.5463 22.8354 29.6915 22.9696 29.6915 22.9696C29.8227 23.0909 29.8227 23.2524 29.8227 23.2524V27.0051Z" stroke="#5A6E87" stroke-width="0.4"/>
<path d="M28.7803 24.2948C28.7803 24.6402 28.5002 24.9202 28.1548 24.9202C27.8094 24.9202 27.5294 24.6402 27.5294 24.2948C27.5294 23.9494 27.8094 23.6693 28.1548 23.6693C28.5002 23.6693 28.7803 23.9494 28.7803 24.2948Z" stroke="#5A6E87" stroke-width="0.4"/>
</g>
<defs>
<clipPath id="clip0_371_13107">
<rect x="18.0547" y="18.0499" width="14" height="14.0004" rx="4" fill="white"/>
</clipPath>
</defs>
</svg>
